<?xml version="1.0" standalone="no"?>
<!DOCTYPE svg PUBLIC "-//W3C//DTD SVG 1.1//EN" "http://www.w3.org/Graphics/SVG/1.1/DTD/svg11.dtd" >
<svg xmlns="http://www.w3.org/2000/svg">
<metadata></metadata>
<defs>
<font id="barnaregular" horiz-adv-x="1202" >
<font-face units-per-em="2048" ascent="1536" descent="-512" />
<missing-glyph horiz-adv-x="409" />
<glyph unicode="&#xfb01;" horiz-adv-x="1052" d="M51 907v117h123v61q0 162 80.5 263.5t239.5 101.5q146 0 309 -78l-39 -98q-6 2 -31.5 11t-47 16t-52 15t-63.5 12.5t-64 4.5q-100 0 -148.5 -66t-48.5 -210v-33h594v-1024h-135v907h-459v-907h-135v907h-123z" />
<glyph unicode="&#xfb02;" horiz-adv-x="1155" d="M51 907v117h123v61q0 162 80.5 263.5t239.5 101.5q166 0 391 -45v-1026q0 -149 43 -214t135 -65q33 0 67 6l25 -110q-43 -12 -94 -12q-151 0 -231 92.5t-80 277.5v955q-156 24 -244 24q-100 0 -148.5 -66t-48.5 -210v-33h221v-117h-221v-907h-135v907h-123z" />
<glyph unicode="&#xfb03;" horiz-adv-x="1648" d="M51 907v117h123v63q0 57 10 108.5t34.5 98.5t61 81t92.5 54.5t126 20.5q52 0 114 -16l-26 -113q-41 12 -88 12q-96 0 -142.5 -67t-46.5 -207v-35h461v61q0 162 80.5 263.5t239.5 101.5q146 0 309 -78l-39 -98q-6 2 -31.5 11t-47 16t-52 15t-63.5 12.5t-64 4.5 q-100 0 -148.5 -66t-48.5 -210v-33h594v-1024h-135v907h-459v-907h-135v907h-461v-907h-135v907h-123z" />
<glyph unicode="&#xfb04;" horiz-adv-x="1751" d="M51 907v117h123v63q0 57 10 108.5t34.5 98.5t61 81t92.5 54.5t126 20.5q52 0 114 -16l-26 -113q-41 12 -88 12q-96 0 -142.5 -67t-46.5 -207v-35h461v61q0 162 80.5 263.5t239.5 101.5q166 0 391 -45v-1026q0 -149 43 -214t135 -65q33 0 67 6l25 -110q-43 -12 -94 -12 q-151 0 -231 92.5t-80 277.5v955q-156 24 -244 24q-100 0 -148.5 -66t-48.5 -210v-33h221v-117h-221v-907h-135v907h-461v-907h-135v907h-123z" />
<glyph horiz-adv-x="2048" />
<glyph horiz-adv-x="2048" />
<glyph unicode="&#xd;" horiz-adv-x="2048" />
<glyph unicode=" "  horiz-adv-x="409" />
<glyph unicode="&#x09;" horiz-adv-x="409" />
<glyph unicode="&#xa0;" horiz-adv-x="409" />
<glyph unicode="!" horiz-adv-x="526" d="M154 94q0 44 33 76.5t77 32.5q45 0 77 -32t32 -77t-32 -77.5t-77 -32.5q-44 0 -77 33t-33 77zM193 821v613h139v-613l-27 -473h-86z" />
<glyph unicode="&#x22;" horiz-adv-x="577" d="M82 1434h147l-43 -504h-59zM348 1434h148l-43 -504h-62z" />
<glyph unicode="#" horiz-adv-x="1503" d="M143 502v121h254l88 309h-227v121h262l109 381h151l-108 -381h319l109 381h149l-108 -381h219v-121h-254l-88 -309h227v-121h-262l-143 -502h-152l143 502h-319l-143 -502h-150l143 502h-219zM547 623h319l90 309h-319z" />
<glyph unicode="$" horiz-adv-x="1095" d="M143 94l58 117q170 -102 315 -102q148 0 220.5 75t72.5 185q0 37 -17.5 73t-39.5 62t-67.5 61t-76 54.5t-90.5 56.5q-71 44 -114.5 73t-96 72.5t-81 82t-48.5 90t-20 108.5q0 79 29 143.5t77.5 106t105 66t117.5 30.5v254h127v-250q66 -5 134 -26t103 -37.5t54 -28.5 l-53 -117q-16 10 -43.5 24t-104.5 38t-145 24q-115 0 -185.5 -60t-70.5 -167q0 -36 17.5 -72t41 -63.5t68 -62t77 -56t89.5 -57.5q82 -49 140 -92.5t110.5 -96t79 -111t26.5 -122.5q0 -153 -93 -255.5t-245 -121.5v-262h-127v254q-102 3 -194.5 37.5t-149.5 72.5z" />
<glyph unicode="%" horiz-adv-x="1714" d="M143 1036q0 199 69.5 306.5t205.5 107.5t206 -107.5t70 -306.5q0 -200 -69.5 -306.5t-206.5 -106.5q-136 0 -205.5 106.5t-69.5 306.5zM254 1036q0 -315 164 -315q166 0 166 315q0 316 -166 316q-164 0 -164 -316zM401 0l781 1434h131l-778 -1434h-134zM1020 397 q0 199 69 305.5t205 106.5q137 0 207 -106.5t70 -305.5q0 -200 -70 -306.5t-207 -106.5q-136 0 -205 106t-69 307zM1130 397q0 -317 164 -317q166 0 166 317q0 316 -166 316q-164 0 -164 -316z" />
<glyph unicode="&#x26;" horiz-adv-x="1302" d="M82 383q0 48 11.5 93.5t26 78.5t43.5 69t48.5 56.5t57 49t53 39t51.5 34.5q-68 84 -107 167.5t-39 180.5q0 38 11.5 78.5t37.5 80t62 70.5t90 50.5t117 19.5q86 0 149.5 -27.5t96.5 -71t48 -87t15 -86.5q0 -57 -18.5 -109t-44 -89.5t-68.5 -77t-75 -63t-81 -55.5 l391 -422q24 31 52.5 89t46.5 104l131 -41q-57 -146 -133 -250l248 -264h-173l-161 166q-188 -182 -424 -182q-218 0 -340.5 106t-122.5 293zM227 383q0 -122 84.5 -198t229.5 -76q203 0 336 149l-422 451q-116 -79 -172 -153t-56 -173zM369 1151q0 -79 28.5 -138.5 t87.5 -135.5q8 6 47 33t63 47.5t55.5 54.5t48 75t16.5 87q0 61 -46 108t-124 47q-80 0 -128 -57.5t-48 -120.5z" />
<glyph unicode="'" horiz-adv-x="311" d="M82 1434h147l-43 -504h-59z" />
<glyph unicode="(" horiz-adv-x="487" d="M82 690q0 143 27 280t65.5 230.5t77 167t65.5 108.5l27 35l92 -22q-41 -71 -71.5 -138t-65.5 -168t-54.5 -227t-19.5 -266t19.5 -266t54.5 -227t65.5 -168t71.5 -138l-92 -22q-11 13 -28.5 37t-62.5 105t-79.5 170t-63 227.5t-28.5 281.5z" />
<glyph unicode=")" horiz-adv-x="487" d="M51 -109q41 71 71.5 138t65.5 168t54.5 227t19.5 266t-19.5 266t-54.5 227t-65.5 168t-71.5 138l92 22q11 -13 28.5 -37t63 -105t80 -170t63 -227.5t28.5 -281.5q0 -104 -14.5 -205.5t-37.5 -180.5t-51 -150.5t-56.5 -122.5t-51.5 -88t-37 -55l-15 -19z" />
<glyph unicode="*" horiz-adv-x="927" d="M143 887l217 125l-217 127l50 86l221 -127v256h98v-258l223 129l49 -86l-221 -125l221 -127l-49 -86l-223 125v-254h-98v254l-221 -125z" />
<glyph unicode="+" horiz-adv-x="1024" d="M164 592v115h289v286h116v-286h291v-115h-291v-295h-116v295h-289z" />
<glyph unicode="," horiz-adv-x="425" d="M102 94q0 44 34 76.5t77 32.5q45 0 78 -32t33 -75q0 -22 -25 -80l-131 -284l-64 16l62 225q-64 47 -64 121z" />
<glyph unicode="-" horiz-adv-x="839" d="M164 461v112h512v-112h-512z" />
<glyph unicode="." horiz-adv-x="423" d="M102 94q0 44 33.5 76.5t77.5 32.5q45 0 77 -32t32 -77t-32 -77.5t-77 -32.5q-44 0 -77.5 33t-33.5 77z" />
<glyph unicode="/" horiz-adv-x="872" d="M82 0l575 1434h134l-574 -1434h-135z" />
<glyph unicode="0" horiz-adv-x="1134" d="M113 717q0 733 454 733q455 0 455 -733t-455 -733q-454 0 -454 733zM256 717q0 -138 15.5 -243.5t42.5 -173.5t67 -111t85 -60.5t101 -17.5t102 17.5t86 60.5t67.5 111t43 173.5t15.5 243.5t-15.5 243.5t-43 173.5t-67.5 111t-86 60.5t-102 17.5t-101 -17.5t-85 -60.5 t-67 -111t-42.5 -173.5t-15.5 -243.5z" />
<glyph unicode="1" horiz-adv-x="792" d="M51 1278l330 156h115v-1309h256v-125h-672v125h276v1163l-264 -117z" />
<glyph unicode="2" horiz-adv-x="927" d="M72 0v150q0 48 11 95t26 84.5t44.5 80.5t53 72.5t67 72t70.5 66.5t78 69q84 72 128 115t81 91t50 91t13 98q0 46 -15 88t-46 77.5t-86 57t-127 21.5q-62 0 -132.5 -21.5t-110.5 -43.5l-40 -21l-53 113q11 8 34 19.5t67 30.5t108 31.5t131 12.5q197 0 305.5 -96 t108.5 -267q0 -71 -19 -131t-64 -119.5t-98.5 -111.5t-142.5 -127q-95 -81 -153 -142.5t-87.5 -117.5t-39 -102t-9.5 -111h621v-125h-774z" />
<glyph unicode="3" horiz-adv-x="915" d="M20 57l56 115q16 -8 43 -19t100.5 -30t134.5 -19q146 0 231 79.5t85 219.5q0 52 -20.5 99.5t-59.5 87.5t-105 64t-149 24h-150v121h119q170 0 263.5 79t93.5 209q0 242 -295 242q-58 0 -122 -17.5t-99 -34.5l-35 -17l-54 114q21 12 48.5 24.5t106 32t159.5 19.5 q213 0 323.5 -92.5t110.5 -267.5q0 -128 -71 -220.5t-175 -130.5q122 -31 188 -127.5t66 -210.5q0 -86 -27.5 -160t-82 -132t-143 -91.5t-202.5 -33.5q-89 0 -173 18t-115.5 31.5t-49.5 23.5z" />
<glyph unicode="4" horiz-adv-x="1067" d="M41 373v88l627 973h153v-936h185v-125h-185v-373h-141v373h-639zM209 498h471v719z" />
<glyph unicode="5" horiz-adv-x="989" d="M82 47l47 119q15 -7 40.5 -17.5t97 -27.5t134.5 -17q164 0 258.5 92t94.5 255q0 152 -103 235.5t-305 83.5h-201v664h701v-125h-561v-414h90q249 0 385.5 -118.5t136.5 -325.5q0 -96 -29.5 -179t-88 -148t-155 -102.5t-221.5 -37.5q-187 0 -321 63z" />
<glyph unicode="6" horiz-adv-x="1052" d="M92 465q0 89 30.5 188t71.5 180.5t112 185.5t122 169.5t131 164.5q9 11 14 17l52 64h168q-32 -37 -81.5 -96.5t-153.5 -194.5t-148 -211q52 22 118 22q88 0 161 -26.5t122.5 -72.5t84 -108.5t50 -133t15.5 -148.5q0 -59 -13 -120.5t-45 -127t-80 -116.5t-125 -84 t-172 -33q-93 0 -168 27.5t-124 73.5t-81.5 109t-46.5 130t-14 141zM236 465q0 -166 72.5 -263.5t217.5 -97.5q136 0 213.5 102t77.5 259q0 169 -85.5 270t-250.5 101q-40 0 -77.5 -12t-54.5 -24l-17 -12q-36 -49 -66 -142.5t-30 -180.5z" />
<glyph unicode="7" horiz-adv-x="845" d="M31 1309v125h774v-84l-510 -1350h-148l494 1309h-610z" />
<glyph unicode="8" horiz-adv-x="1038" d="M92 346q0 74 22 135.5t65 109.5t94.5 85t121.5 72q-125 69 -191.5 153.5t-66.5 208.5q0 155 108.5 247.5t272.5 92.5q165 0 273 -92.5t108 -247.5q0 -221 -256 -354q149 -83 226 -176.5t77 -229.5q0 -162 -120.5 -264t-307.5 -102q-119 0 -215 42.5t-153.5 126 t-57.5 193.5zM233 348q0 -106 86.5 -176t198.5 -70q111 0 199 70t88 176q0 197 -291 338q-72 -35 -119.5 -66t-86.5 -71t-57 -89.5t-18 -111.5zM281 1110q0 -95 56.5 -156t186.5 -133q56 30 92 53.5t71 58t52 78.5t17 99q0 101 -65.5 161t-172.5 60q-105 0 -171 -60.5 t-66 -160.5z" />
<glyph unicode="9" horiz-adv-x="1052" d="M92 969q0 59 13 121t45 127.5t79.5 116.5t124.5 83.5t172 32.5q93 0 168.5 -27.5t124.5 -73t81.5 -108.5t46.5 -130.5t14 -141.5q0 -65 -17 -136.5t-40 -132t-66.5 -137t-77 -129t-92.5 -131t-92 -119.5t-95 -118l-53 -66h-168l51 63q51 63 109 135.5t124 161.5t99 144 q-55 -23 -121 -23q-88 0 -160.5 26.5t-122 72t-83 108t-49 133t-15.5 148.5zM236 969q0 -168 85 -267.5t250 -99.5q38 0 75 11.5t55 22.5t18 13q37 51 67.5 142.5t30.5 177.5q0 166 -73.5 263t-217.5 97q-137 0 -213.5 -101t-76.5 -259z" />
<glyph unicode=":" horiz-adv-x="423" d="M102 94q0 44 33.5 76.5t77.5 32.5q45 0 77 -32t32 -77t-32 -77.5t-77 -32.5q-44 0 -77.5 33t-33.5 77zM102 717q0 44 33 76t78 32t77 -31.5t32 -76.5t-32 -78t-77 -33q-44 0 -77.5 33.5t-33.5 77.5z" />
<glyph unicode=";" horiz-adv-x="425" d="M102 94q0 44 34 76.5t77 32.5q45 0 78 -32t33 -75q0 -22 -25 -80l-131 -284l-64 16l62 225q-64 47 -64 121zM102 717q0 44 34 76t77 32q46 0 78.5 -32t32.5 -76q0 -45 -33 -78t-78 -33q-43 0 -77 33.5t-34 77.5z" />
<glyph unicode="&#x3c;" horiz-adv-x="931" d="M164 612v70l604 389v-137l-440 -287l440 -287v-137z" />
<glyph unicode="=" horiz-adv-x="1024" d="M164 422v115h696v-115h-696zM164 752v116h696v-116h-696z" />
<glyph unicode="&#x3e;" horiz-adv-x="931" d="M164 223v137l440 287l-440 287v137l604 -389v-70z" />
<glyph unicode="?" horiz-adv-x="935" d="M102 1358q1 0 15 7.5t30 14.5t41 17.5t54 19t62 16.5t72 12.5t77 4.5q192 0 296.5 -90t104.5 -266q0 -57 -14 -104.5t-33 -78.5t-53.5 -61t-60 -46t-68.5 -40q-40 -23 -59.5 -35.5t-47.5 -32.5t-41 -36.5t-27 -40t-19 -51t-5 -62.5v-158h-139v168q0 42 8 79t18 64t31 53 t36.5 41.5t45.5 35.5t46 29t50 28q43 24 70 42t57.5 48t45 69t14.5 89q0 45 -13 84.5t-42 74.5t-82.5 55.5t-127.5 20.5q-62 0 -134 -21.5t-113 -43.5l-41 -21zM246 92q0 45 31.5 78t76.5 33q44 0 77.5 -33.5t33.5 -77.5t-33 -76t-78 -32t-76.5 31.5t-31.5 76.5z" />
<glyph unicode="@" horiz-adv-x="1822" d="M123 449q0 168 49 311.5t132.5 244.5t193.5 172.5t231 105.5t246 34q170 0 308.5 -52.5t229 -144t139 -215.5t48.5 -268q0 -116 -34 -218.5t-93.5 -176.5t-144.5 -117t-183 -43q-57 0 -110.5 25.5t-79.5 74.5q-36 -36 -110 -68t-142 -32q-55 0 -104 18t-91 55.5 t-67 104.5t-25 156q0 114 25 205t65.5 149t95.5 97t111 55t115 16q25 0 49.5 -5t46 -14.5t36 -17t31.5 -18t19 -11.5l20 56h109l-76 -502q-10 -65 -10 -115q0 -125 111 -125q90 0 161.5 61t110.5 162t39 220q0 117 -38.5 219t-111 181t-187.5 125t-257 46q-143 0 -275 -51.5 t-234.5 -145t-164 -238.5t-61.5 -319q0 -277 167 -443.5t439 -166.5q198 0 405 96l33 -94q-211 -108 -446 -108q-213 0 -376 86.5t-254 250t-91 382.5zM645 410q0 -95 42 -153t130 -58q62 0 120 23.5t91 56.5v26q0 63 12 141l47 318q-76 61 -161 61q-52 0 -99.5 -22.5 t-89.5 -69t-67 -130t-25 -193.5z" />
<glyph unicode="A" horiz-adv-x="1079" d="M20 0l416 1434h207l416 -1434h-146l-108 373h-531l-108 -373h-146zM311 502h459l-229 790z" />
<glyph unicode="B" horiz-adv-x="1077" d="M133 0v1434h416q222 0 319 -80t97 -287q0 -121 -44 -201t-116 -116q98 -38 149.5 -119.5t51.5 -229.5q0 -113 -29 -191t-88.5 -124t-142 -66t-199.5 -20h-414zM274 125h248q99 0 161 11.5t105 42.5t60.5 84t17.5 138q0 160 -76.5 218.5t-263.5 58.5h-252v-553zM274 803 h244q80 0 132.5 10.5t93.5 39t60 81t19 133.5q0 145 -62.5 193.5t-236.5 48.5h-250v-506z" />
<glyph unicode="C" horiz-adv-x="1005" d="M82 719q0 386 127 558.5t397 172.5q37 0 73.5 -4.5t66.5 -12t55.5 -15.5t47 -18t35.5 -17t25.5 -14t12.5 -7l-62 -115q-127 76 -254 76q-73 0 -129 -16.5t-104.5 -58t-80 -109t-49.5 -173t-18 -247.5t18 -248t49.5 -174t80 -110t104.5 -59t129 -17q69 0 138 19.5 t103 38.5l34 19l63 -112q-5 -4 -15 -10t-44 -22t-70.5 -28t-93.5 -22t-115 -10q-270 0 -397 174.5t-127 560.5z" />
<glyph unicode="D" horiz-adv-x="1148" d="M133 0v1434h408q183 0 297 -70t171.5 -228t57.5 -417q0 -385 -126 -552t-400 -167h-408zM274 127h269q73 0 128.5 15t105 55t80.5 105.5t49 170t18 246.5t-18 246.5t-49 169.5t-80.5 104t-104.5 53.5t-129 14.5h-269v-1180z" />
<glyph unicode="E" horiz-adv-x="958" d="M133 0v1434h705v-127h-564v-498h564v-129h-564v-553h582v-127h-723z" />
<glyph unicode="F" horiz-adv-x="903" d="M133 0v1434h688v-127h-547v-498h506v-129h-506v-680h-141z" />
<glyph unicode="G" horiz-adv-x="1105" d="M82 719q0 387 126 559t400 172q175 0 322 -92l-64 -113q-130 78 -258 78q-92 0 -159 -27.5t-119 -94t-78.5 -187t-26.5 -295.5q0 -142 18 -248t49.5 -174t80.5 -110t105.5 -59t129.5 -17q127 0 234 71v496h141v-559q-22 -19 -52.5 -39t-78.5 -43.5t-112 -38t-132 -14.5 q-272 0 -399 174t-127 561z" />
<glyph unicode="H" horiz-adv-x="1157" d="M133 0v1434h141v-625h609v625h141v-1434h-141v680h-609v-680h-141z" />
<glyph unicode="I" horiz-adv-x="407" d="M133 0v1434h141v-1434h-141z" />
<glyph unicode="J" horiz-adv-x="704" d="M20 33l41 117q97 -39 181 -39q198 0 198 272v1051h142v-1067q0 -60 -10.5 -113t-35 -103.5t-62 -86.5t-96 -58t-132.5 -22q-55 0 -111.5 12t-85.5 24z" />
<glyph unicode="K" horiz-adv-x="1019" d="M133 0v1434h141v-707l545 707h160l-485 -631l526 -803h-160l-452 688l-134 -172v-516h-141z" />
<glyph unicode="L" horiz-adv-x="858" d="M133 0v1434h141v-1307h543v-127h-684z" />
<glyph unicode="M" horiz-adv-x="1288" d="M133 0v1434h131l381 -711l381 711h129v-1434h-139v1128l-350 -649h-43l-349 649v-1128h-141z" />
<glyph unicode="N" horiz-adv-x="1157" d="M133 0v1434h133l617 -1133v1133h141v-1434h-133l-617 1130v-1130h-141z" />
<glyph unicode="O" d="M82 717q0 385 124 559t394 174q271 0 395.5 -174t124.5 -559t-124.5 -559t-395.5 -174q-270 0 -394 174t-124 559zM225 717q0 -141 16.5 -245.5t47 -173t78 -110.5t103.5 -59.5t130 -17.5q93 0 159.5 28.5t117 96t75.5 187t25 294.5t-25 294.5t-75.5 187t-117 96 t-159.5 28.5q-74 0 -130 -17.5t-103.5 -59.5t-78 -110.5t-47 -173t-16.5 -245.5z" />
<glyph unicode="P" horiz-adv-x="1062" d="M133 0v1434h387q255 0 363 -100t108 -345q0 -242 -109.5 -341t-361.5 -99h-246v-549h-141zM274 674h242q96 0 155 12.5t101.5 47.5t60 96t17.5 159q0 97 -15.5 157t-56 97t-102 50.5t-160.5 13.5h-242v-633z" />
<glyph unicode="Q" d="M82 715q0 385 124 560t394 175q271 0 395.5 -174.5t124.5 -560.5q0 -356 -107 -530.5t-335 -196.5q7 -112 56.5 -171t135.5 -59q36 0 81.5 10t72.5 20l27 9l39 -116q-11 -6 -31.5 -14t-79 -22t-113.5 -14q-70 0 -127 20.5t-94 54t-63 80.5t-38.5 96.5t-15.5 105.5 q-232 22 -339 194.5t-107 532.5zM225 715q0 -175 24.5 -294.5t75 -186.5t116.5 -95t159 -28t159.5 28t117 95t75.5 186.5t25 294.5q0 176 -25 296t-75.5 187.5t-117 96t-159.5 28.5t-159 -28.5t-116.5 -96t-75 -187.5t-24.5 -296z" />
<glyph unicode="R" horiz-adv-x="1071" d="M133 0v1434h387q241 0 355 -92.5t114 -315.5q0 -86 -17 -152t-45.5 -109.5t-72 -74.5t-90 -47t-105.5 -25l322 -618h-152l-317 610h-238v-610h-141zM274 737h236q72 0 120.5 6t93 23.5t70 49t40 83.5t14.5 127q0 159 -75.5 220t-252.5 61h-246v-570z" />
<glyph unicode="S" horiz-adv-x="931" d="M61 94l58 117q170 -102 313 -102q148 0 221.5 75t73.5 185q0 37 -17 72.5t-40 62.5t-67.5 60.5t-76.5 54t-90 55.5q-69 41 -113.5 70.5t-96 72.5t-81 82t-49.5 90.5t-20 108.5q0 107 54 188.5t142.5 122.5t196.5 41q69 0 136 -12.5t113 -31t70.5 -31t34.5 -19.5l-55 -117 q-16 10 -43.5 24t-104 38t-143.5 24q-116 0 -186 -59.5t-70 -165.5q0 -37 17 -73t41 -64t68 -62t77 -56t90 -57q65 -40 112.5 -73t96 -75t79 -82t49.5 -89t19 -100q0 -169 -114.5 -277t-323.5 -108q-190 0 -371 110z" />
<glyph unicode="T" horiz-adv-x="968" d="M41 1307v127h887v-127h-373v-1307h-141v1307h-373z" />
<glyph unicode="U" horiz-adv-x="1140" d="M123 516v918h139v-861q0 -98 5 -165.5t18.5 -121.5t34.5 -85.5t57 -53t81 -29t111 -7.5t112 7.5t82 28.5t57 53t35 86t19 121.5t5 165.5v861h139v-918q0 -156 -25.5 -258.5t-82.5 -163.5t-138 -85.5t-203 -24.5q-121 0 -201.5 24.5t-137.5 85.5t-82 163.5t-25 258.5z" />
<glyph unicode="V" horiz-adv-x="1077" d="M20 1434h146l373 -1293l374 1293h144l-414 -1434h-209z" />
<glyph unicode="W" horiz-adv-x="1683" d="M31 1434h143l297 -1258l305 1258h131l305 -1258l295 1258h146l-346 -1434h-177l-288 1174l-291 -1174h-174z" />
<glyph unicode="X" horiz-adv-x="1042" d="M31 0l415 743l-387 691h152l313 -562l314 562h149l-389 -695l414 -739h-150l-340 608l-340 -608h-151z" />
<glyph unicode="Y" horiz-adv-x="1009" d="M20 1434h152l332 -682l334 682h151l-416 -832v-602h-141v602z" />
<glyph unicode="Z" horiz-adv-x="997" d="M41 0v127l752 1180h-707v127h870v-127l-751 -1180h735v-127h-899z" />
<glyph unicode="[" horiz-adv-x="634" d="M164 -143v1679h399v-123h-258v-1433h258v-123h-399z" />
<glyph unicode="\" horiz-adv-x="872" d="M82 1434h133l576 -1434h-136z" />
<glyph unicode="]" horiz-adv-x="634" d="M72 -20h258v1433h-258v123h399v-1679h-399v123z" />
<glyph unicode="^" horiz-adv-x="995" d="M164 766l260 412h147l260 -412l-100 -57l-235 358l-232 -358z" />
<glyph unicode="_" horiz-adv-x="1044" d="M102 -82h840v-121h-840v121z" />
<glyph unicode="`" horiz-adv-x="479" d="M102 1526h179l96 -348h-96z" />
<glyph unicode="a" horiz-adv-x="905" d="M82 281q0 63 24 119t72.5 102t132.5 73t195 27h141v141q0 88 -43.5 133.5t-138.5 45.5q-65 0 -132.5 -16t-102.5 -32l-35 -16l-35 105q14 8 40 20t106.5 32.5t160.5 20.5q173 0 244 -77.5t71 -233.5v-725h-104l-19 76q-62 -42 -127 -67t-155 -25q-140 0 -217.5 85 t-77.5 212zM219 285q0 -83 51.5 -136t130.5 -53q76 0 143.5 27.5t102.5 60.5v310h-141q-135 0 -211 -59.5t-76 -149.5z" />
<glyph unicode="b" horiz-adv-x="983" d="M133 29v1405h135v-428q76 30 201 30q70 0 131.5 -16t117.5 -54.5t96 -97t63.5 -149.5t23.5 -207q0 -528 -461 -528q-74 0 -150.5 11t-116.5 23zM268 123q82 -25 172 -25q326 0 326 414q0 194 -73.5 302t-231.5 108q-49 0 -97.5 -8t-71.5 -16l-24 -9v-766z" />
<glyph unicode="c" horiz-adv-x="778" d="M82 510q0 147 29 251t85 163t127.5 85.5t165.5 26.5q112 0 213 -53l-49 -104q-1 0 -9.5 4t-18 8.5t-25.5 9.5t-32 9t-37 7t-42 3q-64 0 -112 -19.5t-78.5 -53t-49 -86.5t-25.5 -113t-7 -138t7 -137.5t25 -112.5t48.5 -87t78.5 -53.5t113 -19.5q44 0 87.5 10.5t65.5 20.5 l22 10l43 -108q-98 -49 -218 -49q-95 0 -166.5 26.5t-127 86t-84.5 163.5t-29 250z" />
<glyph unicode="d" horiz-adv-x="985" d="M82 510q0 116 23 207t63 150t96.5 97.5t120 55t137.5 16.5q50 0 99 -7.5t73 -14.5l23 -8v428h135v-1434h-109l-20 90q-11 -11 -27.5 -23.5t-50 -34t-81.5 -35t-99 -13.5q-83 0 -150 27.5t-120.5 86.5t-83 163.5t-29.5 248.5zM217 510q0 -412 268 -412q79 0 138.5 38.5 t93.5 90.5v662q-89 33 -191 33q-309 0 -309 -412z" />
<glyph unicode="e" horiz-adv-x="915" d="M82 512q0 524 387 524q86 0 149 -24.5t104.5 -69t66.5 -114.5t35 -153.5t10 -193.5h-615q2 -90 15.5 -156.5t44 -119t84 -79t129.5 -26.5q70 0 132 16.5t88 33.5l27 16l52 -103q-126 -79 -299 -79q-94 0 -166 27t-128.5 86t-86 163.5t-29.5 251.5zM219 590h479 q-6 177 -59 254.5t-170 77.5q-127 0 -183.5 -84.5t-66.5 -247.5z" />
<glyph unicode="f" horiz-adv-x="591" d="M51 907v117h123v63q0 57 10 108.5t34.5 98.5t61 81t92.5 54.5t126 20.5q52 0 114 -16l-26 -113q-41 12 -88 12q-96 0 -142.5 -67t-46.5 -207v-35h221v-117h-221v-907h-135v907h-123z" />
<glyph unicode="g" horiz-adv-x="985" d="M82 510q0 526 489 526q105 0 281 -32v-1027q0 -74 -18 -136.5t-56 -114.5t-105 -81.5t-157 -29.5q-68 0 -135 10.5t-100 20.5l-33 10l28 111q115 -37 238 -37q103 0 153 68t50 210v68q-95 -92 -236 -92q-198 0 -298.5 132.5t-100.5 393.5zM217 510q0 -97 13.5 -169 t45 -128.5t86.5 -85.5t134 -29q74 0 133.5 33t87.5 82v692q-84 17 -166 17q-334 0 -334 -412z" />
<glyph unicode="h" horiz-adv-x="1005" d="M133 0v1434h135v-514q161 116 316 116q164 0 231.5 -84.5t67.5 -249.5v-702h-135v707q0 118 -48.5 167.5t-146.5 49.5q-87 0 -164.5 -41t-120.5 -82v-801h-135z" />
<glyph unicode="i" horiz-adv-x="434" d="M123 1311q0 38 28 66t66 28t66 -28t28 -66t-28 -66t-66 -28t-66 28t-28 66zM150 0v1024h135v-1024h-135z" />
<glyph unicode="j" horiz-adv-x="475" d="M-154 -358l35 110q77 -20 123 -20q54 0 92 20.5t57.5 59.5t28 85.5t8.5 108.5v1018h136v-1047q0 -72 -17 -134t-53 -114.5t-99.5 -83t-148.5 -30.5q-71 0 -162 27zM164 1311q0 38 28 66t66 28t66 -28t28 -66t-28 -66t-66 -28t-66 28t-28 66z" />
<glyph unicode="k" horiz-adv-x="858" d="M133 0v1434h135v-922l375 512h150l-334 -453l399 -571h-147l-328 469l-115 -156v-313h-135z" />
<glyph unicode="l" horiz-adv-x="528" d="M123 354v1080h135v-1055q0 -149 43 -214t135 -65q36 0 66 6l26 -110q-43 -12 -94 -12q-151 0 -231 92.5t-80 277.5z" />
<glyph unicode="m" horiz-adv-x="1576" d="M133 0v1024h103l28 -106q153 118 303 118q203 0 264 -143q69 63 155 103t175 40q163 0 228 -84t65 -250v-702h-135v707q0 119 -46 168t-143 49q-126 0 -276 -127q8 -31 8 -101v-696h-135v717q0 108 -45 157.5t-141 49.5q-45 0 -91.5 -14.5t-83.5 -37t-59.5 -39.5 t-38.5 -32v-801h-135z" />
<glyph unicode="n" horiz-adv-x="1005" d="M133 0v1024h103l28 -106q164 118 322 118q162 0 229.5 -84.5t67.5 -249.5v-702h-135v707q0 119 -47.5 168t-145.5 49q-87 0 -165.5 -41.5t-121.5 -81.5v-801h-135z" />
<glyph unicode="o" horiz-adv-x="976" d="M82 512q0 147 29 250.5t85 162.5t127.5 85t165.5 26q93 0 164.5 -26t127 -85t85 -163t29.5 -250q0 -147 -29.5 -251.5t-85 -164t-127 -86t-164.5 -26.5q-94 0 -165.5 26.5t-127.5 86.5t-85 164t-29 251zM217 512q0 -78 7 -138.5t25.5 -113.5t49 -87t78.5 -53.5t112 -19.5 t112 19.5t78 53.5t48.5 87t25.5 113t7 139q0 99 -12 169.5t-41 126.5t-83.5 84t-134.5 28t-134.5 -28t-84 -84t-41.5 -126.5t-12 -169.5z" />
<glyph unicode="p" horiz-adv-x="983" d="M133 -369v1393h103l26 -88q10 10 26.5 22.5t48.5 32t78 32.5t95 13q67 0 123.5 -16.5t107 -55.5t85 -98.5t55 -150.5t20.5 -207q0 -121 -26 -214.5t-68.5 -151t-102.5 -94t-122 -50.5t-133 -14q-36 0 -81.5 5t-72.5 10l-27 5v-373h-135zM268 123q79 -25 185 -25 q313 0 313 410q0 98 -13.5 170.5t-44.5 129t-86.5 85.5t-134.5 29q-75 0 -134 -40t-85 -85v-674z" />
<glyph unicode="q" horiz-adv-x="985" d="M82 510q0 121 25.5 213.5t69 151t107 95.5t133 51.5t154.5 14.5q56 0 126 -8t113 -16l42 -8v-1373h-135v430q-11 -9 -30.5 -21.5t-81.5 -34t-126 -21.5q-69 0 -127 16.5t-109 55t-86 98t-55 150t-20 206.5zM217 510q0 -97 13.5 -169t45 -128.5t86.5 -85.5t134 -29 q61 0 116 21t80 42l25 21v723q-82 17 -162 17q-163 0 -250.5 -97t-87.5 -315z" />
<glyph unicode="r" horiz-adv-x="602" d="M133 0v1024h103l28 -106q114 118 256 118q40 0 72 -8l-27 -119q-54 6 -65 6q-48 0 -90.5 -13.5t-71 -35.5t-44 -38t-26.5 -31v-797h-135z" />
<glyph unicode="s" horiz-adv-x="745" d="M61 76l60 98q4 -3 11.5 -8t32 -18.5t49.5 -23.5t61.5 -18t70.5 -8q99 0 146 50.5t47 121.5q0 43 -46.5 90.5t-150.5 108.5q-138 79 -199 151t-61 152q0 123 88 193.5t207 70.5q71 0 138.5 -19t99.5 -37l32 -19l-51 -103q-13 7 -35 17.5t-79 27.5t-101 17 q-73 0 -118.5 -38t-45.5 -108q0 -55 49 -99.5t152 -105.5q132 -76 194 -145.5t62 -153.5q0 -123 -88 -204.5t-236 -81.5q-75 0 -148 24t-103.5 42.5t-37.5 25.5z" />
<glyph unicode="t" horiz-adv-x="636" d="M51 907v117h123v266h135v-266h240v-117h-240v-528q0 -149 42.5 -214t135.5 -65q31 0 91 15l28 -111q-4 -1 -20.5 -5t-30.5 -7t-34 -5.5t-36 -2.5q-152 0 -231.5 92.5t-79.5 277.5v553h-123z" />
<glyph unicode="u" horiz-adv-x="1009" d="M123 317v707h135v-711q0 -118 49 -167.5t148 -49.5q85 0 164.5 41.5t121.5 81.5v805h136v-1024h-109l-23 102q-67 -50 -153 -84t-168 -34q-164 0 -232.5 83.5t-68.5 249.5z" />
<glyph unicode="v" horiz-adv-x="858" d="M20 1024h140l268 -891l270 891h140l-320 -1024h-180z" />
<glyph unicode="w" horiz-adv-x="1413" d="M20 1024h140l223 -895l254 895h139l254 -895l223 895h140l-273 -1024h-180l-233 815l-234 -815h-180z" />
<glyph unicode="x" horiz-adv-x="843" d="M10 0l336 530l-311 494h149l238 -381l240 381h149l-315 -494l338 -530h-150l-262 414l-262 -414h-150z" />
<glyph unicode="y" horiz-adv-x="858" d="M20 1024h140l268 -891l270 891h140l-369 -1180q-70 -229 -289 -229q-56 0 -127 23l33 106q40 -14 82 -14q35 0 62.5 10t45.5 24.5t34 40.5t25 48t21 57l31 90h-49z" />
<glyph unicode="z" horiz-adv-x="813" d="M72 0v119l522 784h-498v121h645v-121l-518 -784h504v-119h-655z" />
<glyph unicode="{" horiz-adv-x="634" d="M82 637v119q46 0 71.5 5t49.5 25t33.5 63t9.5 114v249q0 181 69.5 252.5t229.5 71.5h28v-113h-20q-38 0 -60.5 -3t-44.5 -14t-33 -30t-20.5 -54t-12.5 -83.5t-3 -120.5v-168q0 -191 -82 -254q82 -63 82 -254v-168q0 -72 3 -120.5t12.5 -83.5t20.5 -54t33 -30t44.5 -14 t60.5 -3h20v-112h-28q-160 0 -229.5 71t-69.5 252v250q0 71 -9.5 114t-33.5 63t-49.5 25t-71.5 5z" />
<glyph unicode="|" horiz-adv-x="516" d="M195 -369v1803h127v-1803h-127z" />
<glyph unicode="}" horiz-adv-x="634" d="M61 -31h21q38 0 60.5 3t44.5 14t33 30t20.5 54t12.5 83.5t3 120.5v168q0 191 82 254q-82 63 -82 254v168q0 72 -3 120.5t-12.5 83.5t-20.5 54t-33 30t-44.5 14t-60.5 3h-21v113h29q160 0 229.5 -71.5t69.5 -252.5v-249q0 -71 9.5 -114t33.5 -63t49.5 -25t71.5 -5v-119 q-46 0 -71.5 -5t-49.5 -25t-33.5 -63t-9.5 -114v-250q0 -181 -69.5 -252t-229.5 -71h-29v112z" />
<glyph unicode="~" horiz-adv-x="1148" d="M164 842q5 22 13.5 44.5t26 50.5t40.5 49t59.5 35.5t79.5 14.5q60 0 133.5 -31t140 -61.5t109.5 -30.5q53 0 80 37.5t35 85.5l104 -35q-6 -23 -14.5 -45t-26 -50.5t-40.5 -49t-59.5 -35t-80.5 -14.5q-47 0 -104 19t-101 42.5t-94 42.5t-84 19q-88 0 -115 -121z" />
<glyph unicode="&#xa1;" horiz-adv-x="526" d="M154 973q0 44 33 76t77 32q46 0 77.5 -31.5t31.5 -76.5t-32 -78t-77 -33q-44 0 -77 33.5t-33 77.5zM195 244l26 473h86l27 -473v-613h-139v613z" />
<glyph unicode="&#xa2;" horiz-adv-x="827" d="M102 512q0 457 304 516v264h126v-254q109 -9 189 -53l-49 -104q-1 0 -9.5 4t-18 8.5t-25 9.5t-31.5 9t-37 7t-41 3q-65 0 -113 -19.5t-78.5 -53.5t-48.5 -87t-25 -112.5t-7 -137.5q0 -100 11.5 -170.5t40.5 -127.5t84 -85.5t136 -28.5q44 0 87 10.5t64 20.5l21 10 l43 -108q-85 -43 -193 -49v-254h-126v264q-304 59 -304 518z" />
<glyph unicode="&#xa3;" horiz-adv-x="1101" d="M143 0v127h312q0 190 -113 448h-199v121h142q-43 92 -61 134.5t-37 117t-19 144.5q0 166 112.5 262t303.5 96q86 0 172.5 -23.5t129.5 -46.5l44 -24l-53 -115q-18 10 -47.5 24.5t-107 39t-138.5 24.5q-138 0 -205.5 -68.5t-67.5 -170.5q0 -39 6 -76.5t22 -83.5t24.5 -68 t34.5 -79.5t30 -67.5l8 -19h418v-121h-369q111 -259 111 -448h403v-127h-856z" />
<glyph unicode="&#xa4;" horiz-adv-x="1273" d="M164 287l184 188q-61 86 -61 201q0 107 61 196l-184 185l90 86l182 -185q94 64 203 64q108 0 197 -61l182 184l92 -86l-184 -187q63 -89 63 -196q0 -116 -65 -203l186 -184l-92 -86l-182 182q-89 -61 -197 -61q-116 0 -201 63l-184 -186zM422 676q0 -96 63.5 -164 t153.5 -68q88 0 150.5 68t62.5 164q0 91 -63 158t-150 67q-91 0 -154 -67.5t-63 -157.5z" />
<glyph unicode="&#xa5;" horiz-adv-x="1173" d="M102 1434h152l332 -678l334 678h151l-362 -721h276v-115h-330v-154h330v-114h-330v-330h-139v330h-330v114h330v154h-330v115h277z" />
<glyph unicode="&#xa6;" horiz-adv-x="516" d="M195 -369v738h127v-738h-127zM195 692v742h127v-742h-127z" />
<glyph unicode="&#xa7;" horiz-adv-x="929" d="M164 721q0 51 16.5 94t44 72.5t54.5 48t55 31.5q-78 58 -111 110.5t-33 124.5q0 97 79 172.5t223 75.5q62 0 120 -17t86 -34l27 -17l-49 -102q-11 6 -29 15t-67.5 24.5t-90.5 15.5q-72 0 -116.5 -35.5t-44.5 -95.5q0 -31 12 -57t40.5 -50.5t54 -41.5t73.5 -45 q132 -77 195 -144.5t63 -148.5q0 -95 -49 -156t-121 -92q77 -55 109 -110t32 -128q0 -102 -82.5 -174.5t-210.5 -72.5q-63 0 -122.5 16.5t-87.5 33.5l-29 17l49 103q10 -6 27 -15.5t66 -25t93 -15.5q72 0 115 35.5t43 97.5q0 58 -43 101.5t-133 95.5q-133 76 -195.5 142.5 t-62.5 150.5zM301 729q0 -46 39.5 -88.5t126.5 -93.5q69 3 115.5 48t46.5 118q0 44 -39 84.5t-127 91.5q-82 -3 -122 -53t-40 -107z" />
<glyph unicode="&#xa8;" horiz-adv-x="696" d="M102 1311q0 38 28.5 66t66.5 28t66 -28t28 -66t-28 -66t-66 -28t-66.5 28t-28.5 66zM406 1311q0 38 28 66t66 28t66 -28t28 -66t-28 -66t-66 -28t-66 28t-28 66z" />
<glyph unicode="&#xa9;" horiz-adv-x="1748" d="M143 717q0 148 58 284t156 234t233.5 156.5t283.5 58.5t283.5 -58.5t234 -156.5t156.5 -234t58 -284t-58 -284t-156.5 -234t-234 -156.5t-283.5 -58.5t-283.5 58.5t-233.5 156.5t-156 234t-58 284zM246 717q0 -169 84.5 -317t229.5 -236t314 -88q126 0 243 52t201 139 t134.5 205t50.5 245t-50.5 245t-134.5 205t-201 139t-243 52q-169 0 -314 -88t-229.5 -236t-84.5 -317zM547 715q0 248 85 355.5t261 107.5q28 0 55.5 -4t47.5 -9.5t39.5 -13.5t30 -13.5t21.5 -11.5l11 -6l-47 -92q-1 0 -11.5 5.5t-23.5 11.5t-31.5 12t-42.5 10t-49 4 q-58 0 -97 -14t-69.5 -52t-44.5 -109.5t-14 -180.5t14 -180.5t44.5 -109.5t69.5 -52.5t97 -14.5q44 0 86.5 11t62.5 21l21 11l47 -90q-9 -7 -27 -16.5t-74.5 -26t-115.5 -16.5q-176 0 -261 107.5t-85 355.5z" />
<glyph unicode="&#xaa;" horiz-adv-x="716" d="M102 926q0 93 78 159t232 66h94v82q0 64 -30.5 94.5t-98.5 30.5q-45 0 -92 -10t-71 -20l-24 -11l-24 80q10 6 28 15t73.5 23.5t111.5 14.5q235 0 235 -217v-510h-88l-14 53q-78 -63 -195 -63q-101 0 -158 61t-57 152zM207 928q0 -59 34 -93t95 -34q55 0 100 17.5t70 41.5 v205h-94q-98 0 -151.5 -37t-53.5 -100z" />
<glyph unicode="&#xab;" horiz-adv-x="944" d="M143 496v39l256 380l93 -49l-218 -350l218 -350l-93 -51zM496 496v39l256 380l90 -49l-217 -350l217 -350l-90 -51z" />
<glyph unicode="&#xac;" horiz-adv-x="1146" d="M164 752v116h819v-336h-135v220h-684z" />
<glyph unicode="&#xad;" horiz-adv-x="839" d="M164 461v112h512v-112h-512z" />
<glyph unicode="&#xae;" horiz-adv-x="1314" d="M143 936q0 139 69 257.5t187.5 187.5t257.5 69t257.5 -69t187.5 -187.5t69 -257.5t-69 -257.5t-187.5 -187.5t-257.5 -69t-257.5 69t-187.5 187.5t-69 257.5zM238 936q0 -174 123.5 -302t295.5 -128q171 0 295.5 128t124.5 302t-124.5 302t-295.5 128q-172 0 -295.5 -128 t-123.5 -302zM475 629v618h195q110 0 163.5 -42.5t53.5 -137.5q0 -86 -43 -135.5t-105 -59.5l140 -243h-105l-133 237h-70v-237h-96zM571 954h97q60 0 88 25.5t28 85.5q0 52 -27 73t-89 21h-97v-205z" />
<glyph unicode="&#xaf;" horiz-adv-x="716" d="M102 1257v103h512v-103h-512z" />
<glyph unicode="&#xb0;" horiz-adv-x="581" d="M82 1245q0 86 61 145.5t148 59.5t148 -59.5t61 -145.5t-61.5 -147.5t-147.5 -61.5t-147.5 61.5t-61.5 147.5zM180 1245q0 -51 32.5 -85t78.5 -34q45 0 77.5 34.5t32.5 84.5q0 47 -33.5 81t-76.5 34q-44 0 -77.5 -34.5t-33.5 -80.5z" />
<glyph unicode="&#xb1;" horiz-adv-x="1026" d="M164 195v114h698v-114h-698zM164 793v114h289v291h116v-291h291v-114h-291v-291h-116v291h-289z" />
<glyph unicode="&#xb2;" horiz-adv-x="622" d="M82 737v101q0 45 14.5 85.5t45.5 79.5t56.5 65t71.5 67q91 80 124.5 123.5t33.5 99.5q0 49 -34.5 84t-104.5 35q-34 0 -73 -11.5t-61 -23.5l-22 -12l-39 88q99 55 207 55q115 0 177.5 -55t62.5 -156q0 -77 -43 -138t-142 -149q-89 -77 -122 -128.5t-33 -110.5h340v-99 h-459z" />
<glyph unicode="&#xb3;" horiz-adv-x="620" d="M61 768l43 86q78 -39 152 -39q75 0 118.5 42.5t43.5 113.5q0 59 -42 100t-122 41h-96v96h82q83 0 128.5 40t45.5 106q0 59 -36 92t-108 33q-33 0 -69.5 -10.5t-56.5 -21.5l-21 -11l-39 88q82 49 192 49q123 0 186.5 -55t63.5 -162q0 -65 -35 -117.5t-88 -75.5 q56 -19 90.5 -73t34.5 -121q0 -108 -69 -178t-199 -70q-65 0 -119.5 16t-79.5 31z" />
<glyph unicode="&#xb4;" horiz-adv-x="479" d="M102 1178l99 348h176l-178 -348h-97z" />
<glyph unicode="&#xb5;" horiz-adv-x="1081" d="M164 -369v1393h135v-721q0 -95 56 -151t149 -56q46 0 92.5 14t83.5 36t61 39.5t41 33.5v805h136v-1024h-109l-23 102q-47 -37 -79 -58t-91.5 -40.5t-126.5 -19.5q-59 0 -112 25t-78 59v-437h-135z" />
<glyph unicode="&#xb6;" horiz-adv-x="1286" d="M164 1008q0 190 123 308t350 118h485v-1803h-137v1661h-180v-1661h-139v951q-248 4 -375 113t-127 313z" />
<glyph unicode="&#xb7;" horiz-adv-x="546" d="M164 518q0 44 33 76.5t77 32.5q45 0 77 -32t32 -77t-32 -77.5t-77 -32.5q-44 0 -77 33t-33 77z" />
<glyph unicode="&#xb8;" horiz-adv-x="595" d="M102 -352l27 71q73 -28 141 -28q117 0 117 78q0 32 -22 48.5t-60 16.5q-22 0 -50 -3.5t-45 -6.5l-17 -4l-15 41l86 159h76l-49 -116q5 0 20 1t23 1q68 0 114 -34t46 -103q0 -66 -57 -110t-167 -44q-40 0 -82 8.5t-64 16.5z" />
<glyph unicode="&#xb9;" horiz-adv-x="528" d="M61 1470l185 86h94v-720h147v-99h-405v99h151v610l-141 -57z" />
<glyph unicode="&#xba;" horiz-adv-x="788" d="M102 1081q0 199 75 284t216 85q140 0 216.5 -85t76.5 -284q0 -200 -76 -284t-217 -84q-69 0 -120.5 18.5t-90.5 60t-59.5 114t-20.5 175.5zM215 1081q0 -53 3.5 -91.5t14.5 -75.5t30.5 -60t52 -37t77.5 -14t77 14t52 37t31.5 59.5t15.5 76t4 91.5t-4 91t-15.5 76 t-31 60.5t-52.5 37.5t-77 14q-45 0 -77.5 -14t-51.5 -37.5t-30.5 -61t-15 -75.5t-3.5 -91z" />
<glyph unicode="&#xbb;" horiz-adv-x="944" d="M143 166l217 350l-217 350l90 49l256 -380v-39l-256 -381zM494 166l217 350l-217 350l92 49l256 -380v-39l-256 -381z" />
<glyph unicode="&#xbc;" horiz-adv-x="1701" d="M164 1470l184 86h94v-720h148v-99h-406v99h152v610l-141 -57zM401 0l781 1434h133l-778 -1434h-136zM971 4v72l329 538h136v-514h102v-96h-102v-209h-109v209h-356zM1096 100h231v379z" />
<glyph unicode="&#xbd;" horiz-adv-x="1728" d="M164 1470l184 86h94v-720h148v-99h-406v99h152v610l-141 -57zM401 0l781 1434h133l-778 -1434h-136zM1106 -104q0 45 14.5 85.5t45.5 79.5t56.5 65t71.5 67q91 80 124.5 123.5t33.5 99.5q0 49 -34.5 84t-104.5 35q-34 0 -73 -12t-61 -24l-22 -12l-39 88q101 56 207 56 q115 0 177.5 -55t62.5 -156q0 -77 -43 -138t-142 -149q-89 -77 -122 -128.5t-33 -110.5h340v-99h-459v101z" />
<glyph unicode="&#xbe;" horiz-adv-x="1703" d="M164 768l43 86q77 -39 151 -39q75 0 118.5 42.5t43.5 113.5q0 59 -42 100t-122 41h-96v96h82q83 0 128.5 40t45.5 106q0 59 -35.5 92t-107.5 33q-33 0 -70 -10.5t-57 -21.5l-21 -11l-39 88q82 49 193 49q123 0 186.5 -55t63.5 -162q0 -65 -35 -117.5t-88 -75.5 q56 -19 90.5 -73t34.5 -121q0 -107 -69.5 -177.5t-199.5 -70.5q-65 0 -119 16t-79 31zM403 0l781 1434h133l-778 -1434h-136zM973 4v72l330 538h135v-514h102v-96h-102v-209h-109v209h-356zM1098 100h231v379z" />
<glyph unicode="&#xbf;" horiz-adv-x="894" d="M82 -29q0 57 14 104.5t33 78.5t53.5 61t60 46t68.5 40q40 23 59.5 35.5t47.5 32.5t41 36.5t27 40t19 51t5 62.5v158h139v-168q0 -42 -8 -79t-18 -64t-31 -53t-36.5 -41.5t-45.5 -35.5t-46 -29t-50 -28q-43 -24 -70 -42t-57.5 -48t-45 -69t-14.5 -89q0 -45 13 -84.5 t42 -74.5t82.5 -55.5t127.5 -20.5q62 0 134 21.5t113 42.5l41 22l54 -115q-1 0 -15 -7.5t-30 -14.5t-41 -17.5t-54 -19t-62 -16.5t-72 -12.5t-77 -4.5q-192 0 -296.5 90t-104.5 266zM471 973q0 44 33 76t78 32t76.5 -31.5t31.5 -76.5t-31.5 -78t-76.5 -33q-44 0 -77.5 33.5 t-33.5 77.5z" />
<glyph unicode="&#xc0;" horiz-adv-x="1079" d="M20 0l416 1434h207l416 -1434h-146l-108 373h-531l-108 -373h-146zM260 1946h174l154 -369h-96zM311 502h459l-229 790z" />
<glyph unicode="&#xc1;" horiz-adv-x="1079" d="M20 0l416 1434h207l416 -1434h-146l-108 373h-531l-108 -373h-146zM311 502h459l-229 790zM481 1577l154 369h174l-231 -369h-97z" />
<glyph unicode="&#xc2;" horiz-adv-x="1079" d="M20 0l416 1434h207l416 -1434h-146l-108 373h-531l-108 -373h-146zM225 1577l230 313h178l229 -313h-110l-209 215l-207 -215h-111zM311 502h459l-229 790z" />
<glyph unicode="&#xc3;" horiz-adv-x="1079" d="M20 0l416 1434h207l416 -1434h-146l-108 373h-531l-108 -373h-146zM182 1665q6 18 19.5 41t38 51t64.5 47t87 19q44 0 89.5 -18.5t77 -40t69 -40t67.5 -18.5q36 0 64 27t35 55l110 -43q-4 -15 -17.5 -38t-38 -52t-65 -48.5t-88.5 -19.5q-43 0 -89 18.5t-77.5 40t-69 40 t-67.5 18.5q-38 0 -64 -27t-34 -55zM311 502h459l-229 790z" />
<glyph unicode="&#xc4;" horiz-adv-x="1079" d="M20 0l416 1434h207l416 -1434h-146l-108 373h-531l-108 -373h-146zM281 1690q0 38 28 66t66 28t66 -28t28 -66t-28 -66.5t-66 -28.5t-66 28.5t-28 66.5zM311 502h459l-229 790zM621 1690q0 38 28 66t66 28t66 -28t28 -66t-28 -66.5t-66 -28.5t-66 28.5t-28 66.5z" />
<glyph unicode="&#xc5;" horiz-adv-x="1079" d="M20 0l416 1434h207l416 -1434h-146l-108 373h-531l-108 -373h-146zM311 502h459l-229 790zM367 1749q0 70 51.5 120t122.5 50q72 0 123 -50t51 -120q0 -72 -51 -122t-123 -50q-71 0 -122.5 50.5t-51.5 121.5zM471 1749q0 -34 20 -55t50 -21t49.5 20.5t19.5 55.5 q0 32 -19.5 51t-49.5 19t-50 -20t-20 -50z" />
<glyph unicode="&#xc6;" horiz-adv-x="1665" d="M20 0l758 1434h768v-127h-542v-498h542v-129h-542v-553h559v-127h-701v414h-467l-219 -414h-156zM461 541h401v753z" />
<glyph unicode="&#xc7;" horiz-adv-x="1005" d="M82 719q0 386 127 558.5t397 172.5q37 0 73.5 -4.5t66.5 -12t55.5 -15.5t47 -18t35.5 -17t25.5 -14t12.5 -7l-62 -115q-127 76 -254 76q-73 0 -129 -16.5t-104.5 -58t-80 -109t-49.5 -173t-18 -247.5t18 -248t49.5 -174t80 -110t104.5 -59t129 -17q69 0 138 19.5 t103 38.5l34 19l63 -112q-5 -4 -15 -10t-44 -22t-70.5 -28t-93.5 -22t-115 -10q-27 0 -39 2l-24 -70q10 2 45 2q70 0 116 -37t46 -100q0 -71 -63 -118.5t-179 -47.5q-41 0 -84 7.5t-66 15.5l-22 8l29 71l8 2q67 -22 133 -22q58 0 89.5 23.5t31.5 58.5q0 29 -21.5 46 t-54.5 17q-20 0 -49.5 -3.5t-49.5 -6.5l-20 -4l-16 41l69 125q-207 34 -305 208.5t-98 516.5z" />
<glyph unicode="&#xc8;" horiz-adv-x="958" d="M133 0v1434h705v-127h-564v-498h564v-129h-564v-553h582v-127h-723zM246 1946h174l153 -369h-96z" />
<glyph unicode="&#xc9;" horiz-adv-x="958" d="M133 0v1434h705v-127h-564v-498h564v-129h-564v-553h582v-127h-723zM410 1577l153 369h174l-231 -369h-96z" />
<glyph unicode="&#xca;" horiz-adv-x="958" d="M133 0v1434h705v-127h-564v-498h564v-129h-564v-553h582v-127h-723zM184 1577l230 313h178l229 -313h-110l-209 215l-207 -215h-111z" />
<glyph unicode="&#xcb;" horiz-adv-x="958" d="M133 0v1434h705v-127h-564v-498h564v-129h-564v-553h582v-127h-723zM233 1690q0 38 28.5 66t66.5 28t66 -28t28 -66t-28 -66.5t-66 -28.5t-66.5 28.5t-28.5 66.5zM573 1690q0 38 28.5 66t66.5 28t66 -28t28 -66t-28 -66.5t-66 -28.5t-66.5 28.5t-28.5 66.5z" />
<glyph unicode="&#xcc;" horiz-adv-x="407" d="M-61 1946h174l153 -369h-96zM133 0v1434h141v-1434h-141z" />
<glyph unicode="&#xcd;" horiz-adv-x="407" d="M133 0v1434h141v-1434h-141zM143 1577l154 369h174l-231 -369h-97z" />
<glyph unicode="&#xce;" horiz-adv-x="407" d="M-115 1577l230 313h178l229 -313h-110l-209 215l-207 -215h-111zM133 0v1434h141v-1434h-141z" />
<glyph unicode="&#xcf;" horiz-adv-x="407" d="M-59 1690q0 38 28 66t66 28t66 -28t28 -66t-28 -66.5t-66 -28.5t-66 28.5t-28 66.5zM133 0v1434h141v-1434h-141zM281 1690q0 38 28 66t66 28t66 -28t28 -66t-28 -66.5t-66 -28.5t-66 28.5t-28 66.5z" />
<glyph unicode="&#xd0;" horiz-adv-x="1153" d="M0 680v121h137v633h408q183 0 297 -70t171.5 -228t57.5 -417q0 -385 -126 -552t-400 -167h-408v680h-137zM279 127h268q73 0 128.5 15t105 55t80.5 105.5t49 170t18 246.5t-18 246.5t-49 169.5t-80.5 104t-104.5 53.5t-129 14.5h-268v-506h315v-121h-315v-553z" />
<glyph unicode="&#xd1;" horiz-adv-x="1157" d="M133 0v1434h133l617 -1133v1133h141v-1434h-133l-617 1130v-1130h-141zM217 1665q6 18 19.5 41t38 51t64.5 47t87 19q44 0 89.5 -18.5t77 -40t69 -40t67.5 -18.5q36 0 63.5 27t34.5 55l111 -43q-4 -15 -17.5 -38t-38 -52t-65 -48.5t-88.5 -19.5q-43 0 -89 18.5t-77.5 40 t-69 40t-67.5 18.5q-38 0 -64 -27t-34 -55z" />
<glyph unicode="&#xd2;" d="M82 717q0 385 124 559t394 174q271 0 395.5 -174t124.5 -559t-124.5 -559t-395.5 -174q-270 0 -394 174t-124 559zM225 717q0 -141 16.5 -245.5t47 -173t78 -110.5t103.5 -59.5t130 -17.5q93 0 159.5 28.5t117 96t75.5 187t25 294.5t-25 294.5t-75.5 187t-117 96 t-159.5 28.5q-74 0 -130 -17.5t-103.5 -59.5t-78 -110.5t-47 -173t-16.5 -245.5zM332 1946h174l153 -369h-96z" />
<glyph unicode="&#xd3;" d="M82 717q0 385 124 559t394 174q271 0 395.5 -174t124.5 -559t-124.5 -559t-395.5 -174q-270 0 -394 174t-124 559zM225 717q0 -141 16.5 -245.5t47 -173t78 -110.5t103.5 -59.5t130 -17.5q93 0 159.5 28.5t117 96t75.5 187t25 294.5t-25 294.5t-75.5 187t-117 96 t-159.5 28.5q-74 0 -130 -17.5t-103.5 -59.5t-78 -110.5t-47 -173t-16.5 -245.5zM492 1577l153 369h174l-231 -369h-96z" />
<glyph unicode="&#xd4;" d="M82 717q0 385 124 559t394 174q271 0 395.5 -174t124.5 -559t-124.5 -559t-395.5 -174q-270 0 -394 174t-124 559zM225 717q0 -141 16.5 -245.5t47 -173t78 -110.5t103.5 -59.5t130 -17.5q93 0 159.5 28.5t117 96t75.5 187t25 294.5t-25 294.5t-75.5 187t-117 96 t-159.5 28.5q-74 0 -130 -17.5t-103.5 -59.5t-78 -110.5t-47 -173t-16.5 -245.5zM283 1577l229 313h178l230 -313h-111l-209 215l-207 -215h-110z" />
<glyph unicode="&#xd5;" d="M82 717q0 385 124 559t394 174q271 0 395.5 -174t124.5 -559t-124.5 -559t-395.5 -174q-270 0 -394 174t-124 559zM225 717q0 -141 16.5 -245.5t47 -173t78 -110.5t103.5 -59.5t130 -17.5q93 0 159.5 28.5t117 96t75.5 187t25 294.5t-25 294.5t-75.5 187t-117 96 t-159.5 28.5q-74 0 -130 -17.5t-103.5 -59.5t-78 -110.5t-47 -173t-16.5 -245.5zM240 1665q6 18 19.5 41t38 51t64.5 47t87 19q44 0 89.5 -18.5t77 -40t69 -40t67.5 -18.5q36 0 63.5 27t34.5 55l111 -43q-4 -15 -17.5 -38t-38 -52t-65 -48.5t-88.5 -19.5q-43 0 -89 18.5 t-77.5 40t-69 40t-67.5 18.5q-38 0 -64.5 -27.5t-34.5 -54.5z" />
<glyph unicode="&#xd6;" d="M82 717q0 385 124 559t394 174q271 0 395.5 -174t124.5 -559t-124.5 -559t-395.5 -174q-270 0 -394 174t-124 559zM225 717q0 -141 16.5 -245.5t47 -173t78 -110.5t103.5 -59.5t130 -17.5q93 0 159.5 28.5t117 96t75.5 187t25 294.5t-25 294.5t-75.5 187t-117 96 t-159.5 28.5q-74 0 -130 -17.5t-103.5 -59.5t-78 -110.5t-47 -173t-16.5 -245.5zM340 1690q0 38 28 66t66 28t66 -28t28 -66t-28 -66.5t-66 -28.5t-66 28.5t-28 66.5zM680 1690q0 38 28 66t66 28t66 -28t28 -66t-28 -66.5t-66 -28.5t-66 28.5t-28 66.5z" />
<glyph unicode="&#xd7;" horiz-adv-x="960" d="M164 414l233 233l-233 236l82 80l233 -234l236 236l82 -82l-236 -236l236 -235l-82 -80l-236 233l-233 -233z" />
<glyph unicode="&#xd8;" d="M82 717q0 385 124 559t394 174q192 0 307 -84l107 184l100 -49l-125 -217q131 -177 131 -567q0 -385 -124.5 -559t-395.5 -174q-195 0 -309 86l-107 -185l-98 54l123 213q-127 176 -127 565zM225 717q0 -280 66 -424l547 950q-86 80 -238 80q-74 0 -130 -17.5 t-103.5 -59.5t-78 -110.5t-47 -173t-16.5 -245.5zM360 193q85 -82 240 -82q93 0 159.5 28.5t117 96t75.5 187t25 294.5q0 280 -70 426z" />
<glyph unicode="&#xd9;" horiz-adv-x="1140" d="M123 516v918h139v-861q0 -98 5 -165.5t18.5 -121.5t34.5 -85.5t57 -53t81 -29t111 -7.5t112 7.5t82 28.5t57 53t35 86t19 121.5t5 165.5v861h139v-918q0 -156 -25.5 -258.5t-82.5 -163.5t-138 -85.5t-203 -24.5q-121 0 -201.5 24.5t-137.5 85.5t-82 163.5t-25 258.5z M307 1946h174l154 -369h-96z" />
<glyph unicode="&#xda;" horiz-adv-x="1140" d="M123 516v918h139v-861q0 -98 5 -165.5t18.5 -121.5t34.5 -85.5t57 -53t81 -29t111 -7.5t112 7.5t82 28.5t57 53t35 86t19 121.5t5 165.5v861h139v-918q0 -156 -25.5 -258.5t-82.5 -163.5t-138 -85.5t-203 -24.5q-121 0 -201.5 24.5t-137.5 85.5t-82 163.5t-25 258.5z M498 1577l153 369h174l-231 -369h-96z" />
<glyph unicode="&#xdb;" horiz-adv-x="1140" d="M123 516v918h139v-861q0 -98 5 -165.5t18.5 -121.5t34.5 -85.5t57 -53t81 -29t111 -7.5t112 7.5t82 28.5t57 53t35 86t19 121.5t5 165.5v861h139v-918q0 -156 -25.5 -258.5t-82.5 -163.5t-138 -85.5t-203 -24.5q-121 0 -201.5 24.5t-137.5 85.5t-82 163.5t-25 258.5z M252 1577l229 313h178l230 -313h-111l-209 215l-207 -215h-110z" />
<glyph unicode="&#xdc;" horiz-adv-x="1140" d="M123 516v918h139v-861q0 -98 5 -165.5t18.5 -121.5t34.5 -85.5t57 -53t81 -29t111 -7.5t112 7.5t82 28.5t57 53t35 86t19 121.5t5 165.5v861h139v-918q0 -156 -25.5 -258.5t-82.5 -163.5t-138 -85.5t-203 -24.5q-121 0 -201.5 24.5t-137.5 85.5t-82 163.5t-25 258.5z M307 1690q0 38 28 66t66 28t66.5 -28t28.5 -66t-28.5 -66.5t-66.5 -28.5t-66 28.5t-28 66.5zM647 1690q0 38 28 66t66 28t66.5 -28t28.5 -66t-28.5 -66.5t-66.5 -28.5t-66 28.5t-28 66.5z" />
<glyph unicode="&#xdd;" horiz-adv-x="1009" d="M20 1434h152l332 -682l334 682h151l-416 -832v-602h-141v602zM422 1577l153 369h175l-232 -369h-96z" />
<glyph unicode="&#xde;" horiz-adv-x="1062" d="M133 0v1434h141v-275h248q127 0 213 -20.5t144.5 -70t85 -131.5t26.5 -204q0 -121 -26 -202.5t-84.5 -131.5t-145.5 -71t-217 -21h-244v-307h-141zM274 434h222q72 0 120.5 4.5t91 16.5t67.5 32.5t43 54.5t25 80t7 111q0 62 -6.5 107t-23 79t-41 55t-64 34.5t-88 18.5 t-117.5 5h-236v-598z" />
<glyph unicode="&#xdf;" horiz-adv-x="1052" d="M133 0v1085q0 79 18 143t55 115t101 79t150 28q81 0 145.5 -26.5t108.5 -76t72 -101.5t51 -120l-5 -36q-130 -3 -208 -69.5t-78 -178.5q0 -64 46.5 -121.5t131.5 -120.5q71 -51 114.5 -87t82.5 -78.5t56 -86t17 -92.5q0 -122 -86.5 -197t-236.5 -75q-46 0 -91.5 9.5 t-77 22t-58.5 27t-38.5 23t-13.5 10.5l60 98q10 -9 29 -21.5t75 -33.5t111 -21q100 0 146 44.5t46 113.5q0 57 -49.5 112t-159.5 130q-126 88 -183.5 167.5t-57.5 172.5q0 116 70.5 204t201.5 121q-32 76 -86.5 123t-128.5 47q-98 0 -146.5 -66t-48.5 -210v-1057h-135z" />
<glyph unicode="&#xe0;" horiz-adv-x="905" d="M82 281q0 63 24 119t72.5 102t132.5 73t195 27h141v141q0 88 -43.5 133.5t-138.5 45.5q-65 0 -132.5 -16t-102.5 -32l-35 -16l-35 105q14 8 40 20t106.5 32.5t160.5 20.5q173 0 244 -77.5t71 -233.5v-725h-104l-19 76q-62 -42 -127 -67t-155 -25q-140 0 -217.5 85 t-77.5 212zM219 285q0 -83 51.5 -136t130.5 -53q76 0 143.5 27.5t102.5 60.5v310h-141q-135 0 -211 -59.5t-76 -149.5zM272 1526h179l96 -348h-96z" />
<glyph unicode="&#xe1;" horiz-adv-x="905" d="M82 281q0 63 24 119t72.5 102t132.5 73t195 27h141v141q0 88 -43.5 133.5t-138.5 45.5q-65 0 -132.5 -16t-102.5 -32l-35 -16l-35 105q14 8 40 20t106.5 32.5t160.5 20.5q173 0 244 -77.5t71 -233.5v-725h-104l-19 76q-62 -42 -127 -67t-155 -25q-140 0 -217.5 85 t-77.5 212zM219 285q0 -83 51.5 -136t130.5 -53q76 0 143.5 27.5t102.5 60.5v310h-141q-135 0 -211 -59.5t-76 -149.5zM422 1178l98 348h176l-178 -348h-96z" />
<glyph unicode="&#xe2;" horiz-adv-x="905" d="M82 281q0 63 24 119t72.5 102t132.5 73t195 27h141v141q0 88 -43.5 133.5t-138.5 45.5q-65 0 -132.5 -16t-102.5 -32l-35 -16l-35 105q14 8 40 20t106.5 32.5t160.5 20.5q173 0 244 -77.5t71 -233.5v-725h-104l-19 76q-62 -42 -127 -67t-155 -25q-140 0 -217.5 85 t-77.5 212zM164 1178l219 297h170l217 -297h-106l-197 204l-197 -204h-106zM219 285q0 -83 51.5 -136t130.5 -53q76 0 143.5 27.5t102.5 60.5v310h-141q-135 0 -211 -59.5t-76 -149.5z" />
<glyph unicode="&#xe3;" horiz-adv-x="905" d="M82 281q0 63 24 119t72.5 102t132.5 73t195 27h141v141q0 88 -43.5 133.5t-138.5 45.5q-65 0 -132.5 -16t-102.5 -32l-35 -16l-35 105q14 8 40 20t106.5 32.5t160.5 20.5q173 0 244 -77.5t71 -233.5v-725h-104l-19 76q-62 -42 -127 -67t-155 -25q-140 0 -217.5 85 t-77.5 212zM88 1270q3 13 16 35t36.5 48.5t62.5 45t84 18.5q51 0 105 -28t103.5 -56t88.5 -28t64.5 29.5t29.5 47.5l102 -39q-2 -10 -10 -26t-25 -37.5t-39 -39.5t-55 -31t-69 -13q-55 0 -111 28t-103.5 55.5t-82.5 27.5q-39 0 -65.5 -29.5t-29.5 -46.5zM219 285 q0 -83 51.5 -136t130.5 -53q76 0 143.5 27.5t102.5 60.5v310h-141q-135 0 -211 -59.5t-76 -149.5z" />
<glyph unicode="&#xe4;" horiz-adv-x="905" d="M82 281q0 63 24 119t72.5 102t132.5 73t195 27h141v141q0 88 -43.5 133.5t-138.5 45.5q-65 0 -132.5 -16t-102.5 -32l-35 -16l-35 105q14 8 40 20t106.5 32.5t160.5 20.5q173 0 244 -77.5t71 -233.5v-725h-104l-19 76q-62 -42 -127 -67t-155 -25q-140 0 -217.5 85 t-77.5 212zM219 285q0 -83 51.5 -136t130.5 -53q76 0 143.5 27.5t102.5 60.5v310h-141q-135 0 -211 -59.5t-76 -149.5zM236 1311q0 38 28 66t66 28t66 -28t28 -66t-28 -66t-66 -28t-66 28t-28 66zM539 1311q0 38 28 66t66 28t66 -28t28 -66t-28 -66t-66 -28t-66 28t-28 66z " />
<glyph unicode="&#xe5;" horiz-adv-x="905" d="M82 281q0 63 24 119t72.5 102t132.5 73t195 27h141v141q0 88 -43.5 133.5t-138.5 45.5q-65 0 -132.5 -16t-102.5 -32l-35 -16l-35 105q14 8 40 20t106.5 32.5t160.5 20.5q173 0 244 -77.5t71 -233.5v-725h-104l-19 76q-62 -42 -127 -67t-155 -25q-140 0 -217.5 85 t-77.5 212zM219 285q0 -83 51.5 -136t130.5 -53q76 0 143.5 27.5t102.5 60.5v310h-141q-135 0 -211 -59.5t-76 -149.5zM309 1339q0 66 49 113t115 47t114 -47t48 -113t-48 -113.5t-114 -47.5t-115 47.5t-49 113.5zM403 1339q0 -34 19.5 -54.5t50.5 -20.5q30 0 49 21t19 54 q0 31 -19.5 50.5t-48.5 19.5q-31 0 -50.5 -19.5t-19.5 -50.5z" />
<glyph unicode="&#xe6;" horiz-adv-x="1478" d="M82 281q0 63 24.5 118.5t74 101.5t135.5 72.5t198 26.5h135v145q0 179 -184 179q-65 0 -132.5 -16t-102.5 -32l-35 -16l-35 105q14 8 40 20t106.5 32.5t160.5 20.5q213 0 278 -137q94 137 289 137q86 0 149 -24t104 -67.5t65.5 -113t34.5 -152t10 -192.5h-615 q1 -90 14.5 -158t44 -121.5t85 -81.5t131.5 -28q70 0 132 16.5t89 33.5l27 16l51 -103l-16 -9q-16 -9 -30.5 -16t-43 -18t-57 -18t-69 -12.5t-83.5 -5.5q-209 0 -309 131q-190 -131 -373 -131q-140 0 -216.5 84.5t-76.5 212.5zM219 283q0 -79 51.5 -133t130.5 -54 q154 0 293 117q-45 112 -45 276h-135q-140 0 -217.5 -57.5t-77.5 -148.5zM784 600h480q-6 175 -59.5 249.5t-172.5 74.5q-126 0 -184 -83t-64 -241z" />
<glyph unicode="&#xe7;" horiz-adv-x="778" d="M82 510q0 147 29 251t85 163t127.5 85.5t165.5 26.5q112 0 213 -53l-49 -104q-1 0 -9.5 4t-18 8.5t-25.5 9.5t-32 9t-37 7t-42 3q-64 0 -112 -19.5t-78.5 -53t-49 -86.5t-25.5 -113t-7 -138t7 -137.5t25 -112.5t48.5 -87t78.5 -53.5t113 -19.5q44 0 87.5 10.5t65.5 20.5 l22 10l43 -108q-98 -49 -218 -49q-24 0 -34 2l-33 -82q4 0 20 1t23 1q68 0 114 -34t46 -103q0 -66 -57 -110t-167 -44q-40 0 -82 8.5t-64 16.5l-22 8l27 71q73 -28 141 -28q117 0 117 78q0 32 -22 48.5t-60 16.5q-22 0 -50 -3.5t-45 -6.5l-17 -4l-15 41l70 133 q-143 29 -220 152t-77 364z" />
<glyph unicode="&#xe8;" horiz-adv-x="915" d="M82 512q0 524 387 524q86 0 149 -24.5t104.5 -69t66.5 -114.5t35 -153.5t10 -193.5h-615q2 -90 15.5 -156.5t44 -119t84 -79t129.5 -26.5q70 0 132 16.5t88 33.5l27 16l52 -103q-126 -79 -299 -79q-94 0 -166 27t-128.5 86t-86 163.5t-29.5 251.5zM219 590h479 q-6 177 -59 254.5t-170 77.5q-127 0 -183.5 -84.5t-66.5 -247.5zM262 1526h178l97 -348h-97z" />
<glyph unicode="&#xe9;" horiz-adv-x="915" d="M82 512q0 524 387 524q86 0 149 -24.5t104.5 -69t66.5 -114.5t35 -153.5t10 -193.5h-615q2 -90 15.5 -156.5t44 -119t84 -79t129.5 -26.5q70 0 132 16.5t88 33.5l27 16l52 -103q-126 -79 -299 -79q-94 0 -166 27t-128.5 86t-86 163.5t-29.5 251.5zM219 590h479 q-6 177 -59 254.5t-170 77.5q-127 0 -183.5 -84.5t-66.5 -247.5zM381 1178l98 348h176l-178 -348h-96z" />
<glyph unicode="&#xea;" horiz-adv-x="915" d="M82 512q0 524 387 524q86 0 149 -24.5t104.5 -69t66.5 -114.5t35 -153.5t10 -193.5h-615q2 -90 15.5 -156.5t44 -119t84 -79t129.5 -26.5q70 0 132 16.5t88 33.5l27 16l52 -103q-126 -79 -299 -79q-94 0 -166 27t-128.5 86t-86 163.5t-29.5 251.5zM154 1178l219 297h170 l217 -297h-107l-196 204l-197 -204h-106zM219 590h479q-6 177 -59 254.5t-170 77.5q-127 0 -183.5 -84.5t-66.5 -247.5z" />
<glyph unicode="&#xeb;" horiz-adv-x="915" d="M82 512q0 524 387 524q86 0 149 -24.5t104.5 -69t66.5 -114.5t35 -153.5t10 -193.5h-615q2 -90 15.5 -156.5t44 -119t84 -79t129.5 -26.5q70 0 132 16.5t88 33.5l27 16l52 -103q-126 -79 -299 -79q-94 0 -166 27t-128.5 86t-86 163.5t-29.5 251.5zM219 590h479 q-6 177 -59 254.5t-170 77.5q-127 0 -183.5 -84.5t-66.5 -247.5zM229 1311q0 38 28.5 66t66.5 28t66 -28t28 -66t-28 -66t-66 -28t-66.5 28t-28.5 66zM532 1311q0 38 28.5 66t66.5 28t66 -28t28 -66t-28 -66t-66 -28t-66.5 28t-28.5 66z" />
<glyph unicode="&#xec;" horiz-adv-x="434" d="M-2 1526h178l96 -348h-96zM150 0v1024h135v-1024h-135z" />
<glyph unicode="&#xed;" horiz-adv-x="434" d="M150 0v1024h135v-1024h-135zM162 1178l98 348h176l-178 -348h-96z" />
<glyph unicode="&#xee;" horiz-adv-x="434" d="M-86 1178l219 297h170l217 -297h-106l-197 204l-197 -204h-106zM150 0v1024h135v-1024h-135z" />
<glyph unicode="&#xef;" horiz-adv-x="434" d="M-29 1311q0 38 28.5 66t66.5 28t66 -28t28 -66t-28 -66t-66 -28t-66.5 28t-28.5 66zM150 0v1024h135v-1024h-135zM274 1311q0 38 28.5 66t66.5 28t66 -28t28 -66t-28 -66t-66 -28t-66.5 28t-28.5 66z" />
<glyph unicode="&#xf0;" horiz-adv-x="1032" d="M82 463q0 98 26.5 184t77.5 154.5t135.5 108.5t192.5 40q29 0 59.5 -5.5t46.5 -10.5l15 -6q-46 77 -170 239l-223 -84l-45 113l190 70q-29 36 -63 76.5t-53 63t-23 28.5h168l96 -119l195 74l43 -113l-160 -59q78 -99 135 -182.5t112 -183t84 -198t29 -190.5 q0 -74 -14 -141t-46.5 -129.5t-81.5 -108t-124 -73t-168 -27.5q-95 0 -172 32.5t-124.5 83.5t-79.5 116.5t-45 126.5t-13 120zM217 463q0 -156 81.5 -259.5t217.5 -103.5q146 0 222.5 99.5t76.5 263.5q0 85 -32.5 177t-71.5 144l-7 6q-8 5 -21.5 12.5t-30.5 15t-41 13 t-48 5.5q-169 0 -257.5 -102t-88.5 -271z" />
<glyph unicode="&#xf1;" horiz-adv-x="1005" d="M133 0v1024h103l28 -106q164 118 322 118q162 0 229.5 -84.5t67.5 -249.5v-702h-135v707q0 119 -47.5 168t-145.5 49q-87 0 -165.5 -41.5t-121.5 -81.5v-801h-135zM160 1270q2 10 10 26t25 37.5t39 39.5t55 31t69 13q51 0 105 -28t103.5 -56t88.5 -28t65.5 30t29.5 47 l102 -39q-3 -13 -16 -35t-36.5 -48.5t-62.5 -45t-84 -18.5q-55 0 -111 28t-103.5 55.5t-82.5 27.5q-39 0 -65 -29.5t-29 -46.5z" />
<glyph unicode="&#xf2;" horiz-adv-x="976" d="M82 512q0 147 29 250.5t85 162.5t127.5 85t165.5 26q93 0 164.5 -26t127 -85t85 -163t29.5 -250q0 -147 -29.5 -251.5t-85 -164t-127 -86t-164.5 -26.5q-94 0 -165.5 26.5t-127.5 86.5t-85 164t-29 251zM217 512q0 -78 7 -138.5t25.5 -113.5t49 -87t78.5 -53.5t112 -19.5 t112 19.5t78 53.5t48.5 87t25.5 113t7 139q0 99 -12 169.5t-41 126.5t-83.5 84t-134.5 28t-134.5 -28t-84 -84t-41.5 -126.5t-12 -169.5zM289 1526h178l96 -348h-96z" />
<glyph unicode="&#xf3;" horiz-adv-x="976" d="M82 512q0 147 29 250.5t85 162.5t127.5 85t165.5 26q93 0 164.5 -26t127 -85t85 -163t29.5 -250q0 -147 -29.5 -251.5t-85 -164t-127 -86t-164.5 -26.5q-94 0 -165.5 26.5t-127.5 86.5t-85 164t-29 251zM217 512q0 -78 7 -138.5t25.5 -113.5t49 -87t78.5 -53.5t112 -19.5 t112 19.5t78 53.5t48.5 87t25.5 113t7 139q0 99 -12 169.5t-41 126.5t-83.5 84t-134.5 28t-134.5 -28t-84 -84t-41.5 -126.5t-12 -169.5zM391 1178l98 348h177l-179 -348h-96z" />
<glyph unicode="&#xf4;" horiz-adv-x="976" d="M82 512q0 147 29 250.5t85 162.5t127.5 85t165.5 26q93 0 164.5 -26t127 -85t85 -163t29.5 -250q0 -147 -29.5 -251.5t-85 -164t-127 -86t-164.5 -26.5q-94 0 -165.5 26.5t-127.5 86.5t-85 164t-29 251zM184 1178l219 297h170l218 -297h-107l-197 204l-196 -204h-107z M217 512q0 -78 7 -138.5t25.5 -113.5t49 -87t78.5 -53.5t112 -19.5t112 19.5t78 53.5t48.5 87t25.5 113t7 139q0 99 -12 169.5t-41 126.5t-83.5 84t-134.5 28t-134.5 -28t-84 -84t-41.5 -126.5t-12 -169.5z" />
<glyph unicode="&#xf5;" horiz-adv-x="976" d="M82 512q0 147 29 250.5t85 162.5t127.5 85t165.5 26q93 0 164.5 -26t127 -85t85 -163t29.5 -250q0 -147 -29.5 -251.5t-85 -164t-127 -86t-164.5 -26.5q-94 0 -165.5 26.5t-127.5 86.5t-85 164t-29 251zM143 1270q3 13 16 35t36.5 48.5t62.5 45t84 18.5q51 0 105 -28 t103.5 -56t88.5 -28t64.5 29.5t29.5 47.5l103 -39q-3 -13 -16 -35t-36.5 -48.5t-62.5 -45t-84 -18.5q-55 0 -111 28t-103.5 55.5t-82.5 27.5q-39 0 -65 -29.5t-29 -46.5zM217 512q0 -78 7 -138.5t25.5 -113.5t49 -87t78.5 -53.5t112 -19.5t112 19.5t78 53.5t48.5 87 t25.5 113t7 139q0 99 -12 169.5t-41 126.5t-83.5 84t-134.5 28t-134.5 -28t-84 -84t-41.5 -126.5t-12 -169.5z" />
<glyph unicode="&#xf6;" horiz-adv-x="976" d="M82 512q0 147 29 250.5t85 162.5t127.5 85t165.5 26q93 0 164.5 -26t127 -85t85 -163t29.5 -250q0 -147 -29.5 -251.5t-85 -164t-127 -86t-164.5 -26.5q-94 0 -165.5 26.5t-127.5 86.5t-85 164t-29 251zM217 512q0 -78 7 -138.5t25.5 -113.5t49 -87t78.5 -53.5t112 -19.5 t112 19.5t78 53.5t48.5 87t25.5 113t7 139q0 99 -12 169.5t-41 126.5t-83.5 84t-134.5 28t-134.5 -28t-84 -84t-41.5 -126.5t-12 -169.5zM240 1311q0 38 28 66t66 28t66 -28t28 -66t-28 -66t-66 -28t-66 28t-28 66zM543 1311q0 38 28 66t66 28t66 -28t28 -66t-28 -66 t-66 -28t-66 28t-28 66z" />
<glyph unicode="&#xf7;" horiz-adv-x="1026" d="M164 588v114h698v-114h-698zM401 305q0 45 34 78t79 33q44 0 76.5 -32.5t32.5 -78.5q0 -43 -32.5 -76.5t-76.5 -33.5t-78.5 33.5t-34.5 76.5zM401 987q0 44 34 76.5t79 32.5q44 0 76.5 -32.5t32.5 -76.5t-32.5 -77t-76.5 -33q-45 0 -79 33t-34 77z" />
<glyph unicode="&#xf8;" horiz-adv-x="976" d="M82 512q0 147 29 250.5t85 162.5t127.5 85t165.5 26q133 0 220 -53l90 152l92 -50l-103 -172q107 -129 107 -401q0 -147 -29.5 -251.5t-85 -164t-127 -86t-164.5 -26.5q-130 0 -219 51l-88 -148l-90 50l98 165q-108 127 -108 410zM217 512q0 -191 47 -285l383 650 q-62 43 -158 43q-80 0 -134.5 -28t-84 -84t-41.5 -126.5t-12 -169.5zM334 141q59 -41 155 -41q64 0 112 19.5t78 53.5t48.5 87t25.5 113t7 139q0 181 -45 276z" />
<glyph unicode="&#xf9;" horiz-adv-x="1009" d="M123 317v707h135v-711q0 -118 49 -167.5t148 -49.5q85 0 164.5 41.5t121.5 81.5v805h136v-1024h-109l-23 102q-67 -50 -153 -84t-168 -34q-164 0 -232.5 83.5t-68.5 249.5zM283 1526h178l96 -348h-96z" />
<glyph unicode="&#xfa;" horiz-adv-x="1009" d="M123 317v707h135v-711q0 -118 49 -167.5t148 -49.5q85 0 164.5 41.5t121.5 81.5v805h136v-1024h-109l-23 102q-67 -50 -153 -84t-168 -34q-164 0 -232.5 83.5t-68.5 249.5zM426 1178l98 348h176l-178 -348h-96z" />
<glyph unicode="&#xfb;" horiz-adv-x="1009" d="M123 317v707h135v-711q0 -118 49 -167.5t148 -49.5q85 0 164.5 41.5t121.5 81.5v805h136v-1024h-109l-23 102q-67 -50 -153 -84t-168 -34q-164 0 -232.5 83.5t-68.5 249.5zM199 1178l219 297h170l217 -297h-107l-196 204l-197 -204h-106z" />
<glyph unicode="&#xfc;" horiz-adv-x="1009" d="M123 317v707h135v-711q0 -118 49 -167.5t148 -49.5q85 0 164.5 41.5t121.5 81.5v805h136v-1024h-109l-23 102q-67 -50 -153 -84t-168 -34q-164 0 -232.5 83.5t-68.5 249.5zM242 1311q0 38 28 66t66 28t66 -28t28 -66t-28 -66t-66 -28t-66 28t-28 66zM545 1311q0 38 28 66 t66 28t66 -28t28 -66t-28 -66t-66 -28t-66 28t-28 66z" />
<glyph unicode="&#xfd;" horiz-adv-x="858" d="M20 1024h140l268 -891l270 891h140l-369 -1180q-70 -229 -289 -229q-56 0 -127 23l33 106q40 -14 82 -14q35 0 62.5 10t45.5 24.5t34 40.5t25 48t21 57l31 90h-49zM371 1178l98 348h176l-178 -348h-96z" />
<glyph unicode="&#xfe;" horiz-adv-x="983" d="M133 -369v1803h135v-492q30 32 96 63t146 31q67 0 123.5 -16.5t107 -55t85 -97.5t55 -150t20.5 -207t-20 -206t-55 -150t-85.5 -98.5t-108.5 -55t-128 -16.5q-142 0 -236 98v-451h-135zM268 221q32 -55 90.5 -89t128.5 -34q79 0 134.5 29t86.5 85.5t44.5 128.5t13.5 169 q0 98 -13.5 170t-44.5 128.5t-86.5 85t-134.5 28.5q-78 0 -134.5 -38.5t-84.5 -86.5v-576z" />
<glyph unicode="&#xff;" horiz-adv-x="858" d="M20 1024h140l268 -891l270 891h140l-369 -1180q-70 -229 -289 -229q-56 0 -127 23l33 106q40 -14 82 -14q35 0 62.5 10t45.5 24.5t34 40.5t25 48t21 57l31 90h-49zM182 1311q0 38 28 66t66 28t66.5 -28t28.5 -66t-28.5 -66t-66.5 -28t-66 28t-28 66zM485 1311 q0 38 28.5 66t66.5 28t66 -28t28 -66t-28 -66t-66 -28t-66.5 28t-28.5 66z" />
<glyph unicode="&#x152;" horiz-adv-x="1804" d="M82 717q0 385 124 559t394 174q130 0 232 -52.5t149 -146.5v183h702v-127h-563v-498h563v-129h-563v-553h582v-127h-721v178q-109 -194 -381 -194q-270 0 -394 174t-124 559zM225 717q0 -141 16.5 -245.5t47 -173t78 -110.5t103.5 -59.5t130 -17.5q93 0 159.5 28.5 t117 96t75.5 187t25 294.5t-25 294.5t-75.5 187t-117 96t-159.5 28.5q-74 0 -130 -17.5t-103.5 -59.5t-78 -110.5t-47 -173t-16.5 -245.5z" />
<glyph unicode="&#x153;" horiz-adv-x="1593" d="M82 512q0 147 29 250.5t85 162.5t127.5 85t165.5 26q245 0 338 -188q91 188 320 188q107 0 178.5 -36t112 -111t57 -172.5t16.5 -237.5h-614q2 -183 63.5 -281t208.5 -98q70 0 132 16.5t89 33.5l27 16l51 -103q-2 -1 -16 -8.5t-30 -15.5t-43.5 -18.5t-57 -18t-70 -13 t-82.5 -5.5q-250 0 -340 190q-93 -190 -340 -190q-94 0 -165.5 26.5t-127.5 86.5t-85 164t-29 251zM217 512q0 -78 7 -138.5t25.5 -113.5t49 -87t78.5 -53.5t112 -19.5q151 0 211 101.5t60 308.5q0 79 -7.5 139t-25.5 112.5t-48.5 86.5t-78 53t-111.5 19q-80 0 -134.5 -28 t-84 -84t-41.5 -126.5t-12 -169.5zM897 588h479q-6 179 -59 256.5t-170 77.5q-127 0 -183.5 -84.5t-66.5 -249.5z" />
<glyph unicode="&#x178;" horiz-adv-x="1009" d="M20 1434h152l332 -682l334 682h151l-416 -832v-602h-141v602zM242 1690q0 38 28 66t66 28t66 -28t28 -66t-28 -66.5t-66 -28.5t-66 28.5t-28 66.5zM582 1690q0 38 28 66t66 28t66 -28t28 -66t-28 -66.5t-66 -28.5t-66 28.5t-28 66.5z" />
<glyph unicode="&#x2c6;" horiz-adv-x="811" d="M102 1178l220 297h170l217 -297h-107l-196 204l-197 -204h-107z" />
<glyph unicode="&#x2dc;" horiz-adv-x="897" d="M102 1270q3 13 16 35t36.5 48.5t62.5 45t84 18.5q51 0 105 -28t103.5 -56t88.5 -28t64.5 29.5t29.5 47.5l103 -39q-3 -13 -16 -35t-36.5 -48.5t-62.5 -45t-84 -18.5q-55 0 -111 28t-103.5 55.5t-82.5 27.5q-39 0 -65 -29.5t-29 -46.5z" />
<glyph unicode="&#x2000;" horiz-adv-x="973" />
<glyph unicode="&#x2001;" horiz-adv-x="1946" />
<glyph unicode="&#x2002;" horiz-adv-x="973" />
<glyph unicode="&#x2003;" horiz-adv-x="1946" />
<glyph unicode="&#x2004;" horiz-adv-x="648" />
<glyph unicode="&#x2005;" horiz-adv-x="486" />
<glyph unicode="&#x2006;" horiz-adv-x="324" />
<glyph unicode="&#x2007;" horiz-adv-x="324" />
<glyph unicode="&#x2008;" horiz-adv-x="243" />
<glyph unicode="&#x2009;" horiz-adv-x="389" />
<glyph unicode="&#x200a;" horiz-adv-x="108" />
<glyph unicode="&#x2010;" horiz-adv-x="839" d="M164 461v112h512v-112h-512z" />
<glyph unicode="&#x2011;" horiz-adv-x="839" d="M164 461v112h512v-112h-512z" />
<glyph unicode="&#x2012;" horiz-adv-x="839" d="M164 461v112h512v-112h-512z" />
<glyph unicode="&#x2013;" horiz-adv-x="1167" d="M164 461v112h840v-112h-840z" />
<glyph unicode="&#x2014;" horiz-adv-x="2007" d="M164 461v112h1679v-112h-1679z" />
<glyph unicode="&#x2018;" horiz-adv-x="432" d="M102 1096q0 19 13 49l149 305l66 -16l-74 -232q33 -12 53.5 -41t20.5 -65q0 -48 -33 -81.5t-82 -33.5q-46 0 -79.5 34t-33.5 81z" />
<glyph unicode="&#x2019;" horiz-adv-x="432" d="M102 1335q0 47 34 81t81 34q46 0 79.5 -34t33.5 -81q0 -19 -13 -49l-149 -305l-64 16l74 232q-34 12 -55 41t-21 65z" />
<glyph unicode="&#x201a;" horiz-adv-x="432" d="M102 88q0 48 33 81.5t82 33.5q46 0 79.5 -34t33.5 -81q0 -19 -13 -49l-149 -305l-66 16l74 232q-33 12 -53.5 41t-20.5 65z" />
<glyph unicode="&#x201c;" horiz-adv-x="778" d="M102 1096q0 19 13 49l149 305l66 -16l-74 -232q33 -12 53.5 -41t20.5 -65q0 -48 -33 -81.5t-82 -33.5q-46 0 -79.5 34t-33.5 81zM449 1096q0 21 12 49l149 305l64 -16l-74 -232q34 -12 55 -41t21 -65q0 -47 -34 -81t-81 -34q-46 0 -79 34t-33 81z" />
<glyph unicode="&#x201d;" horiz-adv-x="778" d="M102 1335q0 47 34 81t81 34q46 0 79.5 -34t33.5 -81q0 -19 -13 -49l-149 -305l-64 16l74 232q-34 12 -55 41t-21 65zM449 997l73 232q-33 12 -53 41t-20 65q0 48 32.5 81.5t81.5 33.5q46 0 79.5 -34t33.5 -81q0 -21 -12 -49l-150 -305z" />
<glyph unicode="&#x201e;" horiz-adv-x="761" d="M102 88q0 48 33 81.5t82 33.5q46 0 79.5 -34t33.5 -81q0 -19 -13 -49l-149 -305l-66 16l74 232q-33 12 -53.5 41t-20.5 65zM432 88q0 48 33 81.5t82 33.5q46 0 79 -34t33 -81q0 -21 -12 -49l-149 -305l-66 16l74 232q-33 12 -53.5 41t-20.5 65z" />
<glyph unicode="&#x2022;" horiz-adv-x="684" d="M164 670q0 73 53 125.5t127 52.5q72 0 124 -52.5t52 -125.5q0 -74 -52 -126t-124 -52q-74 0 -127 52t-53 126z" />
<glyph unicode="&#x2026;" horiz-adv-x="1214" d="M102 94q0 44 34 76.5t79 32.5q44 0 76.5 -32.5t32.5 -76.5t-32.5 -77t-76.5 -33q-45 0 -79 33t-34 77zM498 94q0 44 33 76.5t77 32.5q45 0 77 -32t32 -77t-32 -77.5t-77 -32.5q-44 0 -77 33t-33 77zM891 94q0 44 34 76.5t79 32.5q44 0 76 -32.5t32 -76.5t-32 -77t-76 -33 q-45 0 -79 33t-34 77z" />
<glyph unicode="&#x202f;" horiz-adv-x="389" />
<glyph unicode="&#x2039;" horiz-adv-x="593" d="M143 496v39l256 380l93 -49l-218 -350l218 -350l-93 -51z" />
<glyph unicode="&#x203a;" horiz-adv-x="593" d="M143 166l217 350l-217 350l90 49l259 -380v-39l-259 -381z" />
<glyph unicode="&#x205f;" horiz-adv-x="486" />
<glyph unicode="&#x20ac;" horiz-adv-x="1216" d="M102 537v116h150v64l2 94h-152v115h162q30 277 156.5 400.5t357.5 123.5q88 0 166.5 -22t113.5 -44l34 -22l-62 -115q-12 9 -34 21.5t-88 33.5t-130 21q-77 0 -135.5 -18t-108 -61.5t-82 -123t-46.5 -194.5h495v-115h-504q-2 -29 -2 -94v-64h506v-116h-498 q12 -124 43.5 -209t82.5 -131.5t110.5 -66t138.5 -19.5q68 0 136.5 19.5t102.5 38.5l34 19l63 -112q-5 -4 -15 -10t-44 -22t-70.5 -28t-93 -22t-113.5 -10q-237 0 -364 132t-154 421h-158z" />
<glyph unicode="&#x2122;" horiz-adv-x="1449" d="M123 1343v91h467v-91h-182v-667h-105v667h-180zM707 676v758h118l172 -349l172 349h117v-758h-104v577l-172 -340h-25l-172 340v-577h-106z" />
<glyph unicode="&#xe000;" horiz-adv-x="1024" d="M0 0v1024h1024v-1024h-1024z" />
</font>
</defs>
</svg>
