<?xml version="1.0" standalone="no"?>
<!DOCTYPE svg PUBLIC "-//W3C//DTD SVG 1.1//EN" "http://www.w3.org/Graphics/SVG/1.1/DTD/svg11.dtd" >
<svg xmlns="http://www.w3.org/2000/svg">
<metadata></metadata>
<defs>
<font id="barna_semiboldsemibold" horiz-adv-x="1003" >
<font-face units-per-em="2048" ascent="1536" descent="-512" />
<missing-glyph horiz-adv-x="409" />
<glyph unicode="&#xfb01;" horiz-adv-x="1091" d="M51 866v158h123v74q0 167 87.5 264.5t240.5 97.5q158 0 342 -92l-53 -125q-3 1 -33 12t-49 16.5t-51 14.5t-63 13t-60 4q-90 0 -132.5 -56t-42.5 -174v-49h598v-1024h-186v866h-412v-866h-186v866h-123z" />
<glyph unicode="&#xfb02;" horiz-adv-x="1208" d="M51 866v158h123v74q0 167 87.5 264.5t240.5 97.5q200 0 442 -55v-1038q0 -114 35.5 -170t116.5 -56q20 0 65 9l37 -152q-58 -14 -108 -14q-165 0 -248.5 98t-83.5 262v932q-149 27 -223 27q-90 0 -132.5 -56t-42.5 -174v-49h213v-158h-213v-866h-186v866h-123z" />
<glyph unicode="&#xfb03;" horiz-adv-x="1697" d="M51 866v158h123v80q0 69 18 129.5t56 113t105.5 83t158.5 30.5q69 0 137 -22l-37 -150q-62 15 -94 15q-158 0 -158 -224v-55h418v74q0 167 88 264.5t242 97.5q160 0 340 -92l-51 -125q-1 0 -44 15t-66.5 22t-67 15t-80.5 8q-90 0 -132 -56t-42 -174v-49h600v-1024h-189 v866h-411v-866h-187v866h-418v-866h-186v866h-123z" />
<glyph unicode="&#xfb04;" horiz-adv-x="1812" d="M51 866v158h123v80q0 69 18 129.5t56 113t105.5 83t158.5 30.5q69 0 137 -22l-37 -150q-62 15 -94 15q-158 0 -158 -224v-55h418v74q0 167 88 264.5t242 97.5q196 0 442 -55v-1038q0 -114 34.5 -170t115.5 -56q20 0 65 9l37 -152q-58 -14 -108 -14q-165 0 -248.5 98 t-83.5 262v932q-148 27 -223 27q-90 0 -132 -56t-42 -174v-49h213v-158h-213v-866h-187v866h-418v-866h-186v866h-123z" />
<glyph horiz-adv-x="2048" />
<glyph horiz-adv-x="2048" />
<glyph unicode="&#xd;" horiz-adv-x="2048" />
<glyph unicode=" "  horiz-adv-x="409" />
<glyph unicode="&#x09;" horiz-adv-x="409" />
<glyph unicode="&#xa0;" horiz-adv-x="409" />
<glyph unicode="!" horiz-adv-x="542" d="M143 113q0 53 37.5 90t89.5 37q53 0 91 -37.5t38 -89.5q0 -53 -38.5 -91t-90.5 -38t-89.5 38t-37.5 91zM174 940v504h193v-504l-33 -561h-127z" />
<glyph unicode="&#x22;" horiz-adv-x="647" d="M92 1444h176l-47 -510h-82zM379 1444h176l-47 -510h-82z" />
<glyph unicode="#" horiz-adv-x="1628" d="M164 477v160h250l84 295h-207v160h254l100 352h211l-100 -352h291l100 352h211l-101 -352h207v-160h-254l-84 -295h217v-160h-262l-137 -477h-211l137 477h-290l-136 -477h-211l136 477h-205zM625 637h290l84 295h-290z" />
<glyph unicode="$" horiz-adv-x="1124" d="M133 100l78 156q164 -102 305 -102q137 0 204.5 65.5t67.5 161.5q0 33 -17 66t-39 57.5t-66.5 57t-74 51t-87.5 53.5q-91 54 -150.5 98t-109 96.5t-72 111t-22.5 128.5q0 79 30.5 145t78.5 107.5t101 66t105 31.5v248h172v-240q81 -7 165.5 -33.5t135.5 -56.5l-74 -158 q-16 9 -43 22.5t-100.5 36.5t-134.5 23q-111 0 -171.5 -53.5t-60.5 -134.5q0 -40 19.5 -77t61 -73.5t83 -64.5t107.5 -68q187 -111 276.5 -213.5t89.5 -226.5q0 -153 -99 -258t-255 -129v-264h-172v256q-98 7 -187 41.5t-145 72.5z" />
<glyph unicode="%" horiz-adv-x="1824" d="M143 1030q0 200 72.5 312t222.5 112q149 0 222 -112.5t73 -311.5q0 -198 -73 -311t-222 -113q-150 0 -222.5 112.5t-72.5 311.5zM289 1030q0 -295 149 -295q150 0 150 295q0 297 -150 297q-149 0 -149 -297zM436 0l783 1444h167l-782 -1444h-168zM1092 408q0 199 72 311 t222 112q149 0 222 -112.5t73 -310.5q0 -199 -73 -311.5t-222 -112.5q-150 0 -222 112t-72 312zM1237 408q0 -297 149 -297q150 0 150 297t-150 297q-149 0 -149 -297z" />
<glyph unicode="&#x26;" horiz-adv-x="1312" d="M72 397q0 61 17.5 117t42 95.5t65 80t70.5 64t75 55.5q-131 165 -131 332q0 53 21.5 107.5t61 102.5t106.5 78.5t149 30.5q77 0 138 -21t96 -53t58.5 -73t31.5 -76.5t8 -69.5q0 -67 -22 -125.5t-63.5 -107t-83 -83.5t-98.5 -73l318 -356q39 54 88 170l180 -51 q-27 -70 -66.5 -143.5t-70.5 -110.5l270 -287h-248l-143 150q-171 -166 -403 -166q-218 0 -342.5 110t-124.5 303zM274 397q0 -111 73 -175t179 -64q176 0 287 121l-354 393q-92 -64 -138.5 -127.5t-46.5 -147.5zM410 1141q0 -62 23 -115t67 -113q37 26 58 43.5t54.5 51 t50.5 73t17 82.5q0 47 -35 87t-96 40t-100 -48t-39 -101z" />
<glyph unicode="'" horiz-adv-x="360" d="M92 1444h176l-47 -510h-82z" />
<glyph unicode="(" horiz-adv-x="530" d="M82 725q0 140 27.5 277.5t67 233.5t79 172t66.5 114l28 37l119 -52q-78 -131 -133 -340t-55 -442t55 -442t133 -340l-119 -52q-11 14 -29 39.5t-64 110t-81.5 175.5t-64.5 230t-29 279z" />
<glyph unicode=")" horiz-adv-x="530" d="M61 -57q78 132 133.5 341t55.5 441t-55.5 441t-133.5 341l119 52q11 -14 29 -39.5t64.5 -110t82 -175.5t64.5 -230t29 -279q0 -102 -15 -203t-38.5 -181.5t-52.5 -153.5t-57.5 -125.5t-52 -92t-38.5 -59.5l-15 -19z" />
<glyph unicode="*" horiz-adv-x="946" d="M143 895l203 117l-203 116l60 109l209 -121v242h123v-242l208 121l60 -109l-207 -116l207 -117l-60 -109l-208 119v-239h-123v239l-207 -117z" />
<glyph unicode="+" horiz-adv-x="1024" d="M164 573v148h274v272h148v-272h274v-148h-274v-276h-148v276h-274z" />
<glyph unicode="," horiz-adv-x="460" d="M102 111q0 54 38 91.5t91 37.5q54 0 90.5 -37t36.5 -90q0 -36 -18 -72l-145 -315l-80 20l61 229q-29 19 -51.5 54t-22.5 82z" />
<glyph unicode="-" horiz-adv-x="839" d="M164 442v152h512v-152h-512z" />
<glyph unicode="." horiz-adv-x="460" d="M102 111q0 54 38 91.5t91 37.5t90 -37.5t37 -91.5q0 -53 -37 -90t-90 -37t-91 37.5t-38 89.5z" />
<glyph unicode="/" horiz-adv-x="915" d="M82 0l577 1444h175l-578 -1444h-174z" />
<glyph unicode="0" horiz-adv-x="1171" d="M102 721q0 361 120 550t364 189t363.5 -189t119.5 -550q0 -359 -119.5 -548t-363.5 -189t-364 189t-120 548zM301 721q0 -293 72 -428t213 -135t212.5 135t71.5 428q0 294 -71.5 429.5t-212.5 135.5q-142 0 -213.5 -135.5t-71.5 -429.5z" />
<glyph unicode="1" horiz-adv-x="880" d="M72 1288l331 156h170v-1268h256v-176h-727v176h277v1073l-252 -108z" />
<glyph unicode="2" horiz-adv-x="974" d="M61 0v176q0 45 11 89.5t25.5 80t45 77.5t53 69.5t66.5 70t68.5 64.5t75.5 67q74 66 116 107t81 90t55 94.5t16 97.5q0 84 -57 146.5t-179 62.5q-62 0 -129.5 -20t-104.5 -40l-36 -20l-74 156q170 92 348 92q215 0 325 -99t110 -278q0 -73 -25 -140.5t-75.5 -132.5 t-104.5 -118t-135 -121q-148 -126 -205.5 -211t-57.5 -184h609v-176h-822z" />
<glyph unicode="3" horiz-adv-x="960" d="M20 66l74 157q16 -8 44 -20t101.5 -32.5t131.5 -20.5q139 0 212.5 74.5t73.5 189.5q0 44 -15 84.5t-47 77t-91 58t-137 21.5h-174v170h147q150 0 231.5 67.5t81.5 184.5q0 100 -62.5 157.5t-193.5 57.5q-56 0 -122.5 -18t-104.5 -36l-39 -17l-72 155q25 16 62.5 32.5 t116 34t165.5 17.5q224 0 337.5 -98t113.5 -281q0 -117 -58 -207.5t-147 -132.5q98 -36 153.5 -127t55.5 -202q0 -91 -30 -167.5t-88 -135.5t-151.5 -92t-213.5 -33q-86 0 -168.5 17.5t-121 33.5t-65.5 31z" />
<glyph unicode="4" horiz-adv-x="1110" d="M41 367v129l590 948h233v-905h185v-172h-185v-367h-192v367h-631zM262 539h410v653z" />
<glyph unicode="5" horiz-adv-x="1015" d="M82 59l70 160q15 -8 41 -19.5t97 -30.5t130 -19q142 0 221.5 85.5t79.5 221.5q0 125 -84.5 202.5t-267.5 77.5h-219v707h720v-172h-528v-363h55q115 0 207.5 -27t151 -70.5t97.5 -103.5t55 -122t16 -129q0 -72 -17.5 -139t-56 -128t-95.5 -106.5t-142.5 -72.5t-190.5 -27 q-197 0 -340 75z" />
<glyph unicode="6" horiz-adv-x="1110" d="M92 477q0 66 19 141t44.5 139t73.5 145.5t83.5 136t98.5 137t94.5 122t94.5 115.5l25 31h235q-244 -285 -377 -488q41 15 84 15q88 0 163 -27t127 -73.5t89 -109.5t54.5 -135t17.5 -149q0 -60 -13 -122.5t-47 -130.5t-84 -120t-133 -86t-186 -34q-97 0 -176.5 28.5 t-132 76t-88 112t-51 133.5t-15.5 143zM293 477q0 -146 66 -236.5t196 -90.5q127 0 194.5 93t67.5 234q0 146 -83.5 238t-239.5 92q-28 0 -54.5 -7.5t-39.5 -14.5l-13 -7q-31 -41 -62.5 -126.5t-31.5 -174.5z" />
<glyph unicode="7" horiz-adv-x="937" d="M61 1272v172h826v-101l-527 -1343h-202l495 1272h-592z" />
<glyph unicode="8" horiz-adv-x="1093" d="M92 358q0 252 295 385q-250 127 -250 363q0 152 111.5 253t298.5 101t297 -101t110 -253q0 -65 -22 -122t-60.5 -99.5t-78.5 -72.5t-86 -54q137 -69 215.5 -162t78.5 -225q0 -172 -126 -279.5t-328 -107.5q-203 0 -329 101t-126 273zM289 369q0 -94 75 -156.5t183 -62.5 q107 0 182.5 62.5t75.5 156.5q0 89 -69.5 165.5t-198.5 127.5q-128 -55 -188 -124t-60 -169zM336 1104q0 -83 53 -142t166 -118q201 105 201 260q0 78 -56 135t-153 57t-154 -57.5t-57 -134.5z" />
<glyph unicode="9" horiz-adv-x="1110" d="M92 965q0 49 9.5 101t30 109t57.5 107t86 90.5t121 64t159 23.5q97 0 176.5 -29t132 -76.5t88 -112.5t51 -134t15.5 -143q0 -68 -20 -146t-47.5 -144.5t-78 -151t-88.5 -141t-103.5 -141.5t-98.5 -124.5t-97 -116.5h-233q245 290 375 485q-39 -12 -84 -12 q-110 0 -197.5 40.5t-142 109.5t-83 156.5t-28.5 185.5zM293 965q0 -146 85 -237t243 -91q24 0 49 7t38 13.5t15 8.5q32 45 63 128t31 171q0 146 -66 236.5t-196 90.5q-127 0 -194.5 -93t-67.5 -234z" />
<glyph unicode=":" horiz-adv-x="460" d="M102 111q0 54 38 91.5t91 37.5t90 -37.5t37 -91.5q0 -53 -37 -90t-90 -37t-91 37.5t-38 89.5zM102 721q0 54 38 91.5t91 37.5t90 -37.5t37 -91.5q0 -53 -37 -90t-90 -37t-91 37.5t-38 89.5z" />
<glyph unicode=";" horiz-adv-x="460" d="M102 111q0 54 38 91.5t91 37.5q54 0 90.5 -37t36.5 -90q0 -36 -18 -72l-145 -315l-80 20l61 229q-29 19 -51.5 54t-22.5 82zM102 721q0 54 38 91.5t91 37.5q54 0 90.5 -37.5t36.5 -91.5q0 -53 -36.5 -90t-90.5 -37q-53 0 -91 37.5t-38 89.5z" />
<glyph unicode="&#x3c;" horiz-adv-x="946" d="M164 606v82l618 399v-169l-413 -271l413 -270v-170z" />
<glyph unicode="=" horiz-adv-x="1024" d="M164 397v148h696v-148h-696zM164 745v148h696v-148h-696z" />
<glyph unicode="&#x3e;" horiz-adv-x="946" d="M164 207v170l414 270l-414 271v169l618 -399v-82z" />
<glyph unicode="?" horiz-adv-x="964" d="M90 1368q170 92 363 92q208 0 312.5 -93.5t104.5 -274.5q0 -59 -14 -108t-33.5 -81.5t-53 -63.5t-60.5 -48.5t-68 -40.5q-45 -25 -66 -37.5t-52 -35.5t-45 -43.5t-25 -51.5t-11 -68v-135h-194v141q0 59 14 107t33.5 79.5t54.5 61t60.5 45t68.5 37.5q45 24 71 41.5 t57 46.5t46 66.5t15 85.5q0 38 -10.5 71.5t-34.5 64.5t-70.5 49.5t-110.5 18.5q-62 0 -131.5 -20.5t-108.5 -41.5l-38 -20zM217 113q0 52 38 89.5t91 37.5q54 0 90.5 -37t36.5 -90t-37 -91t-90 -38q-52 0 -90.5 38t-38.5 91z" />
<glyph unicode="@" horiz-adv-x="1839" d="M123 461q0 192 67.5 354t183 271t271 170t330.5 61q180 0 323.5 -55t233 -149t137 -215t47.5 -257q0 -130 -40.5 -238.5t-107 -177.5t-147.5 -107t-164 -38q-60 0 -116 27t-82 77q-33 -38 -105 -71t-137 -33q-60 0 -112 19.5t-96 59t-69.5 108.5t-25.5 161 q0 133 35 234.5t94.5 160.5t131 88t153.5 29q99 0 178 -66l35 56h129l-70 -484q-10 -65 -10 -124q0 -54 19.5 -81.5t66.5 -27.5q109 0 194.5 119t85.5 299q0 105 -34.5 199.5t-102.5 171t-181.5 122t-258.5 45.5q-204 0 -363.5 -92.5t-246 -254t-86.5 -363.5 q0 -275 157.5 -433.5t415.5 -158.5q188 0 369 80l39 -133q-195 -90 -412 -90q-214 0 -378.5 86.5t-257.5 254.5t-93 396zM690 418q0 -92 39 -140.5t109 -48.5q115 0 188 66v24q0 70 10 142l39 282q-57 50 -135 50q-112 0 -181 -96.5t-69 -278.5z" />
<glyph unicode="A" horiz-adv-x="1163" d="M31 0l407 1444h287l408 -1444h-199l-96 338h-512l-97 -338h-198zM375 514h413l-206 739z" />
<glyph unicode="B" horiz-adv-x="1122" d="M133 0v1444h434q239 0 340 -90.5t101 -294.5q0 -110 -44 -187.5t-110 -115.5q96 -37 146.5 -117.5t50.5 -220.5q0 -224 -119 -321t-381 -97h-418zM326 172h215q178 0 246.5 51t68.5 195q0 136 -66 186.5t-227 50.5h-237v-483zM326 827h225q138 0 201 50t63 182 q0 121 -57.5 167t-204.5 46h-227v-445z" />
<glyph unicode="C" horiz-adv-x="1009" d="M92 721q0 382 127 560.5t410 178.5q101 0 188.5 -27.5t130.5 -54.5l-82 -157q-125 65 -237 65q-68 0 -120 -17.5t-94 -58t-69 -105.5t-41 -161t-14 -223q0 -209 39.5 -334.5t112 -177t186.5 -51.5q64 0 128 18t96 36l32 17l84 -157q-6 -4 -16.5 -9.5t-45.5 -21t-72.5 -27 t-93.5 -21t-112 -9.5q-283 0 -410 178t-127 559z" />
<glyph unicode="D" horiz-adv-x="1202" d="M133 0v1444h432q293 0 419 -170.5t126 -552.5q0 -381 -126 -551t-419 -170h-432zM326 176h245q70 0 121.5 15.5t94 53t69 99.5t41 156t14.5 221q0 160 -21 267t-66 168t-105 85.5t-148 24.5h-245v-1090z" />
<glyph unicode="E" d="M133 0v1444h744v-178h-551v-430h551v-177h-551v-483h565v-176h-758z" />
<glyph unicode="F" horiz-adv-x="958" d="M133 0v1444h733v-178h-540v-430h499v-177h-499v-659h-193z" />
<glyph unicode="G" horiz-adv-x="1146" d="M92 721q0 385 125.5 562t417.5 177q108 0 195 -28.5t137 -59.5l-84 -155q-18 12 -48 25.5t-87.5 28.5t-112.5 15q-117 0 -191 -51.5t-113.5 -177.5t-39.5 -336q0 -209 39.5 -334.5t113.5 -177t191 -51.5q100 0 207 55v467h192v-555q-61 -50 -168 -95.5t-229 -45.5 q-292 0 -418.5 177t-126.5 560z" />
<glyph unicode="H" horiz-adv-x="1208" d="M133 0v1444h193v-608h557v608h192v-1444h-192v659h-557v-659h-193z" />
<glyph unicode="I" horiz-adv-x="458" d="M133 0v1444h193v-1444h-193z" />
<glyph unicode="J" horiz-adv-x="747" d="M20 39l54 164q94 -45 180 -45q178 0 178 233v1053h193v-1075q0 -58 -11.5 -111.5t-38.5 -104t-67.5 -87.5t-103.5 -59.5t-142 -22.5q-56 0 -116.5 14t-93.5 28z" />
<glyph unicode="K" horiz-adv-x="1091" d="M133 0v1444h193v-668l501 668h217l-464 -623l501 -821h-213l-409 662l-133 -179v-483h-193z" />
<glyph unicode="L" horiz-adv-x="905" d="M133 0v1444h193v-1268h528v-176h-721z" />
<glyph unicode="M" horiz-adv-x="1347" d="M133 0v1444h186l355 -674l354 674h186v-1444h-192v1024l-328 -584h-41l-327 584v-1024h-193z" />
<glyph unicode="N" horiz-adv-x="1208" d="M133 0v1444h182l568 -1030v1030h192v-1444h-182l-567 1032v-1032h-193z" />
<glyph unicode="O" horiz-adv-x="1257" d="M92 721q0 379 125 559t412 180t411.5 -180t124.5 -559q0 -378 -124.5 -557.5t-411.5 -179.5t-412 179.5t-125 557.5zM291 721q0 -304 80 -433.5t258 -129.5t258 129.5t80 433.5q0 306 -80 435.5t-258 129.5t-258 -129.5t-80 -435.5z" />
<glyph unicode="P" horiz-adv-x="1130" d="M133 0v1444h420q266 0 381 -105.5t115 -353.5t-118.5 -352.5t-377.5 -104.5h-227v-528h-193zM326 702h225q171 0 237 59.5t66 223.5q0 166 -64.5 225.5t-238.5 59.5h-225v-568z" />
<glyph unicode="Q" horiz-adv-x="1257" d="M92 719q0 379 125 560t412 181t411.5 -180.5t124.5 -560.5q0 -343 -102.5 -521t-333.5 -208q8 -91 50 -142t118 -51q36 0 81 10.5t72 20.5l27 10l51 -157q-13 -6 -35.5 -15.5t-85 -25t-118.5 -15.5q-94 0 -165.5 31.5t-112.5 85t-62 116.5t-23 134q-230 30 -332 206.5 t-102 520.5zM291 719q0 -206 36.5 -329.5t109.5 -177.5t192 -54t192 54t109.5 177.5t36.5 329.5t-36.5 331t-109.5 180.5t-192 55.5t-192 -55.5t-109.5 -180.5t-36.5 -331z" />
<glyph unicode="R" horiz-adv-x="1124" d="M133 0v1444h420q253 0 373.5 -98t120.5 -334q0 -99 -22 -174t-64.5 -124.5t-98.5 -79.5t-129 -44l320 -590h-213l-310 573h-204v-573h-193zM326 750h221q83 0 136 10.5t93.5 39t58 80t17.5 132.5q0 145 -68 201.5t-231 56.5h-227v-520z" />
<glyph unicode="S" horiz-adv-x="980" d="M61 100l78 156q164 -102 305 -102q137 0 205 66t68 161q0 24 -9 48t-21 43t-37 42t-43.5 38.5t-55 39.5t-56.5 36t-63 38q-91 55 -150 98.5t-108.5 96.5t-72.5 112.5t-23 130.5q0 154 114.5 255t303.5 101q209 0 370 -92l-73 -158q-16 9 -43.5 22.5t-101 36.5t-134.5 23 q-111 0 -171 -52t-60 -134q0 -40 19.5 -77.5t60.5 -74t83 -65.5t107 -68q188 -111 277.5 -213.5t89.5 -226.5q0 -172 -127 -284.5t-349 -112.5q-114 0 -215 36t-168 80z" />
<glyph unicode="T" horiz-adv-x="987" d="M31 1266v178h925v-178h-366v-1266h-193v1266h-366z" />
<glyph unicode="U" horiz-adv-x="1204" d="M123 528v916h192v-864q0 -106 8 -175t26 -119.5t52.5 -77t81.5 -38.5t119 -12q71 0 118 12t81 38.5t52 77t26 119.5t8 175v864h194v-916q0 -155 -29 -260.5t-90.5 -168t-148 -89t-211.5 -26.5t-211.5 26.5t-148 89t-90.5 168t-29 260.5z" />
<glyph unicode="V" horiz-adv-x="1142" d="M20 1444h199l352 -1247l353 1247h198l-407 -1444h-287z" />
<glyph unicode="W" horiz-adv-x="1699" d="M31 1444h200l261 -1159l272 1159h172l272 -1159l260 1159h201l-342 -1444h-221l-256 1083l-256 -1083h-221z" />
<glyph unicode="X" horiz-adv-x="1097" d="M31 0l411 741l-391 703h209l293 -529l293 529h211l-400 -711l410 -733h-211l-307 555l-309 -555h-209z" />
<glyph unicode="Y" horiz-adv-x="1028" d="M10 1444h207l297 -629l297 629h207l-408 -823v-621h-192v621z" />
<glyph unicode="Z" horiz-adv-x="1052" d="M51 0v176l713 1090h-672v178h899v-178l-712 -1090h704v-176h-932z" />
<glyph unicode="[" horiz-adv-x="706" d="M164 -143v1679h469v-174h-277v-1331h279v-174h-471z" />
<glyph unicode="\" horiz-adv-x="915" d="M82 1444h174l578 -1444h-175z" />
<glyph unicode="]" horiz-adv-x="706" d="M72 31h276v1331h-276v174h471v-1679h-471v174z" />
<glyph unicode="^" horiz-adv-x="1021" d="M164 768l258 412h176l260 -412l-129 -74l-219 334l-219 -334z" />
<glyph unicode="_" horiz-adv-x="1044" d="M102 -82h840v-160h-840v160z" />
<glyph unicode="`" horiz-adv-x="503" d="M102 1526h209l90 -348h-131z" />
<glyph unicode="a" horiz-adv-x="937" d="M72 295q0 65 23.5 121t73 104t136.5 75.5t203 27.5h131v104q0 164 -172 164q-60 0 -127.5 -13.5t-105.5 -26.5l-37 -13l-41 137q15 7 42 18t111 29t168 18q174 0 261 -77t87 -238v-725h-149l-27 82q-132 -98 -274 -98q-98 0 -168.5 44.5t-102.5 113.5t-32 153zM264 303 q0 -77 46 -124.5t116 -47.5q62 0 118.5 26.5t94.5 61.5v262h-129q-117 0 -181.5 -50.5t-64.5 -127.5z" />
<glyph unicode="b" horiz-adv-x="1017" d="M123 23v1421h186v-428q74 24 187 24q203 0 321.5 -132.5t118.5 -393.5q0 -530 -481 -530q-75 0 -158 9.5t-129 19.5zM309 152q72 -17 144 -17q295 0 295 379q0 179 -68 278t-205 99q-43 0 -84.5 -6.5t-61.5 -13.5l-20 -7v-712z" />
<glyph unicode="c" horiz-adv-x="790" d="M82 512q0 272 105.5 400t316.5 128q63 0 124.5 -17.5t100.5 -41.5l-65 -137q-70 39 -160 39q-135 0 -185.5 -91.5t-50.5 -279.5q0 -74 6 -128t21 -102t41.5 -77.5t68 -46.5t99.5 -17q42 0 83.5 9.5t62.5 19.5l20 10l55 -143q-109 -53 -223 -53q-213 0 -316.5 127 t-103.5 401z" />
<glyph unicode="d" horiz-adv-x="1017" d="M82 512q0 260 118 394t324 134q44 0 90 -6t70 -12l23 -6v428h188v-1444h-152l-26 90q-37 -39 -101 -72.5t-147 -33.5q-180 0 -283.5 134t-103.5 394zM268 512q0 -179 60 -278t184 -99q63 0 114.5 32.5t80.5 76.5v620q-76 27 -162 27q-130 0 -203.5 -93t-73.5 -286z" />
<glyph unicode="e" horiz-adv-x="944" d="M82 514q0 526 399 526q110 0 184.5 -35.5t117.5 -110.5t61 -177.5t18 -251.5h-592q6 -160 61 -242t177 -82q64 0 126 14t92 28l30 14l61 -140q-143 -73 -309 -73q-211 0 -318.5 129t-107.5 401zM270 604h408q-3 143 -49.5 215t-149.5 72t-151 -73t-58 -214z" />
<glyph unicode="f" horiz-adv-x="638" d="M51 866v158h123v80q0 69 18 129.5t56 113t105.5 83t158.5 30.5q69 0 137 -22l-37 -150q-62 15 -94 15q-158 0 -158 -224v-55h213v-158h-213v-866h-186v866h-123z" />
<glyph unicode="g" horiz-adv-x="1017" d="M82 512q0 528 493 528q135 0 320 -30v-1055q0 -72 -20 -133.5t-62 -112t-115.5 -79.5t-171.5 -29q-70 0 -141.5 10.5t-108.5 20.5l-36 10l32 149q119 -37 246 -37q189 0 189 232v82q-37 -36 -96.5 -60t-129.5 -24q-194 0 -296.5 138t-102.5 390zM268 512q0 -377 250 -377 q67 0 121 27.5t68 56.5v658q-72 14 -146 14q-146 0 -219.5 -99t-73.5 -280z" />
<glyph unicode="h" horiz-adv-x="1026" d="M123 0v1444h186v-512q155 108 309 108q86 0 145 -23t91 -69t45.5 -103.5t13.5 -137.5v-707h-186v696q0 104 -38 150.5t-126 46.5q-77 0 -146.5 -34.5t-107.5 -67.5v-791h-186z" />
<glyph unicode="i" horiz-adv-x="450" d="M113 1313q0 47 33 79.5t79 32.5t79.5 -32.5t33.5 -79.5q0 -46 -33.5 -79.5t-79.5 -33.5t-79 33.5t-33 79.5zM131 0v1024h186v-1024h-186z" />
<glyph unicode="j" horiz-adv-x="487" d="M-154 -367l48 148q61 -23 118 -23q87 0 121.5 60t34.5 164v1042h186v-1067q0 -69 -18 -129.5t-55.5 -113t-104.5 -83t-156 -30.5q-28 0 -60 4.5t-51.5 9.5t-40.5 11zM150 1313q0 47 33 79.5t79 32.5t79.5 -32.5t33.5 -79.5q0 -46 -33.5 -79.5t-79.5 -33.5t-79 33.5 t-33 79.5z" />
<glyph unicode="k" horiz-adv-x="903" d="M123 0v1444h186v-869l330 449h201l-334 -453l397 -571h-205l-299 428l-90 -121v-307h-186z" />
<glyph unicode="l" horiz-adv-x="563" d="M113 344v1100h186v-1077q0 -114 35.5 -170t116.5 -56q20 0 65 9l37 -152q-58 -14 -109 -14q-165 0 -248 98t-83 262z" />
<glyph unicode="m" horiz-adv-x="1591" d="M123 0v1024h137l43 -98q142 114 297 114q199 0 260 -135q159 135 324 135q86 0 145 -23t91 -69t45.5 -103.5t13.5 -137.5v-707h-189v696q0 104 -37 150.5t-125 46.5q-110 0 -239 -105q4 -24 4 -94v-694h-186v700q0 103 -37.5 148t-122.5 45q-121 0 -238 -102v-791h-186z " />
<glyph unicode="n" horiz-adv-x="1028" d="M123 0v1024h137l43 -98q63 47 148 80.5t167 33.5q86 0 145.5 -23t92 -69t46 -103.5t13.5 -137.5v-707h-186v696q0 104 -38.5 150.5t-127.5 46.5q-77 0 -146.5 -34.5t-107.5 -67.5v-791h-186z" />
<glyph unicode="o" d="M82 512q0 273 105 400.5t315 127.5t315 -127.5t105 -400.5q0 -272 -105.5 -400t-314.5 -128t-314.5 128t-105.5 400zM268 512q0 -187 50.5 -279t183.5 -92q69 0 115 24.5t71 75.5t35 115t10 156q0 189 -49 280t-182 91q-69 0 -115.5 -24.5t-72 -74.5t-36 -115t-10.5 -157 z" />
<glyph unicode="p" horiz-adv-x="1017" d="M123 -369v1393h137l39 -84q112 100 242 100q184 0 289.5 -134t105.5 -394q0 -120 -26.5 -213t-70 -151.5t-104.5 -96t-125.5 -52.5t-138.5 -15q-30 0 -70.5 4.5t-66.5 9.5l-25 4v-371h-186zM309 158q70 -23 162 -23q134 0 205.5 94.5t71.5 282.5q0 379 -248 379 q-61 0 -113 -34t-78 -75v-624z" />
<glyph unicode="q" horiz-adv-x="1017" d="M82 512q0 528 493 528q65 0 145 -7.5t128 -14.5l47 -8v-1379h-188v426q-3 -3 -10 -8t-29.5 -17.5t-47 -22t-63.5 -17.5t-80 -8q-185 0 -290 133.5t-105 394.5zM268 512q0 -377 250 -377q51 0 98.5 16t69.5 32l21 16v678q-66 14 -136 14q-303 0 -303 -379z" />
<glyph unicode="r" horiz-adv-x="622" d="M123 0v1024h137l43 -96q97 112 246 112q15 0 63 -6l-37 -166q-40 9 -69 9q-43 0 -81 -12.5t-61.5 -31t-36 -31t-18.5 -22.5v-780h-186z" />
<glyph unicode="s" horiz-adv-x="768" d="M51 84l80 129q11 -9 30.5 -21.5t75.5 -33.5t107 -21q91 0 133.5 44t42.5 106q0 39 -39.5 77.5t-144.5 94.5q-141 75 -200.5 149t-59.5 158q0 125 93.5 199.5t221.5 74.5q79 0 152.5 -20t106.5 -40l34 -19l-72 -136q-13 7 -34.5 17t-77 26.5t-99.5 16.5 q-64 0 -100.5 -29.5t-36.5 -85.5q0 -48 42.5 -86.5t133.5 -87.5q149 -81 208 -150t59 -159q0 -130 -100.5 -216.5t-248.5 -86.5q-80 0 -157.5 26t-109 45.5t-40.5 28.5z" />
<glyph unicode="t" horiz-adv-x="679" d="M41 866v158h123v272h186v-272h234v-158h-234v-499q0 -113 35.5 -169.5t116.5 -56.5q18 0 41.5 4.5t41 9.5t19.5 5l45 -146q-1 0 -18 -5.5t-36 -10.5t-47 -9.5t-52 -4.5q-165 0 -248.5 98t-83.5 262v522h-123z" />
<glyph unicode="u" horiz-adv-x="1024" d="M113 317v707h186v-694q0 -105 38.5 -152t127.5 -47q76 0 145 35.5t105 69.5v788h186v-1024h-149l-29 98q-63 -47 -146 -80.5t-165 -33.5q-86 0 -145.5 23t-92.5 68.5t-47 103.5t-14 138z" />
<glyph unicode="v" horiz-adv-x="892" d="M10 1024h195l241 -836l242 836h195l-318 -1024h-237z" />
<glyph unicode="w" horiz-adv-x="1460" d="M10 1024h193l205 -836l231 836h184l232 -836l205 836h190l-281 -1024h-229l-209 739l-209 -739h-231z" />
<glyph unicode="x" horiz-adv-x="903" d="M10 0l340 532l-315 492h201l217 -346l221 346h198l-319 -496l340 -528h-201l-241 377l-240 -377h-201z" />
<glyph unicode="y" horiz-adv-x="892" d="M10 1024h195l241 -836l242 836h195l-369 -1184q-33 -106 -104.5 -172.5t-188.5 -66.5q-98 0 -178 37l45 141q56 -23 115 -23q29 0 52.5 9.5t39 23.5t29.5 38t22 43.5t19 49.5l26 80h-63z" />
<glyph unicode="z" horiz-adv-x="827" d="M72 0v168l479 688h-461v168h666v-168l-473 -688h465v-168h-676z" />
<glyph unicode="{" horiz-adv-x="688" d="M82 625v149q45 0 71 5t49.5 21.5t33.5 52t10 93.5v258q0 86 15.5 145t53.5 102.5t103.5 64t163.5 20.5h45v-150h-31q-37 0 -59.5 -2.5t-43.5 -13t-31 -28.5t-18.5 -51.5t-11 -78.5t-2.5 -114v-146q0 -191 -82 -254q82 -60 82 -252v-149q0 -105 6 -161t27.5 -86.5t49 -37 t85.5 -6.5h29v-149h-47q-85 0 -143.5 14.5t-103.5 51t-66 102t-21 163.5v234q0 56 -7 93.5t-18.5 59t-34 33t-45 14.5t-59.5 3z" />
<glyph unicode="|" horiz-adv-x="565" d="M195 -369v1813h176v-1813h-176z" />
<glyph unicode="}" horiz-adv-x="688" d="M61 6h29q58 0 85.5 6.5t49 37t27.5 86.5t6 161v149q0 192 82 252q-82 63 -82 254v146q0 69 -2.5 114t-11 78.5t-18.5 51.5t-31 28.5t-43.5 13t-59.5 2.5h-31v150h45q98 0 163.5 -20.5t103.5 -64t53.5 -102.5t15.5 -145v-258q0 -58 10 -93.5t33.5 -52t49.5 -21.5t71 -5 v-149q-37 0 -59.5 -3t-45 -14.5t-34 -33t-18.5 -59t-7 -93.5v-234q0 -98 -21 -163.5t-65.5 -102t-103 -51t-143.5 -14.5h-48v149z" />
<glyph unicode="~" horiz-adv-x="1165" d="M164 829q8 35 23.5 68t42.5 66.5t70.5 54t98.5 20.5q57 0 128.5 -30t135.5 -60t103 -30q51 0 78 36.5t37 83.5l120 -39q-8 -35 -23.5 -68t-42.5 -66t-70.5 -53.5t-98.5 -20.5q-56 0 -128 30t-137 60t-102 30q-87 0 -114 -120z" />
<glyph unicode="&#xa1;" horiz-adv-x="542" d="M143 963q0 53 38.5 91t90.5 38t89.5 -38t37.5 -91t-37.5 -90t-89.5 -37q-53 0 -91 37.5t-38 89.5zM176 135l33 561h127l33 -561v-504h-193v504z" />
<glyph unicode="&#xa2;" horiz-adv-x="851" d="M102 514q0 225 72.5 350t214.5 162v268h178v-254q109 -12 183 -57l-66 -137q-2 1 -13 5.5t-19.5 8t-24.5 9t-30.5 8.5t-34 5.5t-38.5 2.5q-70 0 -116.5 -24.5t-72.5 -75t-36 -115t-10 -156.5q0 -74 5.5 -128.5t21 -103t41.5 -78t67.5 -46.5t99.5 -17q42 0 83.5 9.5 t62.5 19.5l20 10l55 -143q-80 -41 -178 -51v-254h-178v268q-287 69 -287 514z" />
<glyph unicode="&#xa3;" horiz-adv-x="1130" d="M143 0v176h301q0 185 -92 389h-209v160h131q-57 106 -84.5 190.5t-27.5 180.5q0 167 121 265.5t331 98.5q86 0 172.5 -24t130.5 -48l44 -24l-72 -158q-16 10 -44 24t-103 38t-136 24q-122 0 -181.5 -60t-59.5 -151q0 -25 3 -50.5t10.5 -53t13.5 -47t18.5 -50t18.5 -44 t21.5 -46.5t18.5 -40l12 -25h424v-160h-356q44 -101 67 -206t23 -183h389v-176h-885z" />
<glyph unicode="&#xa4;" horiz-adv-x="1343" d="M164 285l176 178q-64 95 -64 211q0 114 64 209l-176 180l127 115l168 -174q99 63 215 63q115 0 207 -61l172 172l127 -115l-176 -176q63 -99 63 -213q0 -115 -66 -213l179 -174l-127 -115l-172 168q-89 -59 -207 -59q-121 0 -213 61l-170 -172zM471 676 q0 -92 57.5 -153.5t145.5 -61.5q86 0 141 61t55 154q0 89 -55 150t-141 61q-90 0 -146.5 -62.5t-56.5 -148.5z" />
<glyph unicode="&#xa5;" horiz-adv-x="1212" d="M102 1444h207l297 -629l297 629h207l-356 -719h250v-147h-302v-136h302v-147h-302v-295h-192v295h-305v147h305v136h-305v147h254z" />
<glyph unicode="&#xa6;" horiz-adv-x="565" d="M195 -369v738h176v-738h-176zM195 696v748h176v-748h-176z" />
<glyph unicode="&#xa7;" horiz-adv-x="1001" d="M164 723q0 87 46 149t112 97q-64 51 -91.5 102.5t-27.5 120.5q0 110 88 189t237 79q70 0 134.5 -17t93.5 -35l30 -17l-65 -134q-97 50 -189 50q-68 0 -104.5 -29.5t-36.5 -79.5q0 -52 39.5 -88.5t128.5 -79.5q152 -75 215.5 -145t63.5 -164q0 -86 -45 -149t-115 -97 q64 -51 91.5 -103t27.5 -122q0 -114 -90.5 -192t-231.5 -78q-70 0 -135 16.5t-95 33.5l-30 17l66 135q10 -6 27.5 -14.5t67 -22.5t93.5 -14q66 0 102.5 31t36.5 82q0 52 -38.5 88.5t-127.5 79.5q-155 76 -216.5 143.5t-61.5 167.5zM352 727q0 -40 34 -75t118 -79 q67 6 106 46t39 100q0 40 -33.5 73.5t-117.5 77.5q-75 -7 -110.5 -49t-35.5 -94z" />
<glyph unicode="&#xa8;" horiz-adv-x="772" d="M102 1313q0 42 32 73t75 31q44 0 75 -30.5t31 -73.5q0 -44 -31 -75.5t-75 -31.5q-43 0 -75 31.5t-32 75.5zM459 1313q0 43 31 73.5t75 30.5q43 0 74 -30.5t31 -73.5q0 -44 -31 -75.5t-74 -31.5q-44 0 -75 31.5t-31 75.5z" />
<glyph unicode="&#xa9;" horiz-adv-x="1759" d="M143 721q0 150 58.5 287t157 236t234.5 157.5t286 58.5t286.5 -58.5t235.5 -157.5t157 -236t58 -287q0 -200 -98.5 -369.5t-268 -268.5t-370.5 -99q-150 0 -286 58.5t-234.5 157.5t-157 235t-58.5 286zM246 721q0 -170 85.5 -319t231.5 -237.5t316 -88.5 q128 0 245.5 52.5t202.5 140t135.5 206t50.5 246.5t-50.5 247.5t-135.5 207t-202.5 140t-245.5 52.5q-170 0 -316 -88.5t-231.5 -238t-85.5 -320.5zM547 719q0 244 84.5 355.5t269.5 111.5q110 0 201 -51l-55 -119q-19 12 -59.5 24.5t-86.5 12.5q-72 0 -114.5 -27.5 t-65.5 -101.5t-23 -205q0 -130 23 -203.5t65.5 -101t114.5 -27.5q40 0 79.5 10.5t59.5 20.5l19 10l57 -117q-10 -6 -28.5 -15.5t-74.5 -25.5t-112 -16q-185 0 -269.5 111t-84.5 354z" />
<glyph unicode="&#xaa;" horiz-adv-x="733" d="M82 936q0 44 17 83t52.5 73t100 53.5t151.5 19.5h82v66q0 117 -123 117q-43 0 -90 -9t-72 -19l-26 -9l-29 100q10 5 29.5 13.5t78 22t116.5 13.5q123 0 187.5 -56t64.5 -165v-512h-113l-16 55q-84 -65 -193 -65q-103 0 -160 64t-57 155zM213 942q0 -54 32.5 -84.5 t86.5 -30.5q91 0 153 58v178h-88q-89 0 -136.5 -33t-47.5 -88z" />
<glyph unicode="&#xab;" horiz-adv-x="1017" d="M143 487v56l273 395l112 -64l-217 -358l217 -358l-112 -66zM532 487v56l271 395l112 -64l-217 -358l217 -358l-112 -66z" />
<glyph unicode="&#xac;" horiz-adv-x="1146" d="M164 745v148h819v-361h-186v213h-633z" />
<glyph unicode="&#xad;" horiz-adv-x="839" d="M164 442v152h512v-152h-512z" />
<glyph unicode="&#xae;" horiz-adv-x="1314" d="M143 946q0 139 69 257.5t187.5 187.5t257.5 69q140 0 258.5 -69t187 -187.5t68.5 -257.5t-68.5 -257.5t-187 -187.5t-258.5 -69q-139 0 -257.5 69t-187.5 187.5t-69 257.5zM236 946q0 -115 56.5 -214.5t154 -158.5t210.5 -59t210.5 59t154.5 158.5t57 214.5t-57 214.5 t-154.5 158.5t-210.5 59t-210.5 -59t-154 -158.5t-56.5 -214.5zM465 647v600h194q116 0 170 -44t54 -140q0 -156 -131 -184l131 -232h-121l-123 223h-59v-223h-115zM580 973h75q60 0 85.5 18.5t25.5 69.5q0 50 -25 67t-86 17h-75v-172z" />
<glyph unicode="&#xaf;" horiz-adv-x="716" d="M102 1249v123h512v-123h-512z" />
<glyph unicode="&#xb0;" horiz-adv-x="581" d="M82 1245q0 86 61 145.5t148 59.5t148 -59.5t61 -145.5t-61.5 -147.5t-147.5 -61.5t-147.5 61.5t-61.5 147.5zM199 1245q0 -43 26 -71.5t66 -28.5t66 28.5t26 71.5q0 40 -28 68t-64 28q-38 0 -65 -28.5t-27 -67.5z" />
<glyph unicode="&#xb1;" horiz-adv-x="1024" d="M164 180v148h696v-148h-696zM164 776v148h274v274h148v-274h274v-148h-274v-274h-148v274h-274z" />
<glyph unicode="&#xb2;" horiz-adv-x="636" d="M61 737v117q0 40 15 79t45.5 76t57 63t67.5 61q86 77 123 124.5t37 98.5q0 45 -30 74.5t-91 29.5q-32 0 -71.5 -12t-63.5 -24l-23 -11l-49 111q108 59 231 59q117 0 181.5 -55t64.5 -156q0 -81 -42.5 -146.5t-141.5 -152.5q-81 -70 -117.5 -117.5t-36.5 -89.5h338v-129 h-494z" />
<glyph unicode="&#xb3;" horiz-adv-x="632" d="M41 776l53 109q80 -43 154 -43q66 0 105.5 37.5t39.5 99.5q0 56 -36.5 89.5t-104.5 33.5h-111v123h99q71 0 112 34.5t41 92.5q0 49 -30.5 78.5t-92.5 29.5q-36 0 -74.5 -11t-59.5 -21l-21 -11l-52 111q34 21 91 38t120 17q267 0 267 -229q0 -57 -30.5 -109t-80.5 -80 q46 -20 78.5 -71.5t32.5 -116.5q0 -114 -75 -185t-216 -71q-60 0 -118.5 18t-90.5 37z" />
<glyph unicode="&#xb4;" horiz-adv-x="503" d="M102 1178l91 348h208l-168 -348h-131z" />
<glyph unicode="&#xb5;" horiz-adv-x="1116" d="M164 -369v1393h186v-733q0 -70 47 -115t125 -45q75 0 141 35t103 70v788h186v-1024h-149l-29 98q-55 -53 -115 -83.5t-149 -30.5q-53 0 -96.5 20t-63.5 45v-418h-186z" />
<glyph unicode="&#xb6;" horiz-adv-x="1409" d="M164 997q0 95 29.5 175.5t87.5 141.5t151 95.5t213 34.5h600v-1813h-188v1622h-195v-1622h-188v914q-255 4 -382.5 121.5t-127.5 330.5z" />
<glyph unicode="&#xb7;" horiz-adv-x="583" d="M164 516q0 54 38 91.5t91 37.5t90 -37.5t37 -91.5q0 -52 -37 -89.5t-90 -37.5t-91 37.5t-38 89.5z" />
<glyph unicode="&#xb8;" horiz-adv-x="610" d="M102 -371l25 76q79 -20 149 -20q52 0 77.5 22.5t25.5 56.5q0 32 -19 49t-53 17q-24 0 -52 -3.5t-44 -6.5l-16 -4l-19 45l90 159h88l-47 -110q8 2 43 2q62 0 110 -39.5t48 -108.5q0 -71 -62.5 -117t-171.5 -46q-41 0 -84 7t-66 14z" />
<glyph unicode="&#xb9;" horiz-adv-x="555" d="M61 1477l191 90h127v-701h145v-129h-444v129h158v559l-138 -55z" />
<glyph unicode="&#xba;" horiz-adv-x="790" d="M92 1087q0 193 77 283t226 90q303 0 303 -373q0 -370 -303 -370q-149 0 -226 89t-77 281zM236 1087q0 -129 33 -192.5t126 -63.5q92 0 126 64t34 192q0 130 -34 194.5t-126 64.5q-93 0 -126 -64t-33 -195z" />
<glyph unicode="&#xbb;" horiz-adv-x="1017" d="M102 158l217 358l-217 358l113 64l270 -395v-56l-270 -395zM489 158l218 358l-218 358l113 64l272 -395v-56l-272 -395z" />
<glyph unicode="&#xbc;" horiz-adv-x="1804" d="M164 1477l190 90h127v-701h146v-129h-445v129h158v559l-137 -55zM434 0l783 1444h174l-783 -1444h-174zM1038 -2v98l308 529h188v-500h106v-127h-106v-203h-139v203h-357zM1192 125h203v348z" />
<glyph unicode="&#xbd;" horiz-adv-x="1826" d="M164 1477l190 90h127v-701h146v-129h-445v129h158v559l-137 -55zM434 0l783 1444h174l-783 -1444h-174zM1169 -88q0 40 15 78.5t46 75.5t57 62.5t67 61.5q84 76 121.5 124.5t37.5 99.5q0 45 -29.5 74.5t-90.5 29.5q-32 0 -71.5 -12t-63.5 -24l-23 -11l-49 111 q108 59 231 59q117 0 181.5 -55t64.5 -156q0 -81 -42.5 -146.5t-141.5 -152.5q-81 -70 -117.5 -117.5t-36.5 -89.5h338v-129h-494v117z" />
<glyph unicode="&#xbe;" horiz-adv-x="1810" d="M164 776l53 109q80 -43 154 -43q66 0 105.5 37.5t39.5 99.5q0 56 -36.5 89.5t-104.5 33.5h-111v123h98q71 0 112.5 34.5t41.5 92.5q0 49 -30.5 78.5t-92.5 29.5q-36 0 -74.5 -11t-59.5 -21l-21 -11l-52 111q34 21 91 38t120 17q267 0 267 -229q0 -57 -30.5 -109 t-80.5 -80q46 -20 78.5 -71.5t32.5 -116.5q0 -114 -75 -185t-216 -71q-60 0 -118.5 18t-90.5 37zM440 0l783 1444h174l-783 -1444h-174zM1044 -2v98l308 529h188v-500h107v-127h-107v-203h-139v203h-357zM1198 125h203v348z" />
<glyph unicode="&#xbf;" horiz-adv-x="964" d="M92 -16q0 59 14 108t33.5 81.5t53.5 63.5t61 48.5t68 40.5q45 25 66 37t52 35.5t44.5 43.5t24.5 51t11 68v135h195v-141q0 -59 -14.5 -107t-33.5 -79.5t-54.5 -61t-61 -45t-68.5 -37.5q-35 -19 -56.5 -32t-49.5 -35.5t-43.5 -45t-27 -55.5t-11.5 -71t10.5 -71.5t34 -65 t70 -50t110.5 -18.5q62 0 131.5 20.5t108.5 40.5l39 21l73 -156q-170 -92 -362 -92q-208 0 -313 94t-105 275zM489 963q0 53 37 91t90 38q52 0 90.5 -38t38.5 -91q0 -52 -38 -89.5t-91 -37.5q-54 0 -90.5 37t-36.5 90z" />
<glyph unicode="&#xc0;" horiz-adv-x="1163" d="M31 0l407 1444h287l408 -1444h-199l-96 338h-512l-97 -338h-198zM289 1946h209l147 -369h-131zM375 514h413l-206 739z" />
<glyph unicode="&#xc1;" horiz-adv-x="1163" d="M31 0l407 1444h287l408 -1444h-199l-96 338h-512l-97 -338h-198zM375 514h413l-206 739zM504 1577l147 369h209l-225 -369h-131z" />
<glyph unicode="&#xc2;" horiz-adv-x="1163" d="M31 0l407 1444h287l408 -1444h-199l-96 338h-512l-97 -338h-198zM254 1577l231 313h191l231 -313h-141l-186 195l-185 -195h-141zM375 514h413l-206 739z" />
<glyph unicode="&#xc3;" horiz-adv-x="1163" d="M31 0l407 1444h287l408 -1444h-199l-96 338h-512l-97 -338h-198zM205 1661q15 67 75 127.5t154 60.5q52 0 110 -30t106.5 -60t78.5 -30q39 0 63 31t31 61l138 -49q-7 -29 -24 -60t-44.5 -61t-70.5 -49t-93 -19q-41 0 -85.5 19t-76.5 41.5t-69 41.5t-64 19q-36 0 -60 -30 t-32 -62zM375 514h413l-206 739z" />
<glyph unicode="&#xc4;" horiz-adv-x="1163" d="M31 0l407 1444h287l408 -1444h-199l-96 338h-512l-97 -338h-198zM287 1710q0 47 33 80t79 33t79.5 -33t33.5 -80q0 -46 -33.5 -79.5t-79.5 -33.5t-79 33.5t-33 79.5zM375 514h413l-206 739zM653 1710q0 47 33.5 80t79.5 33t79.5 -33t33.5 -80q0 -46 -33.5 -79.5 t-79.5 -33.5t-79.5 33.5t-33.5 79.5z" />
<glyph unicode="&#xc5;" horiz-adv-x="1163" d="M31 0l407 1444h287l408 -1444h-199l-96 338h-512l-97 -338h-198zM375 514h413l-206 739zM401 1755q0 73 53.5 124.5t127.5 51.5t126 -51.5t52 -124.5q0 -75 -52 -126.5t-126 -51.5t-127.5 52t-53.5 126zM520 1755q0 -29 18 -47t44 -18q25 0 43 18t18 47q0 27 -18 44.5 t-43 17.5q-27 0 -44.5 -18.5t-17.5 -43.5z" />
<glyph unicode="&#xc6;" horiz-adv-x="1734" d="M20 0l760 1444h828v-178h-529v-430h529v-177h-529v-483h543v-176h-735v391h-447l-204 -391h-216zM535 567h352v674z" />
<glyph unicode="&#xc7;" horiz-adv-x="1009" d="M92 721q0 382 127 560.5t410 178.5q101 0 188.5 -27.5t130.5 -54.5l-82 -157q-125 65 -237 65q-68 0 -120 -17.5t-94 -58t-69 -105.5t-41 -161t-14 -223q0 -209 39.5 -334.5t112 -177t186.5 -51.5q64 0 128 18t96 36l32 17l84 -157q-6 -4 -16.5 -9.5t-45.5 -21t-72.5 -27 t-93.5 -21t-112 -9.5h-27l-31 -72q8 2 41 2q70 0 118 -39t48 -106q0 -76 -66.5 -122t-183.5 -46q-44 0 -89 7t-68 14l-23 7l31 80l12 2q72 -22 133 -22q52 0 80.5 21.5t28.5 58.5q0 28 -21 44.5t-55 16.5q-21 0 -47.5 -3.5t-42.5 -6.5l-16 -4l-25 45l84 133 q-219 33 -318.5 210.5t-99.5 516.5z" />
<glyph unicode="&#xc8;" d="M133 0v1444h744v-178h-551v-430h551v-177h-551v-483h565v-176h-758zM248 1946h209l147 -369h-131z" />
<glyph unicode="&#xc9;" d="M133 0v1444h744v-178h-551v-430h551v-177h-551v-483h565v-176h-758zM418 1577l147 369h209l-225 -369h-131z" />
<glyph unicode="&#xca;" d="M133 0v1444h744v-178h-551v-430h551v-177h-551v-483h565v-176h-758zM195 1577l231 313h190l232 -313h-141l-187 195l-184 -195h-141z" />
<glyph unicode="&#xcb;" d="M133 0v1444h744v-178h-551v-430h551v-177h-551v-483h565v-176h-758zM205 1710q0 47 33 80t79 33t79.5 -33t33.5 -80q0 -46 -33.5 -79.5t-79.5 -33.5t-79 33.5t-33 79.5zM571 1710q0 47 33.5 80t79.5 33t79.5 -33t33.5 -80q0 -46 -33.5 -79.5t-79.5 -33.5t-79.5 33.5 t-33.5 79.5z" />
<glyph unicode="&#xcc;" horiz-adv-x="458" d="M-51 1946h209l147 -369h-131zM133 0v1444h193v-1444h-193z" />
<glyph unicode="&#xcd;" horiz-adv-x="458" d="M133 0v1444h193v-1444h-193zM154 1577l147 369h209l-225 -369h-131z" />
<glyph unicode="&#xce;" horiz-adv-x="458" d="M-96 1577l231 313h191l231 -313h-141l-187 195l-184 -195h-141zM133 0v1444h193v-1444h-193z" />
<glyph unicode="&#xcf;" horiz-adv-x="458" d="M-66 1710q0 47 33.5 80t79.5 33t79.5 -33t33.5 -80q0 -46 -33.5 -79.5t-79.5 -33.5t-79.5 33.5t-33.5 79.5zM133 0v1444h193v-1444h-193zM301 1710q0 47 33.5 80t79.5 33t79 -33t33 -80q0 -46 -33 -79.5t-79 -33.5t-79.5 33.5t-33.5 79.5z" />
<glyph unicode="&#xd0;" horiz-adv-x="1200" d="M0 659v160h131v625h432q293 0 419 -170.5t126 -552.5q0 -381 -126 -551t-419 -170h-432v659h-131zM324 176h245q70 0 121.5 15.5t94 53t69 99.5t41 156t14.5 221q0 160 -21 267t-66 168t-105 85.5t-148 24.5h-245v-447h270v-160h-270v-483z" />
<glyph unicode="&#xd1;" horiz-adv-x="1208" d="M133 0v1444h182l568 -1030v1030h192v-1444h-182l-567 1032v-1032h-193zM227 1661q15 67 75.5 127.5t154.5 60.5q52 0 110 -30t106.5 -60t78.5 -30q39 0 63 31t31 61l137 -49q-7 -29 -24 -60t-44 -61t-70 -49t-93 -19q-41 0 -85.5 19t-76.5 41.5t-69 41.5t-64 19 q-36 0 -60 -30t-32 -62z" />
<glyph unicode="&#xd2;" horiz-adv-x="1257" d="M92 721q0 379 125 559t412 180t411.5 -180t124.5 -559q0 -378 -124.5 -557.5t-411.5 -179.5t-412 179.5t-125 557.5zM291 721q0 -304 80 -433.5t258 -129.5t258 129.5t80 433.5q0 306 -80 435.5t-258 129.5t-258 -129.5t-80 -435.5zM344 1946h209l147 -369h-131z" />
<glyph unicode="&#xd3;" horiz-adv-x="1257" d="M92 721q0 379 125 559t412 180t411.5 -180t124.5 -559q0 -378 -124.5 -557.5t-411.5 -179.5t-412 179.5t-125 557.5zM291 721q0 -304 80 -433.5t258 -129.5t258 129.5t80 433.5q0 306 -80 435.5t-258 129.5t-258 -129.5t-80 -435.5zM530 1577l148 369h209l-225 -369h-132 z" />
<glyph unicode="&#xd4;" horiz-adv-x="1257" d="M92 721q0 379 125 559t412 180t411.5 -180t124.5 -559q0 -378 -124.5 -557.5t-411.5 -179.5t-412 179.5t-125 557.5zM291 721q0 -304 80 -433.5t258 -129.5t258 129.5t80 433.5q0 306 -80 435.5t-258 129.5t-258 -129.5t-80 -435.5zM301 1577l231 313h191l231 -313h-141 l-186 195l-185 -195h-141z" />
<glyph unicode="&#xd5;" horiz-adv-x="1257" d="M92 721q0 379 125 559t412 180t411.5 -180t124.5 -559q0 -378 -124.5 -557.5t-411.5 -179.5t-412 179.5t-125 557.5zM250 1661q15 67 75 127.5t154 60.5q52 0 110 -30t106.5 -60t78.5 -30q39 0 63 31t31 61l138 -49q-7 -29 -24 -60t-44.5 -61t-70.5 -49t-93 -19 q-41 0 -85.5 19t-76.5 41.5t-69 41.5t-64 19q-36 0 -60 -30t-32 -62zM291 721q0 -304 80 -433.5t258 -129.5t258 129.5t80 433.5q0 306 -80 435.5t-258 129.5t-258 -129.5t-80 -435.5z" />
<glyph unicode="&#xd6;" horiz-adv-x="1257" d="M92 721q0 379 125 559t412 180t411.5 -180t124.5 -559q0 -378 -124.5 -557.5t-411.5 -179.5t-412 179.5t-125 557.5zM291 721q0 -304 80 -433.5t258 -129.5t258 129.5t80 433.5q0 306 -80 435.5t-258 129.5t-258 -129.5t-80 -435.5zM334 1710q0 47 33 80t79 33t79.5 -33 t33.5 -80q0 -46 -33.5 -79.5t-79.5 -33.5t-79 33.5t-33 79.5zM700 1710q0 47 33.5 80t79.5 33t79.5 -33t33.5 -80q0 -46 -33.5 -79.5t-79.5 -33.5t-79.5 33.5t-33.5 79.5z" />
<glyph unicode="&#xd7;" horiz-adv-x="983" d="M164 424l221 223l-221 223l104 103l224 -221l223 223l104 -105l-223 -223l223 -225l-104 -103l-223 224l-224 -224z" />
<glyph unicode="&#xd8;" horiz-adv-x="1257" d="M92 721q0 379 125 559t412 180q182 0 303 -76l108 189l123 -62l-129 -223q131 -175 131 -567q0 -378 -124.5 -557.5t-411.5 -179.5q-190 0 -305 75l-109 -188l-121 63l127 222q-129 176 -129 565zM291 721q0 -243 47 -365l498 863q-76 67 -207 67q-178 0 -258 -129.5 t-80 -435.5zM420 225q76 -67 209 -67q178 0 258 129.5t80 433.5q0 241 -47 366z" />
<glyph unicode="&#xd9;" horiz-adv-x="1204" d="M123 528v916h192v-864q0 -106 8 -175t26 -119.5t52.5 -77t81.5 -38.5t119 -12q71 0 118 12t81 38.5t52 77t26 119.5t8 175v864h194v-916q0 -155 -29 -260.5t-90.5 -168t-148 -89t-211.5 -26.5t-211.5 26.5t-148 89t-90.5 168t-29 260.5zM330 1946h209l147 -369h-131z" />
<glyph unicode="&#xda;" horiz-adv-x="1204" d="M123 528v916h192v-864q0 -106 8 -175t26 -119.5t52.5 -77t81.5 -38.5t119 -12q71 0 118 12t81 38.5t52 77t26 119.5t8 175v864h194v-916q0 -155 -29 -260.5t-90.5 -168t-148 -89t-211.5 -26.5t-211.5 26.5t-148 89t-90.5 168t-29 260.5zM532 1577l148 369h209l-225 -369 h-132z" />
<glyph unicode="&#xdb;" horiz-adv-x="1204" d="M123 528v916h192v-864q0 -106 8 -175t26 -119.5t52.5 -77t81.5 -38.5t119 -12q71 0 118 12t81 38.5t52 77t26 119.5t8 175v864h194v-916q0 -155 -29 -260.5t-90.5 -168t-148 -89t-211.5 -26.5t-211.5 26.5t-148 89t-90.5 168t-29 260.5zM274 1577l232 313h190l232 -313 h-142l-186 195l-184 -195h-142z" />
<glyph unicode="&#xdc;" horiz-adv-x="1204" d="M123 528v916h192v-864q0 -106 8 -175t26 -119.5t52.5 -77t81.5 -38.5t119 -12q71 0 118 12t81 38.5t52 77t26 119.5t8 175v864h194v-916q0 -155 -29 -260.5t-90.5 -168t-148 -89t-211.5 -26.5t-211.5 26.5t-148 89t-90.5 168t-29 260.5zM307 1710q0 47 33.5 80t79.5 33 t79 -33t33 -80q0 -46 -33 -79.5t-79 -33.5t-79.5 33.5t-33.5 79.5zM674 1710q0 47 33 80t79 33t79.5 -33t33.5 -80q0 -46 -33.5 -79.5t-79.5 -33.5t-79 33.5t-33 79.5z" />
<glyph unicode="&#xdd;" horiz-adv-x="1028" d="M10 1444h207l297 -629l297 629h207l-408 -823v-621h-192v621zM418 1577l147 369h209l-225 -369h-131z" />
<glyph unicode="&#xde;" horiz-adv-x="1120" d="M133 0v1444h193v-266h227q263 0 379.5 -101t116.5 -342q0 -243 -117.5 -342.5t-382.5 -99.5h-223v-293h-193zM326 467h213q94 0 150 10t95.5 39.5t54.5 81.5t15 137q0 160 -65 214.5t-242 54.5h-221v-537z" />
<glyph unicode="&#xdf;" horiz-adv-x="1107" d="M123 0v1098q0 171 83.5 266.5t256.5 95.5q77 0 140 -23.5t104.5 -58t75.5 -86.5t53 -97t36 -101l-2 -50q-103 -8 -176 -65.5t-73 -149.5q0 -105 145 -202q160 -110 220.5 -182t60.5 -166q0 -128 -100.5 -211.5t-250.5 -83.5q-48 0 -95 10.5t-77.5 23.5t-57.5 29.5 t-37.5 24.5t-14.5 12l80 127q8 -8 24 -20.5t65.5 -33t100.5 -20.5q90 0 132 40.5t42 101.5q0 46 -41 90t-145 112q-125 82 -182.5 158.5t-57.5 179.5q0 110 67 193.5t185 115.5q-27 74 -78 124.5t-123 50.5q-90 0 -132 -56t-42 -174v-1073h-186z" />
<glyph unicode="&#xe0;" horiz-adv-x="937" d="M72 295q0 65 23.5 121t73 104t136.5 75.5t203 27.5h131v104q0 164 -172 164q-60 0 -127.5 -13.5t-105.5 -26.5l-37 -13l-41 137q15 7 42 18t111 29t168 18q174 0 261 -77t87 -238v-725h-149l-27 82q-132 -98 -274 -98q-98 0 -168.5 44.5t-102.5 113.5t-32 153zM264 303 q0 -77 46 -124.5t116 -47.5q62 0 118.5 26.5t94.5 61.5v262h-129q-117 0 -181.5 -50.5t-64.5 -127.5zM274 1526h209l90 -348h-131z" />
<glyph unicode="&#xe1;" horiz-adv-x="937" d="M72 295q0 65 23.5 121t73 104t136.5 75.5t203 27.5h131v104q0 164 -172 164q-60 0 -127.5 -13.5t-105.5 -26.5l-37 -13l-41 137q15 7 42 18t111 29t168 18q174 0 261 -77t87 -238v-725h-149l-27 82q-132 -98 -274 -98q-98 0 -168.5 44.5t-102.5 113.5t-32 153zM264 303 q0 -77 46 -124.5t116 -47.5q62 0 118.5 26.5t94.5 61.5v262h-129q-117 0 -181.5 -50.5t-64.5 -127.5zM403 1178l91 348h208l-167 -348h-132z" />
<glyph unicode="&#xe2;" horiz-adv-x="937" d="M72 295q0 65 23.5 121t73 104t136.5 75.5t203 27.5h131v104q0 164 -172 164q-60 0 -127.5 -13.5t-105.5 -26.5l-37 -13l-41 137q15 7 42 18t111 29t168 18q174 0 261 -77t87 -238v-725h-149l-27 82q-132 -98 -274 -98q-98 0 -168.5 44.5t-102.5 113.5t-32 153zM172 1178 l221 297h180l222 -297h-140l-172 186l-170 -186h-141zM264 303q0 -77 46 -124.5t116 -47.5q62 0 118.5 26.5t94.5 61.5v262h-129q-117 0 -181.5 -50.5t-64.5 -127.5z" />
<glyph unicode="&#xe3;" horiz-adv-x="937" d="M72 295q0 65 23.5 121t73 104t136.5 75.5t203 27.5h131v104q0 164 -172 164q-60 0 -127.5 -13.5t-105.5 -26.5l-37 -13l-41 137q15 7 42 18t111 29t168 18q174 0 261 -77t87 -238v-725h-149l-27 82q-132 -98 -274 -98q-98 0 -168.5 44.5t-102.5 113.5t-32 153zM90 1255 q6 26 22 55t42 58t67.5 47.5t89.5 18.5q40 0 84 -18t76 -39.5t70 -39.5t67 -18q36 0 57.5 27t30.5 57l129 -43q-7 -27 -23 -55t-41.5 -57t-67 -47.5t-89.5 -18.5q-52 0 -107.5 28.5t-104 57t-85.5 28.5q-36 0 -59 -28t-29 -56zM264 303q0 -77 46 -124.5t116 -47.5 q62 0 118.5 26.5t94.5 61.5v262h-129q-117 0 -181.5 -50.5t-64.5 -127.5z" />
<glyph unicode="&#xe4;" horiz-adv-x="937" d="M72 295q0 65 23.5 121t73 104t136.5 75.5t203 27.5h131v104q0 164 -172 164q-60 0 -127.5 -13.5t-105.5 -26.5l-37 -13l-41 137q15 7 42 18t111 29t168 18q174 0 261 -77t87 -238v-725h-149l-27 82q-132 -98 -274 -98q-98 0 -168.5 44.5t-102.5 113.5t-32 153zM184 1313 q0 42 32 73t75 31q44 0 75 -30.5t31 -73.5q0 -44 -31 -75.5t-75 -31.5q-43 0 -75 31.5t-32 75.5zM264 303q0 -77 46 -124.5t116 -47.5q62 0 118.5 26.5t94.5 61.5v262h-129q-117 0 -181.5 -50.5t-64.5 -127.5zM541 1313q0 43 31 73.5t75 30.5q43 0 74 -30.5t31 -73.5 q0 -44 -31 -75.5t-74 -31.5q-44 0 -75 31.5t-31 75.5z" />
<glyph unicode="&#xe5;" horiz-adv-x="937" d="M72 295q0 65 23.5 121t73 104t136.5 75.5t203 27.5h131v104q0 164 -172 164q-60 0 -127.5 -13.5t-105.5 -26.5l-37 -13l-41 137q15 7 42 18t111 29t168 18q174 0 261 -77t87 -238v-725h-149l-27 82q-132 -98 -274 -98q-98 0 -168.5 44.5t-102.5 113.5t-32 153zM264 303 q0 -77 46 -124.5t116 -47.5q62 0 118.5 26.5t94.5 61.5v262h-129q-117 0 -181.5 -50.5t-64.5 -127.5zM319 1343q0 69 49.5 116.5t118.5 47.5q68 0 117 -48t49 -116q0 -69 -49 -117t-117 -48q-69 0 -118.5 48t-49.5 117zM428 1343q0 -30 16 -47.5t43 -17.5q25 0 41.5 18 t16.5 47q0 26 -16.5 43t-41.5 17q-27 0 -43 -16.5t-16 -43.5z" />
<glyph unicode="&#xe6;" horiz-adv-x="1499" d="M72 291q0 66 25 121.5t76.5 101.5t143 72t213.5 26h111v115q0 74 -41 119t-133 45q-60 0 -127.5 -13.5t-105.5 -26.5l-37 -13l-41 137q15 7 42 18t111 29t168 18q203 0 285 -110q91 110 276 110q110 0 183.5 -34t116.5 -107t61 -175t18 -251h-594q5 -161 60.5 -246.5 t181.5 -85.5q64 0 126 14t92 28l30 14l59 -140q-143 -73 -309 -73q-216 0 -322 133q-79 -59 -166.5 -96t-201.5 -37q-146 0 -223.5 88.5t-77.5 218.5zM264 299q0 -72 45.5 -120t120.5 -48q131 0 248 109q-39 98 -39 233h-111q-128 0 -196 -47.5t-68 -126.5zM825 612h406 q-3 140 -48.5 209.5t-148.5 69.5q-203 0 -209 -279z" />
<glyph unicode="&#xe7;" horiz-adv-x="790" d="M82 512q0 272 105.5 400t316.5 128q63 0 124.5 -17.5t100.5 -41.5l-65 -137q-70 39 -160 39q-135 0 -185.5 -91.5t-50.5 -279.5q0 -74 6 -128t21 -102t41.5 -77.5t68 -46.5t99.5 -17q42 0 83.5 9.5t62.5 19.5l20 10l55 -143q-109 -53 -223 -53q-27 0 -39 2l-35 -76 q8 2 43 2q62 0 110 -39.5t48 -108.5q0 -71 -62.5 -117t-171.5 -46q-41 0 -84 7t-65 14l-23 7l25 76q79 -20 149 -20q52 0 77.5 22.5t25.5 56.5q0 32 -19 49t-53 17q-24 0 -52.5 -3.5t-44.5 -6.5l-16 -4l-18 45l82 135q-150 32 -223.5 158t-73.5 358z" />
<glyph unicode="&#xe8;" horiz-adv-x="944" d="M82 514q0 526 399 526q110 0 184.5 -35.5t117.5 -110.5t61 -177.5t18 -251.5h-592q6 -160 61 -242t177 -82q64 0 126 14t92 28l30 14l61 -140q-143 -73 -309 -73q-211 0 -318.5 129t-107.5 401zM260 1526h209l90 -348h-131zM270 604h408q-3 143 -49.5 215t-149.5 72 t-151 -73t-58 -214z" />
<glyph unicode="&#xe9;" horiz-adv-x="944" d="M82 514q0 526 399 526q110 0 184.5 -35.5t117.5 -110.5t61 -177.5t18 -251.5h-592q6 -160 61 -242t177 -82q64 0 126 14t92 28l30 14l61 -140q-143 -73 -309 -73q-211 0 -318.5 129t-107.5 401zM270 604h408q-3 143 -49.5 215t-149.5 72t-151 -73t-58 -214zM403 1178 l91 348h208l-167 -348h-132z" />
<glyph unicode="&#xea;" horiz-adv-x="944" d="M82 514q0 526 399 526q110 0 184.5 -35.5t117.5 -110.5t61 -177.5t18 -251.5h-592q6 -160 61 -242t177 -82q64 0 126 14t92 28l30 14l61 -140q-143 -73 -309 -73q-211 0 -318.5 129t-107.5 401zM160 1178l221 297h180l221 -297h-139l-172 186l-170 -186h-141zM270 604 h408q-3 143 -49.5 215t-149.5 72t-151 -73t-58 -214z" />
<glyph unicode="&#xeb;" horiz-adv-x="944" d="M82 514q0 526 399 526q110 0 184.5 -35.5t117.5 -110.5t61 -177.5t18 -251.5h-592q6 -160 61 -242t177 -82q64 0 126 14t92 28l30 14l61 -140q-143 -73 -309 -73q-211 0 -318.5 129t-107.5 401zM188 1313q0 42 32 73t75 31q44 0 75 -30.5t31 -73.5q0 -44 -31 -75.5 t-75 -31.5q-43 0 -75 31.5t-32 75.5zM270 604h408q-3 143 -49.5 215t-149.5 72t-151 -73t-58 -214zM545 1313q0 43 31 73.5t75 30.5q43 0 74 -30.5t31 -73.5q0 -44 -31 -75.5t-74 -31.5q-44 0 -75 31.5t-31 75.5z" />
<glyph unicode="&#xec;" horiz-adv-x="450" d="M-6 1526h209l90 -348h-131zM131 0v1024h186v-1024h-186z" />
<glyph unicode="&#xed;" horiz-adv-x="450" d="M131 0v1024h186v-1024h-186zM158 1178l90 348h209l-168 -348h-131z" />
<glyph unicode="&#xee;" horiz-adv-x="450" d="M-86 1178l221 297h180l222 -297h-140l-172 186l-170 -186h-141zM131 0v1024h186v-1024h-186z" />
<glyph unicode="&#xef;" horiz-adv-x="450" d="M-57 1313q0 43 31.5 73.5t74.5 30.5q44 0 75.5 -30.5t31.5 -73.5q0 -44 -31.5 -75.5t-75.5 -31.5q-43 0 -74.5 31.5t-31.5 75.5zM131 0v1024h186v-1024h-186zM299 1313q0 43 31.5 73.5t75.5 30.5q43 0 73.5 -30.5t30.5 -73.5q0 -44 -30.5 -75.5t-73.5 -31.5 q-44 0 -75.5 31.5t-31.5 75.5z" />
<glyph unicode="&#xf0;" horiz-adv-x="1089" d="M82 471q0 98 29 185t83.5 155.5t141.5 109t196 40.5q20 0 41 -3.5t32 -6.5l11 -3q-44 70 -141 195l-225 -86l-57 149l180 68l-140 170h234l82 -103l186 72l58 -149l-140 -54q74 -94 131 -178.5t111 -182.5t83.5 -194.5t29.5 -183.5q0 -73 -15.5 -141.5t-51 -133t-88 -112 t-132 -76t-176.5 -28.5q-103 0 -186 34t-133 86t-84 120t-47 130t-13 121zM281 471q0 -140 68.5 -233t195.5 -93q130 0 197 90.5t67 235.5q0 88 -31.5 170.5t-64.5 128.5q-2 2 -15 8.5t-38.5 13.5t-49.5 7q-160 0 -244.5 -90.5t-84.5 -237.5z" />
<glyph unicode="&#xf1;" horiz-adv-x="1028" d="M123 0v1024h137l43 -98q63 47 148 80.5t167 33.5q86 0 145.5 -23t92 -69t46 -103.5t13.5 -137.5v-707h-186v696q0 104 -38.5 150.5t-127.5 46.5q-77 0 -146.5 -34.5t-107.5 -67.5v-791h-186zM147 1255q6 26 22 55t42.5 58t68 47.5t89.5 18.5q40 0 84 -18t76 -39.5 t70 -39.5t67 -18q36 0 57.5 27t30.5 57l129 -43q-7 -27 -23 -55t-41.5 -57t-67 -47.5t-89.5 -18.5q-52 0 -107.5 28.5t-104 57t-85.5 28.5q-36 0 -59.5 -28t-29.5 -56z" />
<glyph unicode="&#xf2;" d="M82 512q0 273 105 400.5t315 127.5t315 -127.5t105 -400.5q0 -272 -105.5 -400t-314.5 -128t-314.5 128t-105.5 400zM250 1526h209l90 -348h-131zM268 512q0 -187 50.5 -279t183.5 -92q69 0 115 24.5t71 75.5t35 115t10 156q0 189 -49 280t-182 91q-69 0 -115.5 -24.5 t-72 -74.5t-36 -115t-10.5 -157z" />
<glyph unicode="&#xf3;" d="M82 512q0 273 105 400.5t315 127.5t315 -127.5t105 -400.5q0 -272 -105.5 -400t-314.5 -128t-314.5 128t-105.5 400zM268 512q0 -187 50.5 -279t183.5 -92q69 0 115 24.5t71 75.5t35 115t10 156q0 189 -49 280t-182 91q-69 0 -115.5 -24.5t-72 -74.5t-36 -115t-10.5 -157 zM412 1178l90 348h209l-168 -348h-131z" />
<glyph unicode="&#xf4;" d="M82 512q0 273 105 400.5t315 127.5t315 -127.5t105 -400.5q0 -272 -105.5 -400t-314.5 -128t-314.5 128t-105.5 400zM190 1178l222 297h180l221 -297h-139l-172 186l-170 -186h-142zM268 512q0 -187 50.5 -279t183.5 -92q69 0 115 24.5t71 75.5t35 115t10 156 q0 189 -49 280t-182 91q-69 0 -115.5 -24.5t-72 -74.5t-36 -115t-10.5 -157z" />
<glyph unicode="&#xf5;" d="M82 512q0 273 105 400.5t315 127.5t315 -127.5t105 -400.5q0 -272 -105.5 -400t-314.5 -128t-314.5 128t-105.5 400zM133 1255q6 26 22 55t42 58t67.5 47.5t89.5 18.5q40 0 84 -18t76 -39.5t70 -39.5t67 -18q36 0 57.5 27t30.5 57l129 -43q-7 -27 -23 -55t-41.5 -57 t-67 -47.5t-89.5 -18.5q-52 0 -107.5 28.5t-104 57t-85.5 28.5q-36 0 -59 -28t-29 -56zM268 512q0 -187 50.5 -279t183.5 -92q69 0 115 24.5t71 75.5t35 115t10 156q0 189 -49 280t-182 91q-69 0 -115.5 -24.5t-72 -74.5t-36 -115t-10.5 -157z" />
<glyph unicode="&#xf6;" d="M82 512q0 273 105 400.5t315 127.5t315 -127.5t105 -400.5q0 -272 -105.5 -400t-314.5 -128t-314.5 128t-105.5 400zM217 1313q0 42 32 73t75 31q44 0 75 -30.5t31 -73.5q0 -44 -31 -75.5t-75 -31.5q-43 0 -75 31.5t-32 75.5zM268 512q0 -187 50.5 -279t183.5 -92 q69 0 115 24.5t71 75.5t35 115t10 156q0 189 -49 280t-182 91q-69 0 -115.5 -24.5t-72 -74.5t-36 -115t-10.5 -157zM573 1313q0 43 31.5 73.5t75.5 30.5q43 0 73.5 -30.5t30.5 -73.5q0 -44 -30.5 -75.5t-73.5 -31.5q-44 0 -75.5 31.5t-31.5 75.5z" />
<glyph unicode="&#xf7;" horiz-adv-x="1026" d="M164 571v148h698v-148h-698zM383 287q0 54 38 91.5t91 37.5q54 0 90.5 -37.5t36.5 -91.5q0 -53 -36.5 -90t-90.5 -37q-53 0 -91 37.5t-38 89.5zM383 1004q0 54 38 91.5t91 37.5q54 0 90.5 -37.5t36.5 -91.5q0 -53 -36.5 -90t-90.5 -37q-53 0 -91 37.5t-38 89.5z" />
<glyph unicode="&#xf8;" d="M82 512q0 273 105 400.5t315 127.5q128 0 217 -47l92 158l107 -55l-107 -178q111 -129 111 -406q0 -272 -105.5 -400t-314.5 -128q-131 0 -217 45l-92 -156l-103 57l103 174q-111 129 -111 408zM268 512q0 -156 29 -233l336 569q-50 35 -131 35q-69 0 -115.5 -24.5 t-72 -74.5t-36 -115t-10.5 -157zM371 174q47 -33 131 -33q69 0 115 24.5t71 75.5t35 115t10 156q0 142 -26 227z" />
<glyph unicode="&#xf9;" horiz-adv-x="1024" d="M113 317v707h186v-694q0 -105 38.5 -152t127.5 -47q76 0 145 35.5t105 69.5v788h186v-1024h-149l-29 98q-63 -47 -146 -80.5t-165 -33.5q-86 0 -145.5 23t-92.5 68.5t-47 103.5t-14 138zM279 1526h208l91 -348h-132z" />
<glyph unicode="&#xfa;" horiz-adv-x="1024" d="M113 317v707h186v-694q0 -105 38.5 -152t127.5 -47q76 0 145 35.5t105 69.5v788h186v-1024h-149l-29 98q-63 -47 -146 -80.5t-165 -33.5q-86 0 -145.5 23t-92.5 68.5t-47 103.5t-14 138zM422 1178l90 348h209l-168 -348h-131z" />
<glyph unicode="&#xfb;" horiz-adv-x="1024" d="M113 317v707h186v-694q0 -105 38.5 -152t127.5 -47q76 0 145 35.5t105 69.5v788h186v-1024h-149l-29 98q-63 -47 -146 -80.5t-165 -33.5q-86 0 -145.5 23t-92.5 68.5t-47 103.5t-14 138zM199 1178l221 297h180l221 -297h-139l-172 186l-170 -186h-141z" />
<glyph unicode="&#xfc;" horiz-adv-x="1024" d="M113 317v707h186v-694q0 -105 38.5 -152t127.5 -47q76 0 145 35.5t105 69.5v788h186v-1024h-149l-29 98q-63 -47 -146 -80.5t-165 -33.5q-86 0 -145.5 23t-92.5 68.5t-47 103.5t-14 138zM227 1313q0 42 32 73t75 31q44 0 75 -30.5t31 -73.5q0 -44 -31 -75.5t-75 -31.5 q-43 0 -75 31.5t-32 75.5zM584 1313q0 43 31 73.5t75 30.5q43 0 74 -30.5t31 -73.5q0 -44 -31 -75.5t-74 -31.5q-44 0 -75 31.5t-31 75.5z" />
<glyph unicode="&#xfd;" horiz-adv-x="892" d="M10 1024h195l241 -836l242 836h195l-369 -1184q-33 -106 -104.5 -172.5t-188.5 -66.5q-98 0 -178 37l45 141q56 -23 115 -23q29 0 52.5 9.5t39 23.5t29.5 38t22 43.5t19 49.5l26 80h-63zM379 1178l90 348h209l-168 -348h-131z" />
<glyph unicode="&#xfe;" horiz-adv-x="1017" d="M123 -369v1813h186v-496q39 37 100.5 64.5t131.5 27.5q184 0 289.5 -134t105.5 -394t-106 -394t-291 -134q-133 0 -230 94v-447h-186zM309 242q31 -46 82.5 -76.5t108.5 -30.5q248 0 248 377q0 379 -248 379q-61 0 -112 -33t-79 -74v-542z" />
<glyph unicode="&#xff;" horiz-adv-x="892" d="M10 1024h195l241 -836l242 836h195l-369 -1184q-33 -106 -104.5 -172.5t-188.5 -66.5q-98 0 -178 37l45 141q56 -23 115 -23q29 0 52.5 9.5t39 23.5t29.5 38t22 43.5t19 49.5l26 80h-63zM162 1313q0 43 31.5 73.5t74.5 30.5q44 0 75.5 -30.5t31.5 -73.5 q0 -44 -31.5 -75.5t-75.5 -31.5q-43 0 -74.5 31.5t-31.5 75.5zM518 1313q0 43 31.5 73.5t75.5 30.5q43 0 73.5 -30.5t30.5 -73.5q0 -44 -30.5 -75.5t-73.5 -31.5q-44 0 -75.5 31.5t-31.5 75.5z" />
<glyph unicode="&#x152;" horiz-adv-x="1841" d="M92 723q0 379 125 558t412 179q113 0 206 -42t138 -115v141h741v-178h-549v-430h549v-177h-549v-483h564v-176h-756v135q-102 -151 -344 -151q-287 0 -412 180t-125 559zM291 723q0 -306 80 -435.5t258 -129.5t258 129.5t80 435.5t-80 434.5t-258 128.5t-258 -128.5 t-80 -434.5z" />
<glyph unicode="&#x153;" horiz-adv-x="1597" d="M82 512q0 273 105 400.5t315 127.5q226 0 323 -151q94 151 310 151q110 0 184 -35.5t117.5 -111t61.5 -179.5t18 -253h-594q6 -158 61.5 -239t177.5 -81q64 0 125.5 14t91.5 28l29 14l61 -140q-143 -73 -309 -73q-234 0 -330 153q-96 -153 -327 -153q-209 0 -314.5 128 t-105.5 400zM268 512q0 -187 50.5 -279t183.5 -92q129 0 179 89t52 282q0 189 -49 280t-182 91q-69 0 -115.5 -24.5t-72 -74.5t-36 -115t-10.5 -157zM924 602h405q-3 143 -48.5 216t-147.5 73q-104 0 -152.5 -74t-56.5 -215z" />
<glyph unicode="&#x178;" horiz-adv-x="1028" d="M10 1444h207l297 -629l297 629h207l-408 -823v-621h-192v621zM219 1710q0 47 33.5 80t79.5 33t79 -33t33 -80q0 -46 -33 -79.5t-79 -33.5t-79.5 33.5t-33.5 79.5zM586 1710q0 47 33 80t79 33t79.5 -33t33.5 -80q0 -46 -33.5 -79.5t-79.5 -33.5t-79 33.5t-33 79.5z" />
<glyph unicode="&#x2c6;" horiz-adv-x="827" d="M102 1178l222 297h180l221 -297h-139l-172 186l-170 -186h-142z" />
<glyph unicode="&#x2dc;" horiz-adv-x="940" d="M102 1255q6 26 22 55t42.5 58t68 47.5t89.5 18.5q40 0 84 -18t76 -39.5t70 -39.5t67 -18q36 0 57.5 27t30.5 57l129 -43q-7 -26 -23 -54.5t-42 -57.5t-67.5 -47.5t-89.5 -18.5q-52 0 -107.5 28.5t-104 57t-85.5 28.5q-36 0 -59 -28t-29 -56z" />
<glyph unicode="&#x2000;" horiz-adv-x="973" />
<glyph unicode="&#x2001;" horiz-adv-x="1946" />
<glyph unicode="&#x2002;" horiz-adv-x="973" />
<glyph unicode="&#x2003;" horiz-adv-x="1946" />
<glyph unicode="&#x2004;" horiz-adv-x="648" />
<glyph unicode="&#x2005;" horiz-adv-x="486" />
<glyph unicode="&#x2006;" horiz-adv-x="324" />
<glyph unicode="&#x2007;" horiz-adv-x="324" />
<glyph unicode="&#x2008;" horiz-adv-x="243" />
<glyph unicode="&#x2009;" horiz-adv-x="389" />
<glyph unicode="&#x200a;" horiz-adv-x="108" />
<glyph unicode="&#x2010;" horiz-adv-x="839" d="M164 442v152h512v-152h-512z" />
<glyph unicode="&#x2011;" horiz-adv-x="839" d="M164 442v152h512v-152h-512z" />
<glyph unicode="&#x2012;" horiz-adv-x="839" d="M164 442v152h512v-152h-512z" />
<glyph unicode="&#x2013;" horiz-adv-x="1167" d="M164 442v152h840v-152h-840z" />
<glyph unicode="&#x2014;" horiz-adv-x="2007" d="M164 442v152h1679v-152h-1679z" />
<glyph unicode="&#x2018;" horiz-adv-x="446" d="M92 1083q0 30 19 64l153 313l84 -20l-78 -236q37 -14 60.5 -47t23.5 -74q0 -55 -38.5 -93t-94.5 -38q-53 0 -91 38t-38 93z" />
<glyph unicode="&#x2019;" horiz-adv-x="446" d="M92 1327q0 55 39 94t94 39q54 0 91.5 -38.5t37.5 -94.5q0 -31 -18 -63l-154 -312l-82 19l76 235q-37 15 -60.5 48.5t-23.5 72.5z" />
<glyph unicode="&#x201a;" horiz-adv-x="466" d="M102 109q0 55 39 93t95 38q54 0 91.5 -38t37.5 -93q0 -30 -19 -64l-153 -313l-82 20l75 236q-37 14 -60.5 47t-23.5 74z" />
<glyph unicode="&#x201c;" horiz-adv-x="819" d="M92 1083q0 30 19 64l153 313l84 -20l-78 -236q37 -14 60.5 -47t23.5 -74q0 -55 -38.5 -93t-94.5 -38q-53 0 -91 38t-38 93zM465 1083q0 32 18 64l154 313l82 -20l-76 -236q37 -14 60.5 -47t23.5 -74q0 -55 -38.5 -93t-94.5 -38q-54 0 -91.5 38t-37.5 93z" />
<glyph unicode="&#x201d;" horiz-adv-x="819" d="M92 1329q0 55 38.5 93t94.5 38q54 0 91.5 -38t37.5 -93q0 -31 -18 -63l-154 -314l-82 21l76 235q-37 14 -60.5 47t-23.5 74zM465 1329q0 55 38.5 93t94.5 38q53 0 91 -38t38 -93q0 -31 -18 -63l-154 -314l-84 21l78 235q-37 14 -60.5 47t-23.5 74z" />
<glyph unicode="&#x201e;" horiz-adv-x="831" d="M102 109q0 55 39 93t95 38q54 0 91.5 -38t37.5 -93q0 -30 -19 -64l-153 -313l-82 20l75 236q-37 14 -60.5 47t-23.5 74zM467 109q0 55 38.5 93t94.5 38q53 0 91 -38t38 -93q0 -32 -18 -64l-154 -313l-84 20l78 236q-37 14 -60.5 47t-23.5 74z" />
<glyph unicode="&#x2022;" horiz-adv-x="751" d="M164 670q0 89 63.5 151t151.5 62q87 0 148 -62t61 -151t-61 -150t-148 -61q-88 0 -151.5 61t-63.5 150z" />
<glyph unicode="&#x2026;" horiz-adv-x="1349" d="M102 111q0 54 38 91.5t91 37.5t90 -37.5t37 -91.5q0 -53 -37 -90t-90 -37t-91 37.5t-38 89.5zM547 111q0 54 38 91.5t91 37.5t90 -37.5t37 -91.5q0 -53 -37.5 -90t-89.5 -37q-53 0 -91 37.5t-38 89.5zM991 111q0 54 38 91.5t91 37.5t90 -37.5t37 -91.5q0 -53 -37.5 -90 t-89.5 -37q-53 0 -91 37.5t-38 89.5z" />
<glyph unicode="&#x202f;" horiz-adv-x="389" />
<glyph unicode="&#x2039;" horiz-adv-x="630" d="M143 487v56l273 395l112 -64l-217 -358l217 -358l-112 -66z" />
<glyph unicode="&#x203a;" horiz-adv-x="630" d="M102 158l217 358l-217 358l113 64l272 -395v-56l-272 -395z" />
<glyph unicode="&#x205f;" horiz-adv-x="486" />
<glyph unicode="&#x20ac;" horiz-adv-x="1220" d="M82 510v147h149v70v82h-149v147h164q35 263 163.5 383.5t362.5 120.5q86 0 164.5 -20.5t114.5 -41.5l36 -20l-81 -157q-11 7 -31.5 18t-82 29t-120.5 18q-138 0 -219 -75t-109 -255h437v-147h-451v-82v-70h451v-147h-439q24 -193 106 -272.5t224 -79.5q63 0 126 18t94 36 l32 17l84 -157q-16 -10 -45 -24.5t-117 -39t-174 -24.5q-243 0 -371 127t-159 399h-160z" />
<glyph unicode="&#x2122;" horiz-adv-x="1499" d="M123 1315v119h489v-119h-176v-639h-137v639h-176zM723 676v758h139l166 -332l166 332h141v-758h-137v504l-158 -303h-22l-158 303v-504h-137z" />
<glyph unicode="&#xe000;" horiz-adv-x="1024" d="M0 0v1024h1024v-1024h-1024z" />
</font>
</defs>
</svg>
