<?xml version="1.0" standalone="no"?>
<!DOCTYPE svg PUBLIC "-//W3C//DTD SVG 1.1//EN" "http://www.w3.org/Graphics/SVG/1.1/DTD/svg11.dtd" >
<svg xmlns="http://www.w3.org/2000/svg">
<metadata></metadata>
<defs>
<font id="barna_prscregular" horiz-adv-x="1288" >
<font-face units-per-em="2048" ascent="1536" descent="-512" />
<missing-glyph horiz-adv-x="368" />
<glyph horiz-adv-x="2048" />
<glyph horiz-adv-x="2048" />
<glyph unicode="&#xd;" horiz-adv-x="2048" />
<glyph unicode=" "  horiz-adv-x="368" />
<glyph unicode="&#x09;" horiz-adv-x="368" />
<glyph unicode="&#xa0;" horiz-adv-x="368" />
<glyph unicode="!" horiz-adv-x="552" d="M102 158q0 72 51 123t123 51t123.5 -51t51.5 -123q0 -73 -51.5 -123.5t-123.5 -50.5t-123 50.5t-51 123.5zM111 1212v246h331v-246l-49 -778h-233z" />
<glyph unicode="&#x22;" horiz-adv-x="735" d="M72 1458h250l-58 -524h-137zM414 1458h250l-58 -524h-137z" />
<glyph unicode="#" horiz-adv-x="1802" d="M143 412v262h244l74 258h-164v260h238l77 266h367l-78 -266h213l78 266h369l-78 -266h176v-260h-250l-74 -258h181v-262h-256l-119 -412h-367l117 412h-213l-117 -412h-368l118 412h-168zM754 674h213l73 258h-213z" />
<glyph unicode="$" horiz-adv-x="1228" d="M123 117l129 245q0 -3 45.5 -25.5t122 -46.5t139.5 -24q201 0 201 129q0 47 -53 89t-207 133q-9 5 -13 8q-132 78 -201.5 138t-104 135t-34.5 179q0 143 89.5 242t238.5 135v246h287v-234q77 -10 147.5 -31.5t102.5 -38.5l32 -16l-118 -254q-15 7 -42 18t-102.5 29.5 t-142.5 18.5q-61 0 -104 -24.5t-43 -71.5q0 -55 49 -101.5t190 -126.5q222 -128 298.5 -220t76.5 -232q-2 -143 -92 -253t-252 -155v-274h-287v256q-107 11 -207 50t-145 77z" />
<glyph unicode="%" horiz-adv-x="2105" d="M143 1022q0 93 17.5 171t55.5 143t106.5 102t162.5 37t163 -37t107 -102t56 -143t18 -171q0 -92 -18 -169.5t-56 -142.5t-107 -102t-163 -37t-162.5 37t-106.5 102t-55.5 142.5t-17.5 169.5zM377 1022q0 -32 0.5 -52.5t3.5 -53t10.5 -54t18.5 -43t30.5 -32.5t44.5 -11 q26 0 46 11t31.5 32.5t19 43t10 54t3.5 53t1 52.5q0 49 -2.5 80.5t-12 76t-34 68t-62.5 23.5q-37 0 -61 -23.5t-33 -68t-11.5 -76t-2.5 -80.5zM526 0l791 1458h258l-789 -1458h-260zM1276 434q0 93 17.5 171t55.5 143t106.5 102t162.5 37t163 -37t107 -102t56 -143t18 -171 q0 -92 -18 -169.5t-56 -142t-107 -101.5t-163 -37q-76 0 -135.5 24.5t-97.5 66.5t-63 100.5t-35.5 122t-10.5 136.5zM1509 434q0 -49 2.5 -81t12 -75.5t33.5 -66.5t61 -23q25 0 44.5 11t31.5 32t19.5 43.5t10.5 54t4 53.5t1 52q0 49 -2.5 80.5t-12 76t-34 68t-62.5 23.5 q-37 0 -61 -23.5t-33.5 -67.5t-12 -76.5t-2.5 -80.5z" />
<glyph unicode="&#x26;" horiz-adv-x="1368" d="M51 428q0 108 56.5 209.5t168.5 181.5q-94 141 -94 283q0 66 26.5 131t74.5 119.5t126 88.5t171 34q97 0 171 -26.5t114 -65t65.5 -89.5t33 -91t7.5 -79q0 -197 -232 -360l150 -184q10 15 16 26t9 17.5t11 25t15 35.5l305 -76q-28 -80 -73.5 -159.5t-77.5 -116.5 l274 -332h-412l-75 92q-125 -108 -342 -108q-220 0 -354 120.5t-134 323.5zM416 430q0 -58 32.5 -104.5t90.5 -46.5q42 0 78 12.5t51 25.5l16 13l-203 245q-65 -58 -65 -145zM510 1120q0 -31 9.5 -57t39.5 -80q52 41 77.5 75t25.5 75q0 40 -18 65t-48 25q-38 0 -62 -30 t-24 -73z" />
<glyph unicode="'" horiz-adv-x="393" d="M72 1458h250l-58 -524h-137z" />
<glyph unicode="(" horiz-adv-x="698" d="M123 688q0 226 87 448.5t245 411.5l161 -80q-190 -417 -190 -780t190 -780l-161 -80q-158 189 -245 411.5t-87 448.5z" />
<glyph unicode=")" horiz-adv-x="698" d="M82 -92q190 417 190 780t-190 780l162 80q157 -188 244 -411t87 -449t-87 -449t-244 -411z" />
<glyph unicode="*" horiz-adv-x="995" d="M143 913l162 95l-162 96l86 162l174 -101v201h187v-203l172 103l90 -162l-170 -94l170 -97l-90 -163l-172 100v-199h-187v199l-170 -98z" />
<glyph unicode="+" horiz-adv-x="1024" d="M164 526v232h233v235h230v-235h233v-232h-233v-229h-230v229h-233z" />
<glyph unicode="," horiz-adv-x="552" d="M102 156q0 72 52 124t125 52q71 0 121.5 -53t50.5 -123q0 -42 -45 -140l-146 -317l-121 41l66 235q-38 22 -70.5 66.5t-32.5 114.5z" />
<glyph unicode="-" horiz-adv-x="839" d="M164 391v250h512v-250h-512z" />
<glyph unicode="." horiz-adv-x="552" d="M102 158q0 72 51 123t123 51t123.5 -51t51.5 -123q0 -73 -51.5 -123.5t-123.5 -50.5t-123 50.5t-51 123.5z" />
<glyph unicode="/" horiz-adv-x="1024" d="M82 0l584 1458h276l-586 -1458h-274z" />
<glyph unicode="0" horiz-adv-x="1277" d="M82 729q0 161 30.5 292t94.5 235t174 161.5t258 57.5q149 0 259 -57.5t174 -161.5t94 -235t30 -292q0 -128 -18.5 -237t-60 -204t-105 -161.5t-158.5 -104.5t-215 -38q-119 0 -214 38t-158.5 104.5t-105.5 161.5t-60.5 204t-18.5 237zM424 729q0 -63 2.5 -111t9.5 -103.5 t22.5 -94t38 -72t59 -50.5t83.5 -17t83.5 17t59 50.5t38 72t22.5 94t9.5 103.5t2.5 111t-2.5 110.5t-9.5 102.5t-22.5 94t-38 72.5t-59 50.5t-83.5 17t-83.5 -17t-59 -50.5t-38 -72.5t-22.5 -94t-9.5 -102.5t-2.5 -110.5z" />
<glyph unicode="1" horiz-adv-x="1034" d="M51 1298l361 160h305v-1153h256v-305h-862v305h276v830l-227 -86z" />
<glyph unicode="2" horiz-adv-x="1058" d="M41 0v233q0 53 20 108t48.5 100.5t75.5 98.5t85.5 90t94.5 87q10 9 46 40.5t52.5 47.5t48.5 47t48.5 53.5t36 52t28 57.5t8.5 56q0 61 -42.5 90t-113.5 29q-65 0 -144 -21t-125 -42l-46 -21l-113 252q7 5 20.5 13t58.5 28t94.5 35.5t126 28t155.5 12.5q222 0 347.5 -99 t125.5 -307q0 -59 -18.5 -116.5t-48 -107t-82.5 -108.5t-106 -109t-134 -120q-147 -125 -168 -203h555v-305h-934z" />
<glyph unicode="3" horiz-adv-x="1048" d="M10 98l115 254q18 -9 48 -23t107 -37.5t136 -23.5q53 0 94 15t63 36t36 47.5t18 45.5t4 34q0 152 -207 152h-229v295h233q203 0 203 162q0 61 -44 98t-118 37q-54 0 -128.5 -20t-122.5 -40l-48 -20l-115 252q190 113 416 113q496 0 496 -416q0 -93 -46.5 -179 t-111.5 -128q158 -119 158 -314q0 -97 -32 -177.5t-97 -143.5t-174 -98t-254 -35q-91 0 -199.5 31t-200.5 83z" />
<glyph unicode="4" horiz-adv-x="1179" d="M31 348v238l497 872h437v-817h184v-293h-184v-348h-330v348h-604zM383 641h252v473z" />
<glyph unicode="5" horiz-adv-x="1054" d="M51 94l119 252q15 -9 40.5 -22t97 -34.5t134.5 -21.5q76 0 135.5 51t59.5 148q0 81 -54.5 127.5t-166.5 46.5h-279v817h774v-295h-444v-229q242 0 374 -117.5t132 -355.5q0 -59 -15 -120.5t-53.5 -126.5t-95.5 -115.5t-149.5 -82.5t-206.5 -32t-221.5 30.5t-180.5 79.5z " />
<glyph unicode="6" horiz-adv-x="1236" d="M82 506q0 87 41 200t100.5 216t137.5 212t140 185t120 139h397q-76 -80 -167 -195t-145 -189l-53 -75q147 0 263 -67.5t177.5 -179.5t61.5 -246q0 -146 -61.5 -263.5t-185 -188t-290.5 -70.5q-110 0 -201.5 31.5t-152.5 83t-103 120t-60.5 141t-18.5 146.5zM418 506 q0 -59 21 -112t68 -89.5t111 -36.5q94 0 147.5 64t53.5 174q0 107 -80 174.5t-223 67.5q-4 -5 -10.5 -14t-23.5 -36.5t-30 -55t-23.5 -65.5t-10.5 -71z" />
<glyph unicode="7" horiz-adv-x="1026" d="M51 1165v293h955v-139l-566 -1319h-348l504 1165h-545z" />
<glyph unicode="8" horiz-adv-x="1212" d="M82 393q0 69 24 129t57 97.5t73.5 66.5t68 41.5t45.5 17.5q-103 43 -163 138t-60 215q0 50 14.5 99.5t50.5 100.5t88.5 89.5t137 63t188.5 24.5t188.5 -24.5t137.5 -63t89 -89.5t51 -100.5t15 -99.5q0 -56 -18.5 -106.5t-44.5 -85t-60.5 -63.5t-58.5 -44t-47 -25 q46 -14 91.5 -43t87 -72t67.5 -104.5t26 -130.5q0 -195 -139.5 -317.5t-384.5 -122.5q-251 0 -387.5 110t-136.5 299zM418 422q0 -62 46.5 -112t141.5 -50q83 0 136 46.5t53 115.5q0 73 -74 131.5t-135 58.5q-78 -21 -123 -70t-45 -120zM463 1085q0 -51 42 -99.5t116 -70.5 q52 20 91.5 67.5t39.5 102.5q0 41 -38.5 78t-103.5 37q-67 0 -107 -39t-40 -76z" />
<glyph unicode="9" horiz-adv-x="1236" d="M82 952q0 146 61 263.5t184.5 188.5t290.5 71q110 0 201.5 -31.5t152.5 -83.5t103 -120.5t61 -141t19 -146.5q0 -87 -40 -199.5t-99 -216t-135.5 -212t-138.5 -185.5t-119 -139h-398q76 80 165.5 195t141.5 189l52 75q-147 0 -263 67.5t-177.5 179.5t-61.5 246zM418 952 q0 -105 82.5 -173t220.5 -68q11 14 27.5 37.5t43.5 87t27 116.5q0 59 -21.5 112t-68.5 89.5t-111 36.5q-93 0 -146.5 -63.5t-53.5 -174.5z" />
<glyph unicode=":" horiz-adv-x="552" d="M102 158q0 72 51 123t123 51t123.5 -51t51.5 -123q0 -73 -51.5 -123.5t-123.5 -50.5t-123 50.5t-51 123.5zM102 735q0 72 51 123t123 51t123.5 -51t51.5 -123t-51.5 -123t-123.5 -51t-123 51t-51 123z" />
<glyph unicode=";" horiz-adv-x="552" d="M102 156q0 72 52 124t125 52q71 0 121.5 -53t50.5 -123q0 -42 -45 -140l-146 -317l-121 41l66 235q-38 22 -70.5 66.5t-32.5 114.5zM102 735q0 72 51 123t123 51t123.5 -51t51.5 -123t-51.5 -123t-123.5 -51t-123 51t-51 123z" />
<glyph unicode="&#x3c;" horiz-adv-x="1021" d="M164 516v248l694 385v-301l-420 -207l420 -209v-301z" />
<glyph unicode="=" horiz-adv-x="1024" d="M164 334v229h696v-229h-696zM164 727v229h696v-229h-696z" />
<glyph unicode="&#x3e;" horiz-adv-x="1021" d="M164 131v301l420 209l-420 207v301l694 -385v-248z" />
<glyph unicode="?" horiz-adv-x="1032" d="M102 1386q74 34 179.5 61.5t212.5 27.5q247 0 351.5 -95.5t104.5 -279.5q0 -79 -16 -138t-51.5 -103t-70.5 -71t-93 -63q-8 -5 -36.5 -21.5t-40 -24t-35 -23.5t-34 -27t-24.5 -27t-19.5 -32t-5.5 -33v-103h-329v101q0 72 16 125.5t52 92.5t61 58t77 51l9 6 q70 44 108.5 72.5t57 53t22.5 41t4 46.5q0 109 -145 109q-60 0 -121 -16t-92 -32l-31 -16zM188 158q0 72 51 123t123 51t123.5 -51t51.5 -123q0 -73 -51.5 -123.5t-123.5 -50.5t-123 50.5t-51 123.5z" />
<glyph unicode="@" horiz-adv-x="1832" d="M92 399q0 191 66.5 349t182 262.5t271.5 161.5t336 57q161 0 303 -44t252 -126t174 -211.5t64 -288.5q0 -135 -42 -246.5t-110 -181.5t-152 -108.5t-171 -38.5q-74 0 -132 30.5t-90 79.5q-78 -110 -227 -110q-64 0 -121 22.5t-104 67t-75 120.5t-28 175q0 231 109.5 358 t290.5 127q108 0 194 -59l64 51l162 -37l-45 -457q-9 -115 -9 -116q0 -35 35 -35q11 0 31.5 8.5t50 33t55 61t44 101t18.5 144.5q0 217 -142 336t-399 119q-116 0 -214 -31t-169.5 -86.5t-121.5 -131t-74.5 -166t-24.5 -190.5q0 -270 131.5 -409.5t353.5 -139.5 q71 0 143.5 7t109.5 15l36 7l58 -213q-18 -6 -50 -14.5t-121.5 -22.5t-168.5 -14q-162 0 -297 51t-235 147.5t-156 246.5t-56 339zM770 369q0 -86 35.5 -127t75.5 -41q75 0 114 45v1v1v1v1v1v1v1v9q0 66 9 146l22 208q-33 17 -72 17q-94 0 -139 -65.5t-45 -198.5z" />
<glyph unicode="A" d="M10 0l389 1458h490l389 -1458h-338l-68 246h-460l-66 -246h-336zM496 549h295l-148 590z" />
<glyph unicode="B" horiz-adv-x="1200" d="M113 0v1458h508q477 0 477 -389q0 -100 -43.5 -178t-96.5 -123q96 -42 143.5 -118.5t47.5 -198.5q0 -153 -55 -249.5t-189 -149t-358 -52.5h-434zM442 291h162q113 0 162 36.5t49 123.5q0 77 -39 110t-121 33h-213v-303zM442 883h179q81 0 116 38t35 113q0 55 -37.5 93 t-99.5 38h-193v-282z" />
<glyph unicode="C" horiz-adv-x="1394" d="M72 727q0 153 59 291.5t159 238.5t238 159t291 59q151 0 286 -56t238 -157l-223 -228q-55 61 -134 94t-167 33q-170 0 -289.5 -127.5t-119.5 -306.5q0 -177 119.5 -303.5t289.5 -126.5q88 0 167 33t134 94l223 -227q-103 -101 -238 -157t-286 -56q-153 0 -291 58.5 t-238 158t-159 237t-59 289.5z" />
<glyph unicode="D" horiz-adv-x="1296" d="M113 0v1458h499q142 0 245.5 -32.5t170 -91t106 -151.5t55 -201t15.5 -253t-15.5 -253t-55 -201t-106 -151.5t-170 -91t-245.5 -32.5h-499zM442 303h187q60 0 101.5 17t67.5 48t40 86t19 118t5 157q0 95 -5 158t-19 117.5t-40 85t-67.5 47t-101.5 16.5h-187v-850z" />
<glyph unicode="E" horiz-adv-x="1071" d="M113 0v1458h841v-305h-512v-246h512v-303h-512v-301h516v-303h-845z" />
<glyph unicode="F" horiz-adv-x="1056" d="M113 0v1458h852v-305h-523v-246h482v-303h-482v-604h-329z" />
<glyph unicode="G" horiz-adv-x="1445" d="M72 727q0 153 59 291.5t159 238.5t238 159t291 59q151 0 286 -56t238 -157l-223 -228q-55 61 -134 94t-167 33q-170 0 -289.5 -127.5t-119.5 -306.5q0 -177 119.5 -303.5t289.5 -126.5q108 0 197 47v342h327v-489q-103 -101 -238 -157t-286 -56q-153 0 -291 58.5 t-238 158t-159 237t-59 289.5z" />
<glyph unicode="H" horiz-adv-x="1304" d="M113 0v1458h329v-551h420v551h330v-1458h-330v604h-420v-604h-329z" />
<glyph unicode="I" horiz-adv-x="555" d="M113 0v1458h329v-1458h-329z" />
<glyph unicode="J" horiz-adv-x="827" d="M10 53l86 283q10 -6 26.5 -15t63 -24.5t86.5 -15.5q67 0 95 33t28 96v1048h330v-1085q0 -71 -23.5 -137t-72 -124t-135.5 -93t-201 -35q-57 0 -128 17t-113 35z" />
<glyph unicode="K" horiz-adv-x="1224" d="M113 0v1458h329v-557l383 557h369l-414 -592l445 -866h-355l-295 588l-133 -193v-395h-329z" />
<glyph unicode="L" horiz-adv-x="985" d="M113 -2v1460h329v-1157h492v-303h-821z" />
<glyph unicode="M" horiz-adv-x="1462" d="M113 0v1458h309l309 -596l307 596h312v-1458h-330v762l-272 -453h-33l-273 453v-762h-329z" />
<glyph unicode="N" horiz-adv-x="1304" d="M113 0v1458h303l446 -799v799h330v-1458h-320l-430 758v-758h-329z" />
<glyph unicode="O" horiz-adv-x="1384" d="M72 1249q0 168 83 311t226 226.5t311 83.5t311 -83.5t226.5 -226.5t83.5 -311t-83.5 -311t-226.5 -226t-311 -83q-126 0 -241 49t-198 132t-132 198t-49 241zM385 1249q0 -132 89 -225.5t218 -93.5t218 93.5t89 225.5t-89 225t-218 93t-218 -93t-89 -225z" />
<glyph unicode="P" horiz-adv-x="1257" d="M113 0v1458h505q298 0 428 -116.5t130 -374.5q0 -265 -139 -379.5t-421 -114.5h-174v-473h-329zM442 772h176q128 0 177 48t49 147q0 109 -49 150.5t-177 41.5h-176v-387z" />
<glyph unicode="Q" horiz-adv-x="1636" d="M72 727q0 153 59 291.5t159 238.5t238 159t291 59q203 0 374.5 -100t271.5 -272t100 -376q0 -263 -164 -465t-414 -260v-10q0 -41 25.5 -76t79.5 -35q34 0 78.5 11.5t71.5 22.5l28 11l86 -262q-18 -8 -48 -20.5t-109.5 -33t-143.5 -20.5q-187 0 -301.5 112t-114.5 288v14 q-248 60 -407.5 261.5t-159.5 461.5zM410 727q0 -177 119.5 -303.5t289.5 -126.5q169 0 288.5 126.5t119.5 303.5q0 117 -54.5 217t-148.5 158.5t-205 58.5q-170 0 -289.5 -127.5t-119.5 -306.5z" />
<glyph unicode="R" horiz-adv-x="1257" d="M113 0v1458h505q282 0 421 -108t139 -351q0 -406 -273 -487l312 -512h-367l-293 479h-115v-479h-329zM442 778h181q126 0 173.5 44.5t47.5 144.5q0 107 -49 149.5t-177 42.5h-176v-381z" />
<glyph unicode="S" horiz-adv-x="1064" d="M41 117l129 245q0 -3 45.5 -25.5t122 -46.5t139.5 -24q201 0 201 129q0 47 -54.5 90.5t-208.5 134.5q-3 2 -5 3l-4 2q-132 78 -201.5 138t-104 135t-34.5 179q0 181 140.5 289.5t350.5 108.5q68 0 135 -10t114 -23.5t84 -27.5t55 -24l18 -10l-119 -254q-15 7 -42 18 t-102.5 29.5t-142.5 18.5q-61 0 -104 -24.5t-43 -71.5q0 -55 49 -101.5t190 -126.5q222 -128 298.5 -220t76.5 -232q-2 -186 -149.5 -309t-399.5 -123q-124 0 -251.5 43.5t-182.5 89.5z" />
<glyph unicode="T" horiz-adv-x="1067" d="M20 1153v305h1027v-305h-349v-1153h-329v1153h-349z" />
<glyph unicode="U" horiz-adv-x="1320" d="M102 563v895h330v-868q0 -177 51 -243t179 -66t177.5 65.5t49.5 243.5v868h330v-895q0 -155 -38 -267.5t-112 -180t-174.5 -99.5t-232.5 -32q-271 0 -415.5 137.5t-144.5 441.5z" />
<glyph unicode="V" d="M10 1458h336l297 -1122l297 1122h338l-389 -1458h-490z" />
<glyph unicode="W" horiz-adv-x="1720" d="M20 1458h342l177 -954l182 954h278l183 -954l176 954h342l-332 -1458h-338l-172 856l-168 -856h-338z" />
<glyph unicode="X" horiz-adv-x="1183" d="M0 0l410 737l-398 721h361l225 -430l225 430h361l-406 -733l402 -725h-361l-229 434l-230 -434h-360z" />
<glyph unicode="Y" horiz-adv-x="1107" d="M0 1458h348l207 -491l203 491h350l-389 -805v-653h-330v653z" />
<glyph unicode="Z" horiz-adv-x="1140" d="M61 0v303l615 850h-584v305h977v-305l-614 -850h624v-303h-1018z" />
<glyph unicode="[" horiz-adv-x="870" d="M164 -143v1679h624v-242h-321v-1196h321v-241h-624z" />
<glyph unicode="\" horiz-adv-x="1024" d="M82 1458h276l584 -1458h-274z" />
<glyph unicode="]" horiz-adv-x="870" d="M82 98h321v1196h-321v242h625v-1679h-625v241z" />
<glyph unicode="^" horiz-adv-x="1087" d="M164 772l256 412h246l258 -412l-201 -115l-180 273l-181 -273z" />
<glyph unicode="_" horiz-adv-x="1044" d="M102 -82h840v-242h-840v242z" />
<glyph unicode="`" horiz-adv-x="567" d="M102 1526h291l72 -348h-178z" />
<glyph unicode="a" d="M10 0l389 1458h490l389 -1458h-338l-68 246h-460l-66 -246h-336zM496 549h295l-148 590z" />
<glyph unicode="b" horiz-adv-x="1200" d="M113 0v1458h508q477 0 477 -389q0 -100 -43.5 -178t-96.5 -123q96 -42 143.5 -118.5t47.5 -198.5q0 -153 -55 -249.5t-189 -149t-358 -52.5h-434zM442 291h162q113 0 162 36.5t49 123.5q0 77 -39 110t-121 33h-213v-303zM442 883h179q81 0 116 38t35 113q0 55 -37.5 93 t-99.5 38h-193v-282z" />
<glyph unicode="c" horiz-adv-x="1394" d="M72 727q0 153 59 291.5t159 238.5t238 159t291 59q151 0 286 -56t238 -157l-223 -228q-55 61 -134 94t-167 33q-170 0 -289.5 -127.5t-119.5 -306.5q0 -177 119.5 -303.5t289.5 -126.5q88 0 167 33t134 94l223 -227q-103 -101 -238 -157t-286 -56q-153 0 -291 58.5 t-238 158t-159 237t-59 289.5z" />
<glyph unicode="d" horiz-adv-x="1296" d="M113 0v1458h499q142 0 245.5 -32.5t170 -91t106 -151.5t55 -201t15.5 -253t-15.5 -253t-55 -201t-106 -151.5t-170 -91t-245.5 -32.5h-499zM442 303h187q60 0 101.5 17t67.5 48t40 86t19 118t5 157q0 95 -5 158t-19 117.5t-40 85t-67.5 47t-101.5 16.5h-187v-850z" />
<glyph unicode="e" horiz-adv-x="1071" d="M113 0v1458h841v-305h-512v-246h512v-303h-512v-301h516v-303h-845z" />
<glyph unicode="f" horiz-adv-x="1056" d="M113 0v1458h852v-305h-523v-246h482v-303h-482v-604h-329z" />
<glyph unicode="g" horiz-adv-x="1445" d="M72 727q0 153 59 291.5t159 238.5t238 159t291 59q151 0 286 -56t238 -157l-223 -228q-55 61 -134 94t-167 33q-170 0 -289.5 -127.5t-119.5 -306.5q0 -177 119.5 -303.5t289.5 -126.5q108 0 197 47v342h327v-489q-103 -101 -238 -157t-286 -56q-153 0 -291 58.5 t-238 158t-159 237t-59 289.5z" />
<glyph unicode="h" horiz-adv-x="1304" d="M113 0v1458h329v-551h420v551h330v-1458h-330v604h-420v-604h-329z" />
<glyph unicode="i" horiz-adv-x="555" d="M113 0v1458h329v-1458h-329z" />
<glyph unicode="j" horiz-adv-x="827" d="M10 53l86 283q10 -6 26.5 -15t63 -24.5t86.5 -15.5q67 0 95 33t28 96v1048h330v-1085q0 -71 -23.5 -137t-72 -124t-135.5 -93t-201 -35q-57 0 -128 17t-113 35z" />
<glyph unicode="k" horiz-adv-x="1224" d="M113 0v1458h329v-557l383 557h369l-414 -592l445 -866h-355l-295 588l-133 -193v-395h-329z" />
<glyph unicode="l" horiz-adv-x="985" d="M113 -2v1460h329v-1157h492v-303h-821z" />
<glyph unicode="m" horiz-adv-x="1462" d="M113 0v1458h309l309 -596l307 596h312v-1458h-330v762l-272 -453h-33l-273 453v-762h-329z" />
<glyph unicode="n" horiz-adv-x="1304" d="M113 0v1458h303l446 -799v799h330v-1458h-320l-430 758v-758h-329z" />
<glyph unicode="o" horiz-adv-x="1636" d="M72 727q0 153 59 291.5t159 238.5t238 159t291 59q203 0 374.5 -100t271.5 -272t100 -376q0 -152 -59 -289.5t-159 -237t-238 -158t-290 -58.5q-153 0 -291 58.5t-238 158t-159 237t-59 289.5zM410 727q0 -177 119.5 -303.5t289.5 -126.5q169 0 288.5 126.5t119.5 303.5 q0 117 -54.5 217t-148.5 158.5t-205 58.5q-170 0 -289.5 -127.5t-119.5 -306.5z" />
<glyph unicode="p" horiz-adv-x="1257" d="M113 0v1458h505q298 0 428 -116.5t130 -374.5q0 -265 -139 -379.5t-421 -114.5h-174v-473h-329zM442 772h176q128 0 177 48t49 147q0 109 -49 150.5t-177 41.5h-176v-387z" />
<glyph unicode="q" horiz-adv-x="1636" d="M72 727q0 153 59 291.5t159 238.5t238 159t291 59q203 0 374.5 -100t271.5 -272t100 -376q0 -263 -164 -465t-414 -260v-10q0 -41 25.5 -76t79.5 -35q34 0 78.5 11.5t71.5 22.5l28 11l86 -262q-18 -8 -48 -20.5t-109.5 -33t-143.5 -20.5q-187 0 -301.5 112t-114.5 288v14 q-248 60 -407.5 261.5t-159.5 461.5zM410 727q0 -177 119.5 -303.5t289.5 -126.5q169 0 288.5 126.5t119.5 303.5q0 117 -54.5 217t-148.5 158.5t-205 58.5q-170 0 -289.5 -127.5t-119.5 -306.5z" />
<glyph unicode="r" horiz-adv-x="1257" d="M113 0v1458h505q282 0 421 -108t139 -351q0 -406 -273 -487l312 -512h-367l-293 479h-115v-479h-329zM442 778h181q126 0 173.5 44.5t47.5 144.5q0 107 -49 149.5t-177 42.5h-176v-381z" />
<glyph unicode="s" horiz-adv-x="1064" d="M41 117l129 245q0 -3 45.5 -25.5t122 -46.5t139.5 -24q201 0 201 129q0 47 -54.5 90.5t-208.5 134.5q-3 2 -5 3l-4 2q-132 78 -201.5 138t-104 135t-34.5 179q0 181 140.5 289.5t350.5 108.5q68 0 135 -10t114 -23.5t84 -27.5t55 -24l18 -10l-119 -254q-15 7 -42 18 t-102.5 29.5t-142.5 18.5q-61 0 -104 -24.5t-43 -71.5q0 -55 49 -101.5t190 -126.5q222 -128 298.5 -220t76.5 -232q-2 -186 -149.5 -309t-399.5 -123q-124 0 -251.5 43.5t-182.5 89.5z" />
<glyph unicode="t" horiz-adv-x="1067" d="M20 1153v305h1027v-305h-349v-1153h-329v1153h-349z" />
<glyph unicode="u" horiz-adv-x="1320" d="M102 563v895h330v-868q0 -177 51 -243t179 -66t177.5 65.5t49.5 243.5v868h330v-895q0 -155 -38 -267.5t-112 -180t-174.5 -99.5t-232.5 -32q-271 0 -415.5 137.5t-144.5 441.5z" />
<glyph unicode="v" d="M10 1458h336l297 -1122l297 1122h338l-389 -1458h-490z" />
<glyph unicode="w" horiz-adv-x="1720" d="M20 1458h342l177 -954l182 954h278l183 -954l176 954h342l-332 -1458h-338l-172 856l-168 -856h-338z" />
<glyph unicode="x" horiz-adv-x="1183" d="M0 0l410 737l-398 721h361l225 -430l225 430h361l-406 -733l402 -725h-361l-229 434l-230 -434h-360z" />
<glyph unicode="y" horiz-adv-x="1107" d="M0 1458h348l207 -491l203 491h350l-389 -805v-653h-330v653z" />
<glyph unicode="z" horiz-adv-x="1140" d="M61 0v303l615 850h-584v305h977v-305l-614 -850h624v-303h-1018z" />
<glyph unicode="{" horiz-adv-x="806" d="M82 582v229q45 0 72 5t50 21t32.5 48.5t9.5 85.5v211q0 195 100 274.5t320 79.5h79v-242h-51q-39 0 -59 -1.5t-39 -11.5t-26 -22t-13 -45t-7 -68t-1 -102v-98q0 -190 -82 -250q82 -60 82 -250v-98q0 -67 1 -102t7 -68t13 -45t26 -22t39 -11.5t59 -1.5h51v-241h-79 q-220 0 -320 79.5t-100 274.5v211q0 53 -9.5 85.5t-32.5 48.5t-50 21t-72 5z" />
<glyph unicode="|" horiz-adv-x="692" d="M195 -369v1827h303v-1827h-303z" />
<glyph unicode="}" horiz-adv-x="806" d="M61 98h52q39 0 59 1.5t39 11.5t26 22t13 45t7 68t1 102v98q0 190 82 250q-82 60 -82 250v98q0 67 -1 102t-7 68t-13 45t-26 22t-39 11.5t-59 1.5h-52v242h80q220 0 320 -79.5t100 -274.5v-211q0 -53 9.5 -85.5t32.5 -48.5t50 -21t72 -5v-229q-45 0 -72 -5t-50 -21 t-32.5 -48.5t-9.5 -85.5v-211q0 -195 -100 -274.5t-320 -79.5h-80v241z" />
<glyph unicode="~" horiz-adv-x="1206" d="M164 797q22 103 93.5 174t182.5 71q50 0 116.5 -29t123 -58t82.5 -29q77 0 115 116l165 -51q-22 -103 -93.5 -174.5t-182.5 -71.5q-47 0 -114.5 28.5t-125.5 57.5t-82 29q-78 0 -114 -117z" />
<glyph unicode="&#xa1;" horiz-adv-x="552" d="M102 932q0 73 51 123.5t123 50.5t123.5 -50.5t51.5 -123.5q0 -72 -51.5 -123t-123.5 -51t-123 51t-51 123zM111 -123l49 778h233l49 -778v-246h-331v246z" />
<glyph unicode="&#xa2;" horiz-adv-x="942" d="M113 516q0 400 262 500v284h276v-258q48 -6 97.5 -22.5t74 -28.5t37.5 -20l-104 -223q-85 36 -164 36q-96 0 -128 -58t-32 -210q0 -151 31.5 -210.5t132.5 -59.5q37 0 77 7t61 14l22 7l84 -229q-81 -40 -189 -55v-258h-276v282q-76 27 -129.5 77t-81.5 118.5t-39.5 142 t-11.5 164.5z" />
<glyph unicode="&#xa3;" horiz-adv-x="1204" d="M143 0v303h279q0 183 -43 260h-236v225h103q-99 163 -99 316q0 158 136.5 264.5t355.5 106.5q69 0 135.5 -10t112 -24.5t81.5 -29.5t53 -25l17 -10l-118 -264q-14 9 -37.5 22t-91.5 34.5t-129 21.5q-75 0 -119.5 -36.5t-44.5 -104.5q0 -24 5 -48.5t18.5 -56t21 -47.5 t30 -57.5t27.5 -51.5h408v-225h-303q47 -125 47 -260h350v-303h-959z" />
<glyph unicode="&#xa4;" horiz-adv-x="1536" d="M164 295l145 147q-53 106 -53 230q0 123 53 229l-145 148l227 227l148 -148q111 54 229 54t229 -54l148 148l227 -227l-145 -148q53 -106 53 -229q0 -124 -53 -230l145 -147l-227 -227l-148 147q-109 -53 -229 -53t-229 53l-148 -147zM590 672q0 -74 52 -126t126 -52 t126 52t52 126t-52 126t-126 52t-126 -52t-52 -126z" />
<glyph unicode="&#xa5;" horiz-adv-x="1107" d="M0 1458h348l207 -491l203 491h350l-307 -635h153v-225h-235v-106h235v-226h-235v-266h-330v266h-235v226h235v106h-235v225h153z" />
<glyph unicode="&#xa6;" horiz-adv-x="692" d="M195 -369v738h303v-738h-303zM195 696v762h303v-762h-303z" />
<glyph unicode="&#xa7;" horiz-adv-x="1181" d="M164 731q0 66 37 129t92 113q-25 29 -43.5 83t-18.5 115q0 133 114.5 218.5t275.5 85.5q91 0 171.5 -18t115.5 -36l34 -18l-106 -209q-101 39 -193 39q-45 0 -69.5 -16.5t-24.5 -42.5q0 -32 26.5 -52t110.5 -51q188 -67 260 -145.5t72 -200.5q0 -138 -133 -240 q67 -81 67 -184q0 -139 -112 -228t-283 -89q-57 0 -110.5 7t-90 17t-64.5 20.5t-41 17.5l-13 7l108 209q107 -39 193 -39q53 0 74.5 19.5t21.5 42.5q0 32 -27.5 52.5t-111.5 51.5q-195 71 -263.5 140.5t-68.5 201.5zM481 721q0 -25 21 -41t102 -45q96 30 96 98q0 25 -21 42 t-101 46q-97 -33 -97 -100z" />
<glyph unicode="&#xa8;" horiz-adv-x="909" d="M102 1321q0 60 40.5 100.5t99.5 40.5q60 0 100.5 -40.5t40.5 -100.5q0 -59 -40.5 -99t-100.5 -40q-59 0 -99.5 40.5t-40.5 98.5zM526 1321q0 60 40.5 100.5t99.5 40.5q60 0 100.5 -40.5t40.5 -100.5q0 -59 -40.5 -99t-100.5 -40q-59 0 -99.5 40.5t-40.5 98.5z" />
<glyph unicode="&#xa9;" horiz-adv-x="1773" d="M143 729q0 151 59 289t158.5 238t237.5 159.5t289 59.5q202 0 373 -100.5t270.5 -272t99.5 -373.5q0 -151 -59 -289t-158.5 -238t-237 -159t-288.5 -59q-121 0 -234.5 37.5t-205 107t-160.5 161t-106.5 205t-37.5 234.5zM248 729q0 -129 51 -249t136.5 -208t204 -141 t247.5 -53t247.5 53t204 141t136.5 208t51 249t-51 249t-136.5 208t-204 141t-247.5 53t-247.5 -53t-204 -141t-136.5 -208t-51 -249zM541 725q0 109 17.5 190.5t57.5 144.5t111 95.5t172 32.5q41 0 93.5 -12t85.5 -24l32 -13l-70 -176q-63 22 -135 22q-74 0 -104.5 -61.5 t-30.5 -198.5t31 -199.5t104 -62.5q38 0 74 8.5t53 17.5l17 9l81 -176q-135 -60 -231 -60q-81 0 -143 22t-102.5 61t-66 98t-36 127.5t-10.5 154.5z" />
<glyph unicode="&#xaa;" horiz-adv-x="811" d="M102 952q0 34 8.5 64.5t32 63t62 55.5t103.5 38t151 15h43v24q0 15 -4 29t-14 30.5t-32.5 26t-54.5 9.5q-36 0 -83.5 -6.5t-77.5 -12.5l-29 -6l-41 156q105 37 250 37q58 0 107.5 -11.5t92.5 -36.5t68 -72t25 -112v-516h-172l-29 59q-82 -69 -184 -69q-74 0 -126 36.5 t-74 88t-22 110.5zM305 969q0 -44 27 -65t65 -21q57 0 105 55v106h-74q-60 0 -91.5 -20t-31.5 -55z" />
<glyph unicode="&#xab;" horiz-adv-x="1206" d="M143 467v94l310 432l168 -100l-218 -377l218 -381l-168 -100zM625 467v94l311 432l168 -100l-217 -377l217 -381l-168 -100z" />
<glyph unicode="&#xac;" horiz-adv-x="1146" d="M164 727v229h819v-424h-319v195h-500z" />
<glyph unicode="&#xad;" horiz-adv-x="839" d="M164 391v250h512v-250h-512z" />
<glyph unicode="&#xae;" horiz-adv-x="1314" d="M143 961q0 139 68.5 257.5t187 187.5t258.5 69q139 0 257.5 -69t187.5 -187.5t69 -257.5t-69 -258t-187.5 -188t-257.5 -69q-140 0 -258.5 69.5t-187 188t-68.5 257.5zM236 961q0 -115 56 -214.5t153.5 -159t211.5 -59.5q113 0 210.5 59.5t154.5 159t57 214.5t-57 214.5 t-154.5 158.5t-210.5 59q-114 0 -211.5 -59t-153.5 -158.5t-56 -214.5zM442 668v594h207q132 0 193 -55.5t61 -151.5q0 -77 -29 -121.5t-86 -65.5l115 -200h-158l-102 182h-39v-182h-162zM604 989h53q48 0 66 16t18 48q0 34 -18 49.5t-66 15.5h-53v-129z" />
<glyph unicode="&#xaf;" horiz-adv-x="716" d="M102 1239v164h512v-164h-512z" />
<glyph unicode="&#xb0;" horiz-adv-x="591" d="M82 1262q0 89 62.5 151t150.5 62q89 0 152 -62t63 -151q0 -88 -63 -150.5t-152 -62.5q-88 0 -150.5 62.5t-62.5 150.5zM231 1262q0 -26 19 -45t45 -19q27 0 46 19t19 45q0 28 -18.5 46.5t-46.5 18.5q-27 0 -45.5 -18.5t-18.5 -46.5z" />
<glyph unicode="&#xb1;" horiz-adv-x="1024" d="M164 143v230h694v-230h-694zM164 733v232h233v233h230v-233h233v-232h-233v-231h-230v231h-233z" />
<glyph unicode="&#xb2;" horiz-adv-x="669" d="M31 737v154q0 99 168 239q86 74 127 121t41 90q0 30 -18.5 47t-49.5 17t-72.5 -11.5t-67.5 -22.5l-26 -11l-76 168q37 24 117.5 46.5t167.5 22.5q122 0 194 -57.5t72 -153.5q0 -102 -44.5 -175t-131.5 -144q-8 -7 -24 -20.5t-26 -22t-24 -20.5t-22 -20l-16.5 -16.5 t-12.5 -14.5t-4 -9h305v-207h-577z" />
<glyph unicode="&#xb3;" horiz-adv-x="673" d="M20 795l84 168q84 -50 152 -50q50 0 80.5 24t30.5 60q0 86 -95 86h-141v168h148q42 0 68 23t26 59q0 27 -21.5 49.5t-58.5 22.5q-40 0 -83.5 -11.5t-67.5 -22.5l-23 -11l-76 168q48 30 128.5 49.5t141.5 19.5q154 0 226.5 -60t72.5 -163q0 -131 -88 -205q34 -26 58 -72.5 t24 -101.5q0 -126 -90.5 -200t-255.5 -74q-52 0 -123 22t-117 52z" />
<glyph unicode="&#xb4;" horiz-adv-x="567" d="M102 1178l72 348h291l-184 -348h-179z" />
<glyph unicode="&#xb5;" horiz-adv-x="1206" d="M164 -369v1393h319v-766q3 -4 9 -10t31 -16.5t57 -10.5q74 0 143 55v748h319v-1024h-258l-34 94q-23 -46 -71 -78t-116 -32q-19 0 -39 4.5t-30 9.5l-11 4v-371h-319z" />
<glyph unicode="&#xb6;" horiz-adv-x="1722" d="M164 958q0 104 27.5 191.5t85 158t156.5 110.5t231 40h895v-1827h-318v1512h-231v-1512h-318v818q-113 2 -202 27t-149.5 69t-100.5 107.5t-58 139t-18 166.5z" />
<glyph unicode="&#xb7;" horiz-adv-x="626" d="M164 516q0 62 44 106t105 44t105.5 -44t44.5 -106q0 -61 -44 -105t-106 -44q-61 0 -105 43.5t-44 105.5z" />
<glyph unicode="&#xb8;" horiz-adv-x="628" d="M102 -383l41 119q92 -17 133 -17q40 0 61 16t21 42q0 23 -15 35t-38 12q-16 0 -41.5 -2.5t-43.5 -5.5l-17 -2l-33 69l96 137h105l-35 -81h12q88 0 133 -43.5t45 -114.5q0 -91 -69.5 -141t-175.5 -50q-42 0 -86.5 7t-68.5 13z" />
<glyph unicode="&#xb9;" horiz-adv-x="684" d="M72 1495l211 86h209v-637h141v-207h-539v207h172v416l-131 -47z" />
<glyph unicode="&#xba;" horiz-adv-x="866" d="M102 1096q0 175 81 277t251 102q169 0 249.5 -102.5t80.5 -276.5q0 -173 -80.5 -276t-249.5 -103q-170 0 -251 103t-81 276zM322 1096q0 -110 25.5 -157.5t86.5 -47.5q60 0 86.5 48t26.5 157q0 111 -26 156.5t-87 45.5q-62 0 -87 -45t-25 -157z" />
<glyph unicode="&#xbb;" horiz-adv-x="1206" d="M102 135l217 381l-217 377l168 100l312 -432v-94l-312 -432zM586 135l217 381l-217 377l168 100l309 -432v-94l-309 -432z" />
<glyph unicode="&#xbc;" horiz-adv-x="2115" d="M164 1495l211 86h209v-637h141v-207h-539v207h172v416l-131 -47zM543 0l788 1458h260l-788 -1458h-260zM1266 -16v166l250 489h327v-455h109v-200h-109v-189h-225v189h-352zM1493 184h125v265z" />
<glyph unicode="&#xbd;" horiz-adv-x="2127" d="M164 1495l211 86h209v-637h141v-207h-539v207h172v416l-131 -47zM543 0l788 1458h260l-788 -1458h-260zM1386 -51q0 99 168 239q86 74 127 121t41 90q0 30 -18 47t-49 17t-72.5 -11.5t-67.5 -22.5l-26 -11l-76 168q37 24 117.5 46.5t167.5 22.5q122 0 194 -57.5 t72 -153.5q0 -102 -44.5 -175t-131.5 -144q-8 -7 -24 -20.5t-26 -22t-24 -20.5t-22 -20l-16.5 -16.5t-12.5 -14.5t-4 -9h305v-207h-578v154z" />
<glyph unicode="&#xbe;" horiz-adv-x="2062" d="M164 795l84 168q83 -50 151 -50q50 0 80.5 24t30.5 60q0 86 -94 86h-142v168h148q42 0 68 23t26 59q0 27 -21.5 49.5t-58.5 22.5q-40 0 -83.5 -11.5t-66.5 -22.5l-24 -11l-76 168q48 30 128.5 49.5t142.5 19.5q154 0 226.5 -60t72.5 -163q0 -131 -88 -205 q34 -26 58 -72.5t24 -101.5q0 -126 -91 -200t-256 -74q-52 0 -122 22t-117 52zM496 0l788 1458h260l-788 -1458h-260zM1212 -16v166l250 489h328v-455h108v-200h-108v-189h-225v189h-353zM1440 184h125v265z" />
<glyph unicode="&#xbf;" horiz-adv-x="1011" d="M82 -10q0 79 16 138t51.5 103t70.5 71t93 63q8 5 36.5 21.5t40 24t35 23.5t34 27t24.5 27t19.5 32t5.5 33v102h330v-100q0 -43 -7.5 -81t-16.5 -64.5t-29.5 -53.5t-33 -41.5t-42.5 -36.5t-41 -29t-45 -28q-70 -44 -109 -72.5t-57.5 -53t-22.5 -41t-4 -46.5 q0 -108 145 -108q60 0 121 16t92 32l31 15l111 -260q-73 -34 -178.5 -61t-212.5 -27q-247 0 -352 95.5t-105 279.5zM496 932q0 73 51 123.5t123 50.5t123 -50.5t51 -123.5q0 -72 -51 -123t-123 -51t-123 51t-51 123z" />
<glyph unicode="&#xc0;" d="M10 0l389 1458h490l389 -1458h-338l-68 246h-460l-66 -246h-336zM317 1946h312l119 -369h-199zM496 549h295l-148 590z" />
<glyph unicode="&#xc1;" d="M10 0l389 1458h490l389 -1458h-338l-68 246h-460l-66 -246h-336zM496 549h295l-148 590zM535 1577l116 369h314l-232 -369h-198z" />
<glyph unicode="&#xc2;" d="M10 0l389 1458h490l389 -1458h-338l-68 246h-460l-66 -246h-336zM293 1577l239 313h220l239 -313h-243l-105 158l-106 -158h-244zM496 549h295l-148 590z" />
<glyph unicode="&#xc3;" d="M10 0l389 1458h490l389 -1458h-338l-68 246h-460l-66 -246h-336zM188 1653q32 143 99.5 207.5t185.5 64.5q53 0 117 -32.5t119 -64.5t84 -32q18 0 31.5 10.5t23 32t13 34t9.5 36.5l209 -60q-30 -136 -96.5 -204t-185.5 -68q-53 0 -118 32.5t-119 64.5t-81 32 q-33 0 -51.5 -27t-30.5 -86zM496 549h295l-148 590z" />
<glyph unicode="&#xc4;" d="M10 0l389 1458h490l389 -1458h-338l-68 246h-460l-66 -246h-336zM279 1755q0 63 41 105.5t104 42.5t105 -42.5t42 -105.5t-42 -105t-105 -42t-104 42t-41 105zM496 549h295l-148 590zM715 1755q0 63 42 105.5t105 42.5q62 0 105 -42.5t43 -105.5t-43 -105t-105 -42 q-63 0 -105 42t-42 105z" />
<glyph unicode="&#xc5;" d="M10 0l389 1458h490l389 -1458h-338l-68 246h-460l-66 -246h-336zM444 1776q0 83 58 140.5t141 57.5t141 -57.5t58 -140.5t-58 -141t-141 -58t-141 58t-58 141zM496 549h295l-148 590zM582 1776q0 -26 17.5 -44t43.5 -18t44 18t18 44t-18 43.5t-44 17.5t-43.5 -17.5 t-17.5 -43.5z" />
<glyph unicode="&#xc6;" horiz-adv-x="1875" d="M10 0l760 1458h987v-305h-491v-246h491v-303h-491v-301h497v-303h-827v332h-387l-176 -332h-363zM713 635h223v455z" />
<glyph unicode="&#xc7;" horiz-adv-x="1394" d="M72 727q0 153 59 291.5t159 238.5t238 159t291 59q151 0 286 -56t238 -157l-223 -228q-55 61 -134 94t-167 33q-170 0 -289.5 -127.5t-119.5 -306.5q0 -177 119.5 -303.5t289.5 -126.5q88 0 167 33t134 94l223 -227q-103 -101 -238 -157t-286 -56q-4 0 -12 1t-12 1 l-21 -47q17 2 31 2q69 0 115.5 -43t46.5 -115q0 -99 -74.5 -146t-190.5 -47q-44 0 -92 7t-74 15l-26 7l47 115q90 -10 139 -10q38 0 58 14.5t20 38.5q0 45 -55 45q-21 0 -45.5 -4t-38.5 -8l-14 -3l-39 62l94 129q-261 50 -432.5 254.5t-171.5 474.5z" />
<glyph unicode="&#xc8;" horiz-adv-x="1071" d="M113 0v1458h841v-305h-512v-246h512v-303h-512v-301h516v-303h-845zM231 1946h312l119 -369h-199z" />
<glyph unicode="&#xc9;" horiz-adv-x="1071" d="M113 0v1458h841v-305h-512v-246h512v-303h-512v-301h516v-303h-845zM420 1577l117 369h313l-232 -369h-198z" />
<glyph unicode="&#xca;" horiz-adv-x="1071" d="M113 0v1458h841v-305h-512v-246h512v-303h-512v-301h516v-303h-845zM201 1577l239 313h219l240 -313h-244l-104 158l-107 -158h-243z" />
<glyph unicode="&#xcb;" horiz-adv-x="1071" d="M113 0v1458h841v-305h-512v-246h512v-303h-512v-301h516v-303h-845zM170 1755q0 63 41 105.5t104 42.5t105.5 -42.5t42.5 -105.5t-42.5 -105t-105.5 -42t-104 42t-41 105zM606 1755q0 63 42.5 105.5t105.5 42.5q62 0 104.5 -42.5t42.5 -105.5t-42.5 -105t-104.5 -42 q-63 0 -105.5 42t-42.5 105z" />
<glyph unicode="&#xcc;" horiz-adv-x="555" d="M-18 1946h311l119 -369h-199zM113 0v1458h329v-1458h-329z" />
<glyph unicode="&#xcd;" horiz-adv-x="555" d="M113 0v1458h329v-1458h-329zM166 1577l117 369h313l-231 -369h-199z" />
<glyph unicode="&#xce;" horiz-adv-x="555" d="M-72 1577l240 313h219l240 -313h-244l-104 158l-107 -158h-244zM113 0v1458h329v-1458h-329z" />
<glyph unicode="&#xcf;" horiz-adv-x="555" d="M-88 1755q0 63 41 105.5t104 42.5t105.5 -42.5t42.5 -105.5t-42.5 -105t-105.5 -42t-104 42t-41 105zM113 0v1458h329v-1458h-329zM348 1755q0 63 42.5 105.5t105.5 42.5q62 0 104.5 -42.5t42.5 -105.5t-42.5 -105t-104.5 -42q-63 0 -105.5 42t-42.5 105z" />
<glyph unicode="&#xd0;" horiz-adv-x="1296" d="M0 604v260h113v594h499q142 0 245.5 -32.5t170 -91t106 -151.5t55 -201t15.5 -253t-15.5 -253t-55 -201t-106 -151.5t-170 -91t-245.5 -32.5h-499v604h-113zM442 303h187q60 0 101.5 17t67.5 48t40 86t19 118t5 157q0 95 -5 158t-19 117.5t-40 85t-67.5 47t-101.5 16.5 h-187v-289h152v-260h-152v-301z" />
<glyph unicode="&#xd1;" horiz-adv-x="1304" d="M113 0v1458h303l446 -799v799h330v-1458h-320l-430 758v-758h-329zM197 1653q32 143 99 207.5t185 64.5q53 0 117 -32.5t119 -64.5t84 -32q18 0 32 10.5t23 32t13 34.5t10 36l208 -60q-30 -136 -96.5 -204t-185.5 -68q-53 0 -118 32.5t-119 64.5t-81 32 q-33 0 -50.5 -26.5t-30.5 -86.5z" />
<glyph unicode="&#xd2;" horiz-adv-x="1636" d="M72 727q0 -152 59 -289.5t159 -237t238 -158t291 -58.5q152 0 290 58.5t238 158t159 237t59 289.5q0 204 -100 376t-271.5 272t-374.5 100q-153 0 -291 -59t-238 -159t-159 -238.5t-59 -291.5zM410 727q0 179 119.5 306.5t289.5 127.5q111 0 205 -58.5t148.5 -158.5 t54.5 -217q0 -177 -119.5 -303.5t-288.5 -126.5q-170 0 -289.5 126.5t-119.5 303.5zM487 1946h312l119 -369h-199z" />
<glyph unicode="&#xd3;" horiz-adv-x="1636" d="M72 727q0 -152 59 -289.5t159 -237t238 -158t291 -58.5q152 0 290 58.5t238 158t159 237t59 289.5q0 204 -100 376t-271.5 272t-374.5 100q-153 0 -291 -59t-238 -159t-159 -238.5t-59 -291.5zM410 727q0 179 119.5 306.5t289.5 127.5q111 0 205 -58.5t148.5 -158.5 t54.5 -217q0 -177 -119.5 -303.5t-288.5 -126.5q-170 0 -289.5 126.5t-119.5 303.5zM692 1577l117 369h313l-231 -369h-199z" />
<glyph unicode="&#xd4;" horiz-adv-x="1636" d="M72 727q0 -152 59 -289.5t159 -237t238 -158t291 -58.5q152 0 290 58.5t238 158t159 237t59 289.5q0 204 -100 376t-271.5 272t-374.5 100q-153 0 -291 -59t-238 -159t-159 -238.5t-59 -291.5zM410 727q0 179 119.5 306.5t289.5 127.5q111 0 205 -58.5t148.5 -158.5 t54.5 -217q0 -177 -119.5 -303.5t-288.5 -126.5q-170 0 -289.5 126.5t-119.5 303.5zM469 1577l240 313h219l239 -313h-243l-105 158l-106 -158h-244z" />
<glyph unicode="&#xd5;" horiz-adv-x="1636" d="M72 727q0 -152 59 -289.5t159 -237t238 -158t291 -58.5q152 0 290 58.5t238 158t159 237t59 289.5q0 204 -100 376t-271.5 272t-374.5 100q-153 0 -291 -59t-238 -159t-159 -238.5t-59 -291.5zM373 1653q32 143 99 207.5t185 64.5q53 0 117 -32.5t119 -64.5t84 -32 q18 0 32 10.5t23 32t13 34.5t10 36l209 -60q-30 -136 -97 -204t-186 -68q-53 0 -117.5 32.5t-118.5 64.5t-81 32q-33 0 -51.5 -27t-30.5 -86zM410 727q0 179 119.5 306.5t289.5 127.5q111 0 205 -58.5t148.5 -158.5t54.5 -217q0 -177 -119.5 -303.5t-288.5 -126.5 q-170 0 -289.5 126.5t-119.5 303.5z" />
<glyph unicode="&#xd6;" horiz-adv-x="1636" d="M72 727q0 -152 59 -289.5t159 -237t238 -158t291 -58.5q152 0 290 58.5t238 158t159 237t59 289.5q0 204 -100 376t-271.5 272t-374.5 100q-153 0 -291 -59t-238 -159t-159 -238.5t-59 -291.5zM410 727q0 179 119.5 306.5t289.5 127.5q111 0 205 -58.5t148.5 -158.5 t54.5 -217q0 -177 -119.5 -303.5t-288.5 -126.5q-170 0 -289.5 126.5t-119.5 303.5zM451 1755q0 63 41 105.5t104 42.5t105 -42.5t42 -105.5t-42 -105t-105 -42t-104 42t-41 105zM887 1755q0 63 42 105.5t105 42.5q62 0 105 -42.5t43 -105.5t-43 -105t-105 -42 q-63 0 -105 42t-42 105z" />
<glyph unicode="&#xd7;" horiz-adv-x="1038" d="M164 446l192 197l-192 195l160 161l196 -192l195 190l159 -159l-190 -195l190 -194l-159 -162l-195 192l-196 -192z" />
<glyph unicode="&#xd8;" horiz-adv-x="1636" d="M72 727q0 153 59 291.5t159 238.5t238 159t291 59q124 0 248 -43l70 129h256l-127 -236q139 -105 219 -261.5t80 -336.5q0 -152 -59 -289.5t-159 -237t-238 -158t-290 -58.5q-125 0 -252 43l-67 -129h-254l125 233q-139 103 -219 259.5t-80 336.5zM410 727 q0 -179 118 -303l387 725q-47 12 -96 12q-170 0 -289.5 -127.5t-119.5 -306.5zM719 309q49 -12 100 -12q169 0 288.5 126.5t119.5 303.5q0 176 -119 305z" />
<glyph unicode="&#xd9;" horiz-adv-x="1320" d="M102 563v895h330v-868q0 -177 51 -243t179 -66t177.5 65.5t49.5 243.5v868h330v-895q0 -155 -38 -267.5t-112 -180t-174.5 -99.5t-232.5 -32q-271 0 -415.5 137.5t-144.5 441.5zM365 1946h311l119 -369h-199z" />
<glyph unicode="&#xda;" horiz-adv-x="1320" d="M102 563v895h330v-868q0 -177 51 -243t179 -66t177.5 65.5t49.5 243.5v868h330v-895q0 -155 -38 -267.5t-112 -180t-174.5 -99.5t-232.5 -32q-271 0 -415.5 137.5t-144.5 441.5zM520 1577l117 369h313l-231 -369h-199z" />
<glyph unicode="&#xdb;" horiz-adv-x="1320" d="M102 563v895h330v-868q0 -177 51 -243t179 -66t177.5 65.5t49.5 243.5v868h330v-895q0 -155 -38 -267.5t-112 -180t-174.5 -99.5t-232.5 -32q-271 0 -415.5 137.5t-144.5 441.5zM309 1577l240 313h219l240 -313h-244l-105 158l-106 -158h-244z" />
<glyph unicode="&#xdc;" horiz-adv-x="1320" d="M102 563v895h330v-868q0 -177 51 -243t179 -66t177.5 65.5t49.5 243.5v868h330v-895q0 -155 -38 -267.5t-112 -180t-174.5 -99.5t-232.5 -32q-271 0 -415.5 137.5t-144.5 441.5zM295 1755q0 63 41 105.5t104 42.5t105.5 -42.5t42.5 -105.5t-42.5 -105t-105.5 -42t-104 42 t-41 105zM731 1755q0 63 42.5 105.5t105.5 42.5q62 0 104.5 -42.5t42.5 -105.5t-42.5 -105t-104.5 -42q-63 0 -105.5 42t-42.5 105z" />
<glyph unicode="&#xdd;" horiz-adv-x="1107" d="M0 1458h348l207 -491l203 491h350l-389 -805v-653h-330v653zM416 1577l116 369h314l-232 -369h-198z" />
<glyph unicode="&#xde;" horiz-adv-x="1226" d="M113 0v1458h329v-235h172q292 0 427 -117.5t135 -366.5q0 -257 -141 -370t-429 -113h-164v-256h-329zM442 553h191q109 0 160 41.5t51 144.5q0 109 -52.5 148t-168.5 39h-181v-373z" />
<glyph unicode="&#xdf;" horiz-adv-x="1212" d="M82 0v1108q0 178 102 272.5t293 94.5q102 0 188 -40t140.5 -101t93 -137.5t54.5 -146.5t16 -130v-31q-85 0 -125.5 -26t-40.5 -68q0 -39 26.5 -68.5t88.5 -64.5q129 -70 191 -148t62 -192q0 -53 -22 -109t-66 -108.5t-122.5 -86.5t-178.5 -34q-78 0 -157 28t-140 76 l117 191q74 -46 154 -46q45 0 70.5 24t25.5 60q0 29 -25.5 58.5t-54.5 49t-82 50.5q-112 64 -159.5 125t-47.5 168q0 88 64.5 156t171.5 90q-5 29 -19 60t-37 63t-61 52.5t-84 20.5q-117 0 -117 -110v-1100h-319z" />
<glyph unicode="&#xe0;" d="M10 0l389 1458h490l389 -1458h-338l-68 246h-460l-66 -246h-336zM317 1946h312l119 -369h-199zM496 549h295l-148 590z" />
<glyph unicode="&#xe1;" d="M10 0l389 1458h490l389 -1458h-338l-68 246h-460l-66 -246h-336zM496 549h295l-148 590zM535 1577l116 369h314l-232 -369h-198z" />
<glyph unicode="&#xe2;" d="M10 0l389 1458h490l389 -1458h-338l-68 246h-460l-66 -246h-336zM293 1577l239 313h220l239 -313h-243l-105 158l-106 -158h-244zM496 549h295l-148 590z" />
<glyph unicode="&#xe3;" d="M10 0l389 1458h490l389 -1458h-338l-68 246h-460l-66 -246h-336zM188 1653q32 143 99.5 207.5t185.5 64.5q53 0 117 -32.5t119 -64.5t84 -32q18 0 31.5 10.5t23 32t13 34t9.5 36.5l209 -60q-30 -136 -96.5 -204t-185.5 -68q-53 0 -118 32.5t-119 64.5t-81 32 q-33 0 -51.5 -27t-30.5 -86zM496 549h295l-148 590z" />
<glyph unicode="&#xe4;" d="M10 0l389 1458h490l389 -1458h-338l-68 246h-460l-66 -246h-336zM279 1755q0 63 41 105.5t104 42.5t105 -42.5t42 -105.5t-42 -105t-105 -42t-104 42t-41 105zM496 549h295l-148 590zM715 1755q0 63 42 105.5t105 42.5q62 0 105 -42.5t43 -105.5t-43 -105t-105 -42 q-63 0 -105 42t-42 105z" />
<glyph unicode="&#xe5;" d="M10 0l389 1458h490l389 -1458h-338l-68 246h-460l-66 -246h-336zM444 1776q0 83 58 140.5t141 57.5t141 -57.5t58 -140.5t-58 -141t-141 -58t-141 58t-58 141zM496 549h295l-148 590zM582 1776q0 -26 17.5 -44t43.5 -18t44 18t18 44t-18 43.5t-44 17.5t-43.5 -17.5 t-17.5 -43.5z" />
<glyph unicode="&#xe6;" horiz-adv-x="1875" d="M10 0l760 1458h987v-305h-491v-246h491v-303h-491v-301h497v-303h-827v332h-387l-176 -332h-363zM713 635h223v455z" />
<glyph unicode="&#xe7;" horiz-adv-x="1394" d="M72 727q0 153 59 291.5t159 238.5t238 159t291 59q151 0 286 -56t238 -157l-223 -228q-55 61 -134 94t-167 33q-170 0 -289.5 -127.5t-119.5 -306.5q0 -177 119.5 -303.5t289.5 -126.5q88 0 167 33t134 94l223 -227q-103 -101 -238 -157t-286 -56q-4 0 -12 1t-12 1 l-21 -47q17 2 31 2q69 0 115.5 -43t46.5 -115q0 -99 -74.5 -146t-190.5 -47q-44 0 -92 7t-74 15l-26 7l47 115q90 -10 139 -10q38 0 58 14.5t20 38.5q0 45 -55 45q-21 0 -45.5 -4t-38.5 -8l-14 -3l-39 62l94 129q-261 50 -432.5 254.5t-171.5 474.5z" />
<glyph unicode="&#xe8;" horiz-adv-x="1071" d="M113 0v1458h841v-305h-512v-246h512v-303h-512v-301h516v-303h-845zM231 1946h312l119 -369h-199z" />
<glyph unicode="&#xe9;" horiz-adv-x="1071" d="M113 0v1458h841v-305h-512v-246h512v-303h-512v-301h516v-303h-845zM420 1577l117 369h313l-232 -369h-198z" />
<glyph unicode="&#xea;" horiz-adv-x="1071" d="M113 0v1458h841v-305h-512v-246h512v-303h-512v-301h516v-303h-845zM201 1577l239 313h219l240 -313h-244l-104 158l-107 -158h-243z" />
<glyph unicode="&#xeb;" horiz-adv-x="1071" d="M113 0v1458h841v-305h-512v-246h512v-303h-512v-301h516v-303h-845zM170 1755q0 63 41 105.5t104 42.5t105.5 -42.5t42.5 -105.5t-42.5 -105t-105.5 -42t-104 42t-41 105zM606 1755q0 63 42.5 105.5t105.5 42.5q62 0 104.5 -42.5t42.5 -105.5t-42.5 -105t-104.5 -42 q-63 0 -105.5 42t-42.5 105z" />
<glyph unicode="&#xec;" horiz-adv-x="555" d="M-18 1946h311l119 -369h-199zM113 0v1458h329v-1458h-329z" />
<glyph unicode="&#xed;" horiz-adv-x="555" d="M113 0v1458h329v-1458h-329zM166 1577l117 369h313l-231 -369h-199z" />
<glyph unicode="&#xee;" horiz-adv-x="555" d="M-72 1577l240 313h219l240 -313h-244l-104 158l-107 -158h-244zM113 0v1458h329v-1458h-329z" />
<glyph unicode="&#xef;" horiz-adv-x="555" d="M-88 1755q0 63 41 105.5t104 42.5t105.5 -42.5t42.5 -105.5t-42.5 -105t-105.5 -42t-104 42t-41 105zM113 0v1458h329v-1458h-329zM348 1755q0 63 42.5 105.5t105.5 42.5q62 0 104.5 -42.5t42.5 -105.5t-42.5 -105t-104.5 -42q-63 0 -105.5 42t-42.5 105z" />
<glyph unicode="&#xf0;" horiz-adv-x="1296" d="M0 604v260h113v594h499q142 0 245.5 -32.5t170 -91t106 -151.5t55 -201t15.5 -253t-15.5 -253t-55 -201t-106 -151.5t-170 -91t-245.5 -32.5h-499v604h-113zM442 303h187q60 0 101.5 17t67.5 48t40 86t19 118t5 157q0 95 -5 158t-19 117.5t-40 85t-67.5 47t-101.5 16.5 h-187v-289h152v-260h-152v-301z" />
<glyph unicode="&#xf1;" horiz-adv-x="1304" d="M113 0v1458h303l446 -799v799h330v-1458h-320l-430 758v-758h-329zM197 1653q32 143 99 207.5t185 64.5q53 0 117 -32.5t119 -64.5t84 -32q18 0 32 10.5t23 32t13 34.5t10 36l208 -60q-30 -136 -96.5 -204t-185.5 -68q-53 0 -118 32.5t-119 64.5t-81 32 q-33 0 -50.5 -26.5t-30.5 -86.5z" />
<glyph unicode="&#xf2;" horiz-adv-x="1636" d="M72 727q0 -152 59 -289.5t159 -237t238 -158t291 -58.5q152 0 290 58.5t238 158t159 237t59 289.5q0 204 -100 376t-271.5 272t-374.5 100q-153 0 -291 -59t-238 -159t-159 -238.5t-59 -291.5zM410 727q0 179 119.5 306.5t289.5 127.5q111 0 205 -58.5t148.5 -158.5 t54.5 -217q0 -177 -119.5 -303.5t-288.5 -126.5q-170 0 -289.5 126.5t-119.5 303.5zM487 1946h312l119 -369h-199z" />
<glyph unicode="&#xf3;" horiz-adv-x="1636" d="M72 727q0 -152 59 -289.5t159 -237t238 -158t291 -58.5q152 0 290 58.5t238 158t159 237t59 289.5q0 204 -100 376t-271.5 272t-374.5 100q-153 0 -291 -59t-238 -159t-159 -238.5t-59 -291.5zM410 727q0 179 119.5 306.5t289.5 127.5q111 0 205 -58.5t148.5 -158.5 t54.5 -217q0 -177 -119.5 -303.5t-288.5 -126.5q-170 0 -289.5 126.5t-119.5 303.5zM692 1577l117 369h313l-231 -369h-199z" />
<glyph unicode="&#xf4;" horiz-adv-x="1636" d="M72 727q0 -152 59 -289.5t159 -237t238 -158t291 -58.5q152 0 290 58.5t238 158t159 237t59 289.5q0 204 -100 376t-271.5 272t-374.5 100q-153 0 -291 -59t-238 -159t-159 -238.5t-59 -291.5zM410 727q0 179 119.5 306.5t289.5 127.5q111 0 205 -58.5t148.5 -158.5 t54.5 -217q0 -177 -119.5 -303.5t-288.5 -126.5q-170 0 -289.5 126.5t-119.5 303.5zM469 1577l240 313h219l239 -313h-243l-105 158l-106 -158h-244z" />
<glyph unicode="&#xf5;" horiz-adv-x="1636" d="M72 727q0 -152 59 -289.5t159 -237t238 -158t291 -58.5q152 0 290 58.5t238 158t159 237t59 289.5q0 204 -100 376t-271.5 272t-374.5 100q-153 0 -291 -59t-238 -159t-159 -238.5t-59 -291.5zM373 1653q32 143 99 207.5t185 64.5q53 0 117 -32.5t119 -64.5t84 -32 q18 0 32 10.5t23 32t13 34.5t10 36l209 -60q-30 -136 -97 -204t-186 -68q-53 0 -117.5 32.5t-118.5 64.5t-81 32q-33 0 -51.5 -27t-30.5 -86zM410 727q0 179 119.5 306.5t289.5 127.5q111 0 205 -58.5t148.5 -158.5t54.5 -217q0 -177 -119.5 -303.5t-288.5 -126.5 q-170 0 -289.5 126.5t-119.5 303.5z" />
<glyph unicode="&#xf6;" horiz-adv-x="1636" d="M72 727q0 -152 59 -289.5t159 -237t238 -158t291 -58.5q152 0 290 58.5t238 158t159 237t59 289.5q0 204 -100 376t-271.5 272t-374.5 100q-153 0 -291 -59t-238 -159t-159 -238.5t-59 -291.5zM410 727q0 179 119.5 306.5t289.5 127.5q111 0 205 -58.5t148.5 -158.5 t54.5 -217q0 -177 -119.5 -303.5t-288.5 -126.5q-170 0 -289.5 126.5t-119.5 303.5zM451 1755q0 63 41 105.5t104 42.5t105 -42.5t42 -105.5t-42 -105t-105 -42t-104 42t-41 105zM887 1755q0 63 42 105.5t105 42.5q62 0 105 -42.5t43 -105.5t-43 -105t-105 -42 q-63 0 -105 42t-42 105z" />
<glyph unicode="&#xf7;" horiz-adv-x="1026" d="M164 528v232h698v-232h-698zM336 240q0 72 51 124t123 52t123 -52t51 -124q0 -73 -50.5 -122.5t-123.5 -49.5t-123.5 49.5t-50.5 122.5zM336 1049q0 72 51 124t123 52t123 -52t51 -124q0 -73 -50.5 -122.5t-123.5 -49.5t-123.5 49.5t-50.5 122.5z" />
<glyph unicode="&#xf8;" horiz-adv-x="1636" d="M72 727q0 153 59 291.5t159 238.5t238 159t291 59q124 0 248 -43l70 129h256l-127 -236q139 -105 219 -261.5t80 -336.5q0 -152 -59 -289.5t-159 -237t-238 -158t-290 -58.5q-125 0 -252 43l-67 -129h-254l125 233q-139 103 -219 259.5t-80 336.5zM410 727 q0 -179 118 -303l387 725q-47 12 -96 12q-170 0 -289.5 -127.5t-119.5 -306.5zM719 309q49 -12 100 -12q169 0 288.5 126.5t119.5 303.5q0 176 -119 305z" />
<glyph unicode="&#xf9;" horiz-adv-x="1320" d="M102 563v895h330v-868q0 -177 51 -243t179 -66t177.5 65.5t49.5 243.5v868h330v-895q0 -155 -38 -267.5t-112 -180t-174.5 -99.5t-232.5 -32q-271 0 -415.5 137.5t-144.5 441.5zM309 1577l117 369h293l-232 -369h-178zM768 1577l117 369h293l-232 -369h-178z" />
<glyph unicode="&#xfa;" horiz-adv-x="1320" d="M102 563v895h330v-868q0 -177 51 -243t179 -66t177.5 65.5t49.5 243.5v868h330v-895q0 -155 -38 -267.5t-112 -180t-174.5 -99.5t-232.5 -32q-271 0 -415.5 137.5t-144.5 441.5zM520 1577l117 369h313l-231 -369h-199z" />
<glyph unicode="&#xfb;" horiz-adv-x="1320" d="M102 563v895h330v-868q0 -177 51 -243t179 -66t177.5 65.5t49.5 243.5v868h330v-895q0 -155 -38 -267.5t-112 -180t-174.5 -99.5t-232.5 -32q-271 0 -415.5 137.5t-144.5 441.5zM309 1577l240 313h219l240 -313h-244l-105 158l-106 -158h-244z" />
<glyph unicode="&#xfc;" horiz-adv-x="1320" d="M102 563v895h330v-868q0 -177 51 -243t179 -66t177.5 65.5t49.5 243.5v868h330v-895q0 -155 -38 -267.5t-112 -180t-174.5 -99.5t-232.5 -32q-271 0 -415.5 137.5t-144.5 441.5zM295 1755q0 63 41 105.5t104 42.5t105.5 -42.5t42.5 -105.5t-42.5 -105t-105.5 -42t-104 42 t-41 105zM731 1755q0 63 42.5 105.5t105.5 42.5q62 0 104.5 -42.5t42.5 -105.5t-42.5 -105t-104.5 -42q-63 0 -105.5 42t-42.5 105z" />
<glyph unicode="&#xfd;" horiz-adv-x="1107" d="M0 1458h348l207 -491l203 491h350l-389 -805v-653h-330v653zM416 1577l116 369h314l-232 -369h-198z" />
<glyph unicode="&#xfe;" horiz-adv-x="1226" d="M113 0v1458h329v-235h172q292 0 427 -117.5t135 -366.5q0 -257 -141 -370t-429 -113h-164v-256h-329zM442 553h191q109 0 160 41.5t51 144.5q0 109 -52.5 148t-168.5 39h-181v-373z" />
<glyph unicode="&#xff;" horiz-adv-x="1107" d="M0 1458h348l207 -491l203 491h350l-389 -805v-653h-330v653zM193 1755q0 63 41 105.5t104 42.5t105 -42.5t42 -105.5t-42 -105t-105 -42t-104 42t-41 105zM629 1755q0 63 42 105.5t105 42.5q62 0 105 -42.5t43 -105.5t-43 -105t-105 -42q-63 0 -105 42t-42 105z" />
<glyph unicode="&#x152;" horiz-adv-x="1886" d="M92 731q0 138 15.5 245t55 203.5t104.5 159.5t168 99.5t241 36.5q66 0 135.5 -15t116.5 -35v33h841v-305h-512v-246h512v-303h-512v-301h517v-303h-846v20q-141 -36 -252 -36q-138 0 -241.5 37t-168 100t-104.5 160t-55 204.5t-15 245.5zM434 731q0 -62 1.5 -105t7 -93.5 t15.5 -85t28 -68.5t43.5 -53.5t62.5 -32t84 -12.5t84 12.5t62 32t42.5 54t27.5 68t15 85t6.5 93.5t1.5 105t-1.5 105.5t-6.5 93.5t-15 83.5t-27.5 66.5t-42.5 53t-62 31t-84 12q-42 0 -75 -8.5t-57.5 -26t-43 -39t-30 -54.5t-19 -64.5t-11.5 -76.5t-5 -83.5t-1 -92.5z" />
<glyph unicode="&#x153;" horiz-adv-x="1886" d="M92 731q0 138 15.5 245t55 203.5t104.5 159.5t168 99.5t241 36.5q66 0 135.5 -15t116.5 -35v33h841v-305h-512v-246h512v-303h-512v-301h517v-303h-846v20q-141 -36 -252 -36q-138 0 -241.5 37t-168 100t-104.5 160t-55 204.5t-15 245.5zM434 731q0 -62 1.5 -105t7 -93.5 t15.5 -85t28 -68.5t43.5 -53.5t62.5 -32t84 -12.5t84 12.5t62 32t42.5 54t27.5 68t15 85t6.5 93.5t1.5 105t-1.5 105.5t-6.5 93.5t-15 83.5t-27.5 66.5t-42.5 53t-62 31t-84 12q-42 0 -75 -8.5t-57.5 -26t-43 -39t-30 -54.5t-19 -64.5t-11.5 -76.5t-5 -83.5t-1 -92.5z" />
<glyph unicode="&#x178;" horiz-adv-x="1107" d="M0 1458h348l207 -491l203 491h350l-389 -805v-653h-330v653zM193 1755q0 63 41 105.5t104 42.5t105 -42.5t42 -105.5t-42 -105t-105 -42t-104 42t-41 105zM629 1755q0 63 42 105.5t105 42.5q62 0 105 -42.5t43 -105.5t-43 -105t-105 -42q-63 0 -105 42t-42 105z" />
<glyph unicode="&#x2c6;" horiz-adv-x="872" d="M102 1178l230 297h207l231 -297h-229l-105 157l-104 -157h-230z" />
<glyph unicode="&#x2dc;" horiz-adv-x="1034" d="M102 1223q60 252 273 252q50 0 109.5 -29.5t109.5 -58.5t76 -29q60 0 88 102l174 -53q-59 -252 -270 -252q-49 0 -109.5 29.5t-111 58.5t-76.5 29q-28 0 -52 -26.5t-37 -76.5z" />
<glyph unicode="&#x2000;" horiz-adv-x="987" />
<glyph unicode="&#x2001;" horiz-adv-x="1974" />
<glyph unicode="&#x2002;" horiz-adv-x="987" />
<glyph unicode="&#x2003;" horiz-adv-x="1974" />
<glyph unicode="&#x2004;" horiz-adv-x="658" />
<glyph unicode="&#x2005;" horiz-adv-x="493" />
<glyph unicode="&#x2006;" horiz-adv-x="329" />
<glyph unicode="&#x2007;" horiz-adv-x="329" />
<glyph unicode="&#x2008;" horiz-adv-x="246" />
<glyph unicode="&#x2009;" horiz-adv-x="394" />
<glyph unicode="&#x200a;" horiz-adv-x="109" />
<glyph unicode="&#x2010;" horiz-adv-x="839" d="M164 391v250h512v-250h-512z" />
<glyph unicode="&#x2011;" horiz-adv-x="839" d="M164 391v250h512v-250h-512z" />
<glyph unicode="&#x2012;" horiz-adv-x="839" d="M164 391v250h512v-250h-512z" />
<glyph unicode="&#x2013;" horiz-adv-x="1167" d="M164 391v250h840v-250h-840z" />
<glyph unicode="&#x2014;" horiz-adv-x="2007" d="M164 391v250h1679v-250h-1679z" />
<glyph unicode="&#x2018;" horiz-adv-x="555" d="M102 1042q0 37 33 105l166 328l121 -27l-74 -248q48 -20 76.5 -63t28.5 -95q0 -73 -52.5 -124.5t-124.5 -51.5t-123 51.5t-51 124.5z" />
<glyph unicode="&#x2019;" horiz-adv-x="555" d="M102 1298q0 73 52.5 125t124.5 52t123 -52t51 -125q0 -36 -33 -104l-166 -328l-121 27l74 248q-48 20 -76.5 62.5t-28.5 94.5z" />
<glyph unicode="&#x201a;" horiz-adv-x="555" d="M102 156q0 73 52.5 124.5t124.5 51.5t123 -51.5t51 -124.5q0 -37 -33 -105l-166 -327l-121 26l74 248q-48 20 -76.5 63t-28.5 95z" />
<glyph unicode="&#x201c;" horiz-adv-x="997" d="M102 1042q0 37 33 105l166 328l121 -27l-74 -248q48 -20 76.5 -63t28.5 -95q0 -73 -52.5 -124.5t-124.5 -51.5t-123 51.5t-51 124.5zM545 1042q0 37 33 105l165 328l121 -27l-73 -248q47 -20 75.5 -63t28.5 -95q0 -73 -52 -124.5t-124 -51.5t-123 51.5t-51 124.5z" />
<glyph unicode="&#x201d;" horiz-adv-x="997" d="M102 1298q0 73 52.5 125t124.5 52t123 -52t51 -125q0 -36 -33 -104l-166 -328l-121 27l74 248q-48 20 -76.5 62.5t-28.5 94.5zM545 1298q0 73 52 125t124 52t123 -52t51 -125q0 -36 -33 -104l-166 -328l-121 27l74 248q-48 20 -76 62.5t-28 94.5z" />
<glyph unicode="&#x201e;" horiz-adv-x="1007" d="M102 156q0 73 52.5 124.5t124.5 51.5t123 -51.5t51 -124.5q0 -37 -33 -105l-166 -327l-121 26l74 248q-48 20 -76.5 63t-28.5 95zM555 156q0 73 52 124.5t124 51.5t123 -51.5t51 -124.5q0 -37 -33 -105l-165 -327l-121 26l73 248q-47 20 -75.5 63t-28.5 95z" />
<glyph unicode="&#x2022;" horiz-adv-x="925" d="M164 670q0 125 88.5 213t214.5 88q123 0 209 -88t86 -213t-86 -212t-209 -87q-126 0 -214.5 87.5t-88.5 211.5z" />
<glyph unicode="&#x2026;" horiz-adv-x="1699" d="M102 156q0 72 51 124t123 52t123.5 -52t51.5 -124q0 -73 -51 -122.5t-124 -49.5t-123.5 49.5t-50.5 122.5zM676 156q0 72 51 124t123 52t123 -52t51 -124q0 -73 -50.5 -122.5t-123.5 -49.5t-123.5 49.5t-50.5 122.5zM1249 156q0 72 51 124t123 52t123 -52t51 -124 q0 -73 -50.5 -122.5t-123.5 -49.5t-123.5 49.5t-50.5 122.5z" />
<glyph unicode="&#x202f;" horiz-adv-x="394" />
<glyph unicode="&#x2039;" horiz-adv-x="722" d="M143 467v94l310 432l168 -100l-218 -377l218 -381l-168 -100z" />
<glyph unicode="&#x203a;" horiz-adv-x="722" d="M102 135l217 381l-217 377l168 100l310 -432v-94l-310 -432z" />
<glyph unicode="&#x205f;" horiz-adv-x="493" />
<glyph unicode="&#x20ac;" horiz-adv-x="1239" d="M82 440v226h145v110h-145v225h166q40 233 171 353.5t382 120.5q106 0 193 -15.5t121 -31.5l34 -15l-135 -272q-80 35 -191 35q-102 0 -156 -44t-77 -131h291v-225h-312v-110h312v-226h-285q22 -80 71.5 -119.5t135.5 -39.5q51 0 111 12.5t94 24.5l34 12l136 -267 q-17 -9 -49 -22t-130.5 -35t-197.5 -22q-247 0 -378.5 115.5t-172.5 340.5h-168z" />
<glyph unicode="&#x2122;" horiz-adv-x="1624" d="M123 1237v197h545v-197h-162v-561h-221v561h-162zM760 676v758h198l152 -287l147 287h203v-758h-221v317l-121 -213h-18l-121 213v-317h-219z" />
<glyph unicode="&#xe000;" horiz-adv-x="1454" d="M0 0v1454h1454v-1454h-1454z" />
</font>
</defs>
</svg>
